<?xml version="1.0" encoding="UTF-8"?>
<!--Generator: Apple Native CoreSVG 149-->
<!DOCTYPE svg
PUBLIC "-//W3C//DTD SVG 1.1//EN"
       "http://www.w3.org/Graphics/SVG/1.1/DTD/svg11.dtd">
<svg version="1.1" xmlns="http://www.w3.org/2000/svg" xmlns:xlink="http://www.w3.org/1999/xlink" width="3300" height="2200">
 <!--glyph: "uni100115.medium", point size: 100.000000, font version: "Version 16.0d18e1", template writer version: "8"-->
 <g id="Notes">
  <rect height="2200" id="artboard" style="fill:white;opacity:1" width="3300" x="0" y="0"/>
  <line id="" style="fill:none;stroke:black;opacity:1;stroke-width:0.5;" x1="263" x2="3036" y1="292" y2="292"/>
  <text style="stroke:none;fill:black;font-family:-apple-system,&quot;SF Pro Display&quot;,&quot;SF Pro Text&quot;,Helvetica,sans-serif;font-weight:bold;" transform="matrix(1 0 0 1 263 322)">Weight/Scale Variations</text>
  <text style="stroke:none;fill:black;font-family:-apple-system,&quot;SF Pro Display&quot;,&quot;SF Pro Text&quot;,Helvetica,sans-serif;text-anchor:middle;" transform="matrix(1 0 0 1 559.711 322)">Ultralight</text>
  <text style="stroke:none;fill:black;font-family:-apple-system,&quot;SF Pro Display&quot;,&quot;SF Pro Text&quot;,Helvetica,sans-serif;text-anchor:middle;" transform="matrix(1 0 0 1 856.422 322)">Thin</text>
  <text style="stroke:none;fill:black;font-family:-apple-system,&quot;SF Pro Display&quot;,&quot;SF Pro Text&quot;,Helvetica,sans-serif;text-anchor:middle;" transform="matrix(1 0 0 1 1153.13 322)">Light</text>
  <text style="stroke:none;fill:black;font-family:-apple-system,&quot;SF Pro Display&quot;,&quot;SF Pro Text&quot;,Helvetica,sans-serif;text-anchor:middle;" transform="matrix(1 0 0 1 1449.84 322)">Regular</text>
  <text style="stroke:none;fill:black;font-family:-apple-system,&quot;SF Pro Display&quot;,&quot;SF Pro Text&quot;,Helvetica,sans-serif;text-anchor:middle;" transform="matrix(1 0 0 1 1746.56 322)">Medium</text>
  <text style="stroke:none;fill:black;font-family:-apple-system,&quot;SF Pro Display&quot;,&quot;SF Pro Text&quot;,Helvetica,sans-serif;text-anchor:middle;" transform="matrix(1 0 0 1 2043.27 322)">Semibold</text>
  <text style="stroke:none;fill:black;font-family:-apple-system,&quot;SF Pro Display&quot;,&quot;SF Pro Text&quot;,Helvetica,sans-serif;text-anchor:middle;" transform="matrix(1 0 0 1 2339.98 322)">Bold</text>
  <text style="stroke:none;fill:black;font-family:-apple-system,&quot;SF Pro Display&quot;,&quot;SF Pro Text&quot;,Helvetica,sans-serif;text-anchor:middle;" transform="matrix(1 0 0 1 2636.69 322)">Heavy</text>
  <text style="stroke:none;fill:black;font-family:-apple-system,&quot;SF Pro Display&quot;,&quot;SF Pro Text&quot;,Helvetica,sans-serif;text-anchor:middle;" transform="matrix(1 0 0 1 2933.4 322)">Black</text>
  <line id="" style="fill:none;stroke:black;opacity:1;stroke-width:0.5;" x1="263" x2="3036" y1="1903" y2="1903"/>
  <g id="" transform="matrix(1 0 0 1 263 1933)">
   <path d="M9.24805 0.830078C13.5547 0.830078 17.1387-2.74414 17.1387-7.05078C17.1387-11.3574 13.5449-14.9316 9.23828-14.9316C4.94141-14.9316 1.36719-11.3574 1.36719-7.05078C1.36719-2.74414 4.95117 0.830078 9.24805 0.830078ZM9.24805-0.654297C5.70312-0.654297 2.87109-3.49609 2.87109-7.05078C2.87109-10.6055 5.69336-13.4473 9.23828-13.4473C12.793-13.4473 15.6348-10.6055 15.6445-7.05078C15.6543-3.49609 12.8027-0.654297 9.24805-0.654297ZM6.39648-6.31836L8.50586-6.31836L8.50586-4.19922C8.50586-3.75977 8.79883-3.45703 9.22852-3.45703C9.67773-3.45703 9.9707-3.75977 9.9707-4.19922L9.9707-6.31836L12.0996-6.31836C12.5391-6.31836 12.8418-6.61133 12.8418-7.04102C12.8418-7.48047 12.5391-7.7832 12.0996-7.7832L9.9707-7.7832L9.9707-9.89258C9.9707-10.3418 9.67773-10.6445 9.22852-10.6445C8.79883-10.6445 8.50586-10.3418 8.50586-9.89258L8.50586-7.7832L6.39648-7.7832C5.94727-7.7832 5.64453-7.48047 5.64453-7.04102C5.64453-6.61133 5.94727-6.31836 6.39648-6.31836Z"/>
  </g>
  <g id="" transform="matrix(1 0 0 1 281.506 1933)">
   <path d="M11.709 2.91016C17.1582 2.91016 21.6699-1.61133 21.6699-7.05078C21.6699-12.5 17.1484-17.0117 11.6992-17.0117C6.25977-17.0117 1.74805-12.5 1.74805-7.05078C1.74805-1.61133 6.26953 2.91016 11.709 2.91016ZM11.709 1.25C7.09961 1.25 3.41797-2.44141 3.41797-7.05078C3.41797-11.6602 7.08984-15.3516 11.6992-15.3516C16.3086-15.3516 20-11.6602 20.0098-7.05078C20.0195-2.44141 16.3184 1.25 11.709 1.25ZM7.98828-6.23047L10.8789-6.23047L10.8789-3.32031C10.8789-2.83203 11.2109-2.5 11.6895-2.5C12.1777-2.5 12.5195-2.83203 12.5195-3.32031L12.5195-6.23047L15.4297-6.23047C15.918-6.23047 16.25-6.5625 16.25-7.04102C16.25-7.5293 15.918-7.87109 15.4297-7.87109L12.5195-7.87109L12.5195-10.7617C12.5195-11.2695 12.1777-11.6016 11.6895-11.6016C11.2109-11.6016 10.8789-11.2598 10.8789-10.7617L10.8789-7.87109L7.98828-7.87109C7.48047-7.87109 7.14844-7.5293 7.14844-7.04102C7.14844-6.5625 7.49023-6.23047 7.98828-6.23047Z"/>
  </g>
  <g id="" transform="matrix(1 0 0 1 304.924 1933)">
   <path d="M14.9707 5.66406C21.9336 5.66406 27.6953-0.0976562 27.6953-7.05078C27.6953-14.0137 21.9238-19.7754 14.9609-19.7754C8.00781-19.7754 2.25586-14.0137 2.25586-7.05078C2.25586-0.0976562 8.01758 5.66406 14.9707 5.66406ZM14.9707 3.84766C8.93555 3.84766 4.08203-1.01562 4.08203-7.05078C4.08203-13.0957 8.92578-17.9492 14.9609-17.9492C21.0059-17.9492 25.8594-13.0957 25.8691-7.05078C25.8789-1.01562 21.0156 3.84766 14.9707 3.84766ZM10.0586-6.14258L14.0625-6.14258L14.0625-2.12891C14.0625-1.5918 14.4336-1.2207 14.9512-1.2207C15.4883-1.2207 15.8594-1.5918 15.8594-2.12891L15.8594-6.14258L19.8828-6.14258C20.4102-6.14258 20.791-6.51367 20.791-7.03125C20.791-7.56836 20.4199-7.94922 19.8828-7.94922L15.8594-7.94922L15.8594-11.9531C15.8594-12.5098 15.4883-12.8809 14.9512-12.8809C14.4336-12.8809 14.0625-12.5 14.0625-11.9531L14.0625-7.94922L10.0586-7.94922C9.50195-7.94922 9.13086-7.56836 9.13086-7.03125C9.13086-6.51367 9.51172-6.14258 10.0586-6.14258Z"/>
  </g>
  <text style="stroke:none;fill:black;font-family:-apple-system,&quot;SF Pro Display&quot;,&quot;SF Pro Text&quot;,Helvetica,sans-serif;font-weight:bold;" transform="matrix(1 0 0 1 263 1953)">Design Variations</text>
  <text style="stroke:none;fill:black;font-family:-apple-system,&quot;SF Pro Display&quot;,&quot;SF Pro Text&quot;,Helvetica,sans-serif;" transform="matrix(1 0 0 1 263 1971)">Symbols are supported in up to nine weights and three scales.</text>
  <text style="stroke:none;fill:black;font-family:-apple-system,&quot;SF Pro Display&quot;,&quot;SF Pro Text&quot;,Helvetica,sans-serif;" transform="matrix(1 0 0 1 263 1989)">For optimal layout with text and other symbols, vertically align</text>
  <text style="stroke:none;fill:black;font-family:-apple-system,&quot;SF Pro Display&quot;,&quot;SF Pro Text&quot;,Helvetica,sans-serif;" transform="matrix(1 0 0 1 263 2007)">symbols with the adjacent text.</text>
  <line id="" style="fill:none;stroke:#00AEEF;stroke-width:0.5;opacity:1.0;" x1="776" x2="776" y1="1919" y2="1933"/>
  <g id="" transform="matrix(1 0 0 1 776 1933)">
   <path d="M3.31055 0.126953C3.82812 0.126953 4.08203-0.0683594 4.26758-0.605469L5.52734-4.0625L11.2891-4.0625L12.5488-0.605469C12.7344-0.0683594 12.9883 0.126953 13.4961 0.126953C14.0137 0.126953 14.3457-0.185547 14.3457-0.673828C14.3457-0.839844 14.3164-0.986328 14.2383-1.20117L9.6582-13.3887C9.43359-13.9941 9.0332-14.2871 8.4082-14.2871C7.80273-14.2871 7.39258-13.9941 7.17773-13.3984L2.59766-1.19141C2.51953-0.976562 2.49023-0.830078 2.49023-0.664062C2.49023-0.175781 2.80273 0.126953 3.31055 0.126953ZM6.00586-5.53711L8.37891-12.1094L8.42773-12.1094L10.8008-5.53711Z"/>
  </g>
  <line id="" style="fill:none;stroke:#00AEEF;stroke-width:0.5;opacity:1.0;" x1="792.836" x2="792.836" y1="1919" y2="1933"/>
  <text style="stroke:none;fill:black;font-family:-apple-system,&quot;SF Pro Display&quot;,&quot;SF Pro Text&quot;,Helvetica,sans-serif;font-weight:bold;" transform="matrix(1 0 0 1 776 1953)">Margins</text>
  <text style="stroke:none;fill:black;font-family:-apple-system,&quot;SF Pro Display&quot;,&quot;SF Pro Text&quot;,Helvetica,sans-serif;" transform="matrix(1 0 0 1 776 1971)">Leading and trailing margins on the left and right side of each symbol</text>
  <text style="stroke:none;fill:black;font-family:-apple-system,&quot;SF Pro Display&quot;,&quot;SF Pro Text&quot;,Helvetica,sans-serif;" transform="matrix(1 0 0 1 776 1989)">can be adjusted by modifying the x-location of the margin guidelines.</text>
  <text style="stroke:none;fill:black;font-family:-apple-system,&quot;SF Pro Display&quot;,&quot;SF Pro Text&quot;,Helvetica,sans-serif;" transform="matrix(1 0 0 1 776 2007)">Modifications are automatically applied proportionally to all</text>
  <text style="stroke:none;fill:black;font-family:-apple-system,&quot;SF Pro Display&quot;,&quot;SF Pro Text&quot;,Helvetica,sans-serif;" transform="matrix(1 0 0 1 776 2025)">scales and weights.</text>
  <g id="" transform="matrix(1 0 0 1 1289 1933)">
   <path d="M2.8418 1.86523L4.54102 3.57422C5.40039 4.44336 6.38672 4.38477 7.31445 3.35938L17.4902-7.85156C17.7539-7.76367 18.0273-7.7832 18.3398-7.8418L19.4043-8.03711L20.0684-7.36328L20.0293-6.80664C19.9902-6.30859 20.1172-5.92773 20.6055-5.44922L21.3672-4.70703C21.8457-4.22852 22.4609-4.19922 22.9297-4.66797L25.8398-7.58789C26.3086-8.05664 26.2891-8.65234 25.8105-9.13086L25.0391-9.89258C24.5605-10.3711 24.1895-10.5273 23.7109-10.4883L23.1348-10.4395L22.4902-11.0742L22.7344-12.1973C22.8613-12.7637 22.7051-13.2031 22.1191-13.7891L19.9219-15.9766C16.582-19.2969 12.1484-19.2188 9.25781-16.3281C8.83789-15.918 8.80859-15.3418 9.04297-14.9512C9.27734-14.5898 9.73633-14.3555 10.3809-14.5215C11.8457-14.8633 13.3691-14.9219 14.7949-13.9844L14.209-12.5293C14.0137-12.0508 13.9844-11.6504 14.1113-11.2891L3.04688-0.898438C2.06055 0.0195312 1.98242 0.996094 2.8418 1.86523ZM10.752-15.957C13.1836-17.7344 16.4746-17.4316 18.7012-15.2051L21.1328-12.793C21.3672-12.5586 21.4062-12.373 21.3379-12.0312L21.0156-10.5469L22.5195-9.0625L23.5059-9.12109C23.7598-9.13086 23.8379-9.11133 24.0332-8.91602L24.6094-8.33984L22.168-5.89844L21.5918-6.47461C21.3965-6.66992 21.3672-6.74805 21.377-7.01172L21.4453-7.98828L19.9512-9.47266L18.4277-9.21875C18.1055-9.15039 17.959-9.17969 17.7148-9.41406L15.7129-11.416C15.459-11.6504 15.4297-11.8164 15.5859-12.1875L16.4648-14.2773C14.9023-15.7324 12.8711-16.3574 10.8398-15.7617C10.6836-15.7227 10.625-15.8496 10.752-15.957ZM5.27344 2.30469L4.10156 1.14258C3.63281 0.683594 3.74023 0.341797 4.14062-0.0195312L14.9512-10.1953L16.416-8.71094L6.42578 2.27539C6.07422 2.67578 5.74219 2.77344 5.27344 2.30469Z"/>
  </g>
  <text style="stroke:none;fill:black;font-family:-apple-system,&quot;SF Pro Display&quot;,&quot;SF Pro Text&quot;,Helvetica,sans-serif;font-weight:bold;" transform="matrix(1 0 0 1 1289 1953)">Exporting</text>
  <text style="stroke:none;fill:black;font-family:-apple-system,&quot;SF Pro Display&quot;,&quot;SF Pro Text&quot;,Helvetica,sans-serif;" transform="matrix(1 0 0 1 1289 1971)">Symbols should be outlined when exporting to ensure the</text>
  <text style="stroke:none;fill:black;font-family:-apple-system,&quot;SF Pro Display&quot;,&quot;SF Pro Text&quot;,Helvetica,sans-serif;" transform="matrix(1 0 0 1 1289 1989)">design is preserved when submitting to Xcode.</text>
  <text id="template-version" style="stroke:none;fill:black;font-family:-apple-system,&quot;SF Pro Display&quot;,&quot;SF Pro Text&quot;,Helvetica,sans-serif;text-anchor:end;" transform="matrix(1 0 0 1 3036 1933)">Template v.2.0</text>
  <text style="stroke:none;fill:black;font-family:-apple-system,&quot;SF Pro Display&quot;,&quot;SF Pro Text&quot;,Helvetica,sans-serif;text-anchor:end;" transform="matrix(1 0 0 1 3036 1951)">Requires Xcode 12 or greater</text>
  <text style="stroke:none;fill:black;font-family:-apple-system,&quot;SF Pro Display&quot;,&quot;SF Pro Text&quot;,Helvetica,sans-serif;text-anchor:end;" transform="matrix(1 0 0 1 3036 1969)">Generated from arrow.up.right.square.fill</text>
  <text style="stroke:none;fill:black;font-family:-apple-system,&quot;SF Pro Display&quot;,&quot;SF Pro Text&quot;,Helvetica,sans-serif;text-anchor:end;" transform="matrix(1 0 0 1 3036 1987)">Typeset at 100 points</text>
  <text style="stroke:none;fill:black;font-family:-apple-system,&quot;SF Pro Display&quot;,&quot;SF Pro Text&quot;,Helvetica,sans-serif;" transform="matrix(1 0 0 1 263 726)">Small</text>
  <text style="stroke:none;fill:black;font-family:-apple-system,&quot;SF Pro Display&quot;,&quot;SF Pro Text&quot;,Helvetica,sans-serif;" transform="matrix(1 0 0 1 263 1156)">Medium</text>
  <text style="stroke:none;fill:black;font-family:-apple-system,&quot;SF Pro Display&quot;,&quot;SF Pro Text&quot;,Helvetica,sans-serif;" transform="matrix(1 0 0 1 263 1586)">Large</text>
 </g>
 <g id="Guides">
  <g id="H-reference" style="fill:#27AAE1;stroke:none;" transform="matrix(1 0 0 1 339 696)">
   <path d="M0.976562 0L3.66211 0L12.9883-24.4629L45.752-24.4629L55.127 0L57.7637 0L30.6152-70.459L28.125-70.459ZM29.3457-67.1387L29.4434-67.1387L44.873-26.709L13.8672-26.709Z"/>
  </g>
  <line id="Baseline-S" style="fill:none;stroke:#27AAE1;opacity:1;stroke-width:0.5;" x1="263" x2="3036" y1="696" y2="696"/>
  <line id="Capline-S" style="fill:none;stroke:#27AAE1;opacity:1;stroke-width:0.5;" x1="263" x2="3036" y1="625.541" y2="625.541"/>
  <g id="H-reference" style="fill:#27AAE1;stroke:none;" transform="matrix(1 0 0 1 339 1126)">
   <path d="M0.976562 0L3.66211 0L12.9883-24.4629L45.752-24.4629L55.127 0L57.7637 0L30.6152-70.459L28.125-70.459ZM29.3457-67.1387L29.4434-67.1387L44.873-26.709L13.8672-26.709Z"/>
  </g>
  <line id="Baseline-M" style="fill:none;stroke:#27AAE1;opacity:1;stroke-width:0.5;" x1="263" x2="3036" y1="1126" y2="1126"/>
  <line id="Capline-M" style="fill:none;stroke:#27AAE1;opacity:1;stroke-width:0.5;" x1="263" x2="3036" y1="1055.54" y2="1055.54"/>
  <g id="H-reference" style="fill:#27AAE1;stroke:none;" transform="matrix(1 0 0 1 339 1556)">
   <path d="M0.976562 0L3.66211 0L12.9883-24.4629L45.752-24.4629L55.127 0L57.7637 0L30.6152-70.459L28.125-70.459ZM29.3457-67.1387L29.4434-67.1387L44.873-26.709L13.8672-26.709Z"/>
  </g>
  <line id="Baseline-L" style="fill:none;stroke:#27AAE1;opacity:1;stroke-width:0.5;" x1="263" x2="3036" y1="1556" y2="1556"/>
  <line id="Capline-L" style="fill:none;stroke:#27AAE1;opacity:1;stroke-width:0.5;" x1="263" x2="3036" y1="1485.54" y2="1485.54"/>
  <line id="left-margin" style="fill:none;stroke:#00AEEF;stroke-width:0.5;opacity:1.0;" x1="1392.45" x2="1392.45" y1="1030.79" y2="1150.12"/>
  <line id="right-margin" style="fill:none;stroke:#00AEEF;stroke-width:0.5;opacity:1.0;" x1="1507.24" x2="1507.24" y1="1030.79" y2="1150.12"/>
 </g>
 <g id="Symbols">
  <g id="Black-L" transform="matrix(1 0 0 1 2855.62 1556)">
   <path d="M39.9902 26.5137L115.576 26.5137C130.811 26.5137 139.502 17.8711 139.502 2.68555L139.502-73.0957C139.502-88.2812 130.811-96.875 115.576-96.875L39.9902-96.875C24.7559-96.875 16.0645-88.2812 16.0645-73.0957L16.0645 2.68555C16.0645 17.8711 24.7559 26.5137 39.9902 26.5137ZM98.9746-14.5996C94.1895-14.5996 91.2109-18.0664 91.2109-23.4375L91.2109-30.6152L92.1387-37.5977L84.9609-29.1016L66.4062-10.5957C64.209-8.44727 61.9141-7.61719 59.2773-7.61719C54.2969-7.61719 50.0977-11.2305 50.0977-16.6504C50.0977-19.0918 51.1719-21.6309 53.0273-23.4375L71.8262-42.2363L80.3223-49.4141L73.5352-48.291L65.8691-48.291C60.5469-48.291 57.0801-51.2695 57.0801-56.0547C57.0801-60.8398 60.5957-63.8184 66.0156-63.8184L95.7031-63.8184C102.588-63.8184 106.641-59.9121 106.641-52.9785L106.641-23.3887C106.641-18.0664 103.711-14.5996 98.9746-14.5996Z"/>
  </g>
  <g id="Heavy-L" transform="matrix(1 0 0 1 2559.93 1556)">
   <path d="M38.8184 25.4883L114.697 25.4883C129.346 25.4883 137.451 17.4316 137.451 2.88086L137.451-73.2422C137.451-87.793 129.346-95.8496 114.697-95.8496L38.8184-95.8496C24.2188-95.8496 16.0645-87.793 16.0645-73.2422L16.0645 2.88086C16.0645 17.4316 24.2188 25.4883 38.8184 25.4883ZM97.8516-15.7715C93.6035-15.7715 90.9668-18.7988 90.9668-23.5352L90.9668-32.0801L91.7969-39.8926L84.3262-31.25L63.9648-10.8887C62.1094-9.08203 60.0586-8.30078 57.7637-8.30078C53.3691-8.30078 49.7559-11.4746 49.7559-16.2109C49.7559-18.3105 50.7324-20.5078 52.2949-22.1191L72.9004-42.627L81.5918-50.1953L74.1699-49.1699L64.9902-49.1699C60.3027-49.1699 57.2266-51.8066 57.2266-56.0059C57.2266-60.2539 60.3027-62.8906 65.0879-62.8906L95.2148-62.8906C101.123-62.8906 104.639-59.6191 104.639-53.5645L104.639-23.5352C104.639-18.8477 102.002-15.7715 97.8516-15.7715Z"/>
  </g>
  <g id="Bold-L" transform="matrix(1 0 0 1 2264.37 1556)">
   <path d="M37.5 24.3652L113.721 24.3652C127.637 24.3652 135.156 16.8945 135.156 3.07617L135.156-73.3887C135.156-87.207 127.637-94.7266 113.721-94.7266L37.5-94.7266C23.6328-94.7266 16.0645-87.2559 16.0645-73.3887L16.0645 3.07617C16.0645 16.8945 23.6328 24.3652 37.5 24.3652ZM96.582-17.041C92.9199-17.041 90.625-19.6289 90.625-23.6816L90.625-33.7402L91.4551-42.4316L83.5938-33.5938L61.1816-11.2305C59.7168-9.76562 58.0078-9.08203 56.0059-9.08203C52.2949-9.08203 49.4141-11.7188 49.4141-15.7227C49.4141-17.4805 50.1953-19.2871 51.5137-20.6055L74.0723-43.1152L82.959-51.0254L74.8535-50.0977L63.9648-50.0977C59.9609-50.0977 57.373-52.3926 57.373-56.0059C57.373-59.6191 59.9609-61.9141 64.0137-61.9141L94.6777-61.9141C99.5117-61.9141 102.441-59.3262 102.441-54.1992L102.441-23.6816C102.441-19.6777 100.146-17.041 96.582-17.041Z"/>
  </g>
  <g id="Semibold-L" transform="matrix(1 0 0 1 1968.44 1556)">
   <path d="M36.6211 23.584L113.037 23.584C126.514 23.584 133.594 16.5039 133.594 3.17383L133.594-73.5352C133.594-86.8164 126.514-93.9453 113.037-93.9453L36.6211-93.9453C23.1934-93.9453 16.0645-86.8652 16.0645-73.5352L16.0645 3.17383C16.0645 16.5527 23.1934 23.584 36.6211 23.584ZM95.7031-17.9688C92.4805-17.9688 90.4297-20.2148 90.4297-23.7305L90.4297-34.8633L91.2109-44.1895L83.0566-35.2539L59.3262-11.4746C58.0566-10.2539 56.5918-9.61914 54.834-9.61914C51.5625-9.61914 49.1211-11.9141 49.1211-15.332C49.1211-16.8945 49.8535-18.4082 50.9766-19.5801L74.8535-43.4082L83.8867-51.6113L75.293-50.7324L63.2812-50.7324C59.7656-50.7324 57.4707-52.7832 57.4707-56.0059C57.4707-59.1797 59.7656-61.2305 63.2812-61.2305L94.2871-61.2305C98.3887-61.2305 100.928-59.082 100.928-54.6875L100.928-23.7793C100.928-20.3125 98.877-17.9688 95.7031-17.9688Z"/>
  </g>
  <g id="Medium-L" transform="matrix(1 0 0 1 1672.31 1556)">
   <path d="M35.9375 22.998L112.5 22.998C125.635 22.998 132.422 16.2109 132.422 3.27148L132.422-73.6328C132.422-86.5234 125.635-93.3105 112.5-93.3105L35.9375-93.3105C22.9004-93.3105 16.0645-86.5723 16.0645-73.6328L16.0645 3.27148C16.0645 16.2598 22.9004 22.998 35.9375 22.998ZM95.0195-18.6523C92.1387-18.6523 90.2832-20.6055 90.2832-23.7793L90.2832-35.6934L91.0156-45.5078L82.666-36.4746L57.8613-11.6211C56.7871-10.5957 55.5176-10.0098 53.9062-10.0098C51.0254-10.0098 48.9258-12.0117 48.9258-15.0879C48.9258-16.4551 49.5605-17.7734 50.5859-18.7988L75.4883-43.6523L84.6191-52.0996L75.6348-51.2207L62.7441-51.2207C59.6191-51.2207 57.5684-53.125 57.5684-55.957C57.5684-58.8379 59.5703-60.6934 62.6953-60.6934L93.9941-60.6934C97.5586-60.6934 99.7559-58.8867 99.7559-54.9805L99.7559-23.877C99.7559-20.752 97.8516-18.6523 95.0195-18.6523Z"/>
  </g>
  <g id="Regular-L" transform="matrix(1 0 0 1 1376.38 1556)">
   <path d="M35.0586 22.2168L111.816 22.2168C124.463 22.2168 130.859 15.8691 130.859 3.41797L130.859-73.7305C130.859-86.1816 124.463-92.5293 111.816-92.5293L35.0586-92.5293C22.4609-92.5293 16.0645-86.2305 16.0645-73.7305L16.0645 3.41797C16.0645 15.918 22.4609 22.2168 35.0586 22.2168ZM94.1895-19.5312C91.6992-19.5312 90.0391-21.1914 90.0391-23.877L90.0391-36.8164L90.7715-47.2656L82.1777-38.0859L56.0059-11.8652C55.1758-11.0352 54.1504-10.5469 52.7344-10.5469C50.293-10.5469 48.6816-12.207 48.6816-14.7461C48.6816-15.8691 49.2188-16.9434 50.0488-17.7734L76.3184-43.9941L85.5469-52.6855L76.123-51.8555L62.0605-51.8555C59.375-51.8555 57.666-53.5156 57.666-55.957C57.666-58.3984 59.3262-60.0098 61.9629-60.0098L93.6523-60.0098C96.4355-60.0098 98.2422-58.6914 98.2422-55.4688L98.2422-23.9746C98.2422-21.3379 96.582-19.5312 94.1895-19.5312Z"/>
  </g>
  <g id="Light-L" transform="matrix(1 0 0 1 1080.5 1556)">
   <path d="M34.0332 21.4355L111.23 21.4355C123.096 21.4355 129.199 15.2344 129.199 3.56445L129.199-73.8281C129.199-85.5469 123.096-91.6992 111.23-91.6992L34.0332-91.6992C22.168-91.6992 16.0645-85.6445 16.0645-73.8281L16.0645 3.56445C16.0645 15.3809 22.168 21.4355 34.0332 21.4355ZM93.7988-19.9707C91.8457-19.9707 90.625-21.2891 90.625-23.3398L90.625-38.7695L91.0645-49.6094L83.4961-41.6016L54.0527-12.1094C53.418-11.4746 52.5879-11.084 51.5137-11.084C49.6094-11.084 48.3398-12.3535 48.3398-14.3066C48.3398-15.1855 48.7793-16.0156 49.4141-16.6504L78.9551-46.1914L87.0117-53.8086L77.832-53.3203L60.6934-53.3203C58.5938-53.3203 57.2754-54.5898 57.2754-56.4941C57.2754-58.3496 58.5938-59.5703 60.5957-59.5703L93.457-59.5703C95.5566-59.5703 96.875-58.4961 96.875-56.1035L96.875-23.3887C96.875-21.3867 95.6543-19.9707 93.7988-19.9707Z"/>
  </g>
  <g id="Thin-L" transform="matrix(1 0 0 1 784.889 1556)">
   <path d="M32.666 20.3613L110.352 20.3613C121.24 20.3613 127.002 14.4531 127.002 3.75977L127.002-73.9746C127.002-84.7168 121.24-90.5762 110.352-90.5762L32.666-90.5762C21.7773-90.5762 16.0645-84.8633 16.0645-73.9746L16.0645 3.75977C16.0645 14.6484 21.7773 20.3613 32.666 20.3613ZM93.2617-20.6055C92.0898-20.6055 91.3574-21.3867 91.3574-22.6562L91.3574-41.3574L91.4551-52.6855L85.2539-46.2402L51.4648-12.4023C51.0742-12.0605 50.5859-11.7676 49.8535-11.7676C48.6816-11.7676 47.9004-12.5488 47.9004-13.7207C47.9004-14.3555 48.1934-14.8438 48.584-15.2344L82.4707-49.1211L88.916-55.3711L80.127-55.2734L58.7891-55.2734C57.5684-55.2734 56.7871-56.0547 56.7871-57.1777C56.7871-58.3008 57.5684-58.9844 58.7891-58.9844L93.2129-58.9844C94.3359-58.9844 95.1172-58.252 95.1172-56.9824L95.1172-22.6562C95.1172-21.4355 94.3848-20.6055 93.2617-20.6055Z"/>
  </g>
  <g id="Ultralight-L" transform="matrix(1 0 0 1 488.739 1556)">
   <path d="M31.9824 19.7754L109.961 19.7754C120.312 19.7754 125.879 14.0625 125.879 3.85742L125.879-74.0723C125.879-84.2773 120.312-89.9902 109.961-89.9902L31.9824-89.9902C21.582-89.9902 16.0645-84.4727 16.0645-74.0723L16.0645 3.85742C16.0645 14.2578 21.582 19.7754 31.9824 19.7754ZM93.0176-20.9473C92.2363-20.9473 91.6992-21.4844 91.6992-22.3145L91.6992-42.6758L91.6016-54.2969L86.1816-48.6328L50.0977-12.5977C49.8535-12.3047 49.5117-12.1094 48.9746-12.1094C48.1934-12.1094 47.6562-12.6465 47.6562-13.4277C47.6562-13.916 47.9004-14.209 48.1445-14.502L84.2773-50.6348L89.9414-56.1523L81.3477-56.25L57.8613-56.25C57.0312-56.25 56.4941-56.7871 56.4941-57.5684C56.4941-58.252 57.0312-58.6914 57.8613-58.6914L93.0664-58.6914C93.75-58.6914 94.2383-58.1055 94.2383-57.4219L94.2383-22.3145C94.2383-21.4355 93.7012-20.9473 93.0176-20.9473Z"/>
  </g>
  <g id="Black-M" transform="matrix(1 0 0 1 2872.19 1126)">
   <path d="M31.9824 13.5742L90.4297 13.5742C102.686 13.5742 109.961 6.29883 109.961-5.95703L109.961-64.4043C109.961-76.6602 102.686-83.9355 90.4297-83.9355L31.9824-83.9355C19.7266-83.9355 12.4512-76.6602 12.4512-64.4043L12.4512-5.95703C12.4512 6.29883 19.7266 13.5742 31.9824 13.5742ZM78.0273-17.9688C73.877-17.9688 71.3867-20.9961 71.3867-25.6836L71.3867-30.7129L71.9727-35.2539L67.4805-29.4922L53.7598-15.8691C51.709-13.916 49.6582-13.1348 47.3633-13.1348C42.9688-13.1348 39.1113-16.4062 39.1113-21.1914C39.1113-23.4375 40.0391-25.6836 41.6992-27.3438L55.6641-41.3086L61.377-45.8008L57.1289-45.0195L51.5137-45.0195C46.875-45.0195 43.8477-47.5098 43.8477-51.6602C43.8477-55.8105 46.9238-58.3496 51.709-58.3496L74.707-58.3496C80.957-58.3496 84.6191-54.6875 84.6191-48.584L84.6191-25.5371C84.6191-20.8984 82.1289-17.9688 78.0273-17.9688Z"/>
  </g>
  <g id="Heavy-M" transform="matrix(1 0 0 1 2576.39 1126)">
   <path d="M31.0059 12.6465L89.6484 12.6465C101.416 12.6465 108.154 5.9082 108.154-5.81055L108.154-64.5508C108.154-76.2695 101.416-83.0566 89.6484-83.0566L31.0059-83.0566C19.2383-83.0566 12.4512-76.3184 12.4512-64.5508L12.4512-5.81055C12.4512 5.9082 19.2383 12.6465 31.0059 12.6465ZM76.9043-19.0918C73.1934-19.0918 70.9473-21.7773 70.9473-25.9277L70.9473-31.7871L71.582-37.1094L66.4062-30.9082L51.5625-16.1133C49.8535-14.4531 48.0469-13.7695 45.9961-13.7695C42.1387-13.7695 38.8184-16.6504 38.8184-20.8496C38.8184-22.7539 39.6484-24.707 41.1133-26.123L56.1523-41.1621L62.3535-46.3379L57.3242-45.5566L50.9277-45.5566C46.7773-45.5566 44.0918-47.8027 44.0918-51.5137C44.0918-55.2246 46.8262-57.4707 51.0254-57.4707L74.2676-57.4707C79.6387-57.4707 82.8125-54.3945 82.8125-49.0234L82.8125-25.8789C82.8125-21.7285 80.5176-19.0918 76.9043-19.0918Z"/>
  </g>
  <g id="Bold-M" transform="matrix(1 0 0 1 2280.68 1126)">
   <path d="M29.8828 11.6699L88.7207 11.6699C99.9512 11.6699 106.152 5.46875 106.152-5.66406L106.152-64.6973C106.152-75.8789 99.9512-82.0312 88.7207-82.0312L29.8828-82.0312C18.6523-82.0312 12.4512-75.8789 12.4512-64.6973L12.4512-5.66406C12.4512 5.51758 18.6523 11.6699 29.8828 11.6699ZM75.6348-20.3613C72.4121-20.3613 70.4102-22.6562 70.4102-26.2207L70.4102-33.0566L71.0938-39.209L65.1855-32.4707L49.1211-16.4062C47.7539-15.0879 46.2402-14.502 44.4824-14.502C41.1621-14.502 38.5254-16.8457 38.5254-20.4102C38.5254-21.9727 39.209-23.6328 40.4297-24.8047L56.6406-41.0156L63.4277-46.9727L57.5684-46.1426L50.2441-46.1426C46.6797-46.1426 44.3848-48.1445 44.3848-51.3184C44.3848-54.541 46.6797-56.4941 50.293-56.4941L73.6816-56.4941C78.125-56.4941 80.7617-54.1016 80.7617-49.5605L80.7617-26.1719C80.7617-22.6562 78.7598-20.3613 75.6348-20.3613Z"/>
  </g>
  <g id="Semibold-M" transform="matrix(1 0 0 1 1984.65 1126)">
   <path d="M29.1016 10.9863L88.0859 10.9863C98.9746 10.9863 104.785 5.17578 104.785-5.56641L104.785-64.8438C104.785-75.5859 98.9746-81.3477 88.0859-81.3477L29.1016-81.3477C18.2617-81.3477 12.4512-75.5859 12.4512-64.8438L12.4512-5.56641C12.4512 5.22461 18.2617 10.9863 29.1016 10.9863ZM74.7559-21.2402C71.875-21.2402 70.0684-23.2422 70.0684-26.3672L70.0684-33.8867L70.752-40.6738L64.3555-33.5449L47.4609-16.6504C46.2891-15.4785 45.0195-14.9902 43.457-14.9902C40.5273-14.9902 38.2812-17.041 38.2812-20.1172C38.2812-21.4844 38.916-22.9004 39.9414-23.9258L56.9824-40.918L64.1602-47.3633L57.7148-46.582L49.7559-46.582C46.6309-46.582 44.5801-48.3887 44.5801-51.2207C44.5801-54.0527 46.582-55.8594 49.7559-55.8594L73.3398-55.8594C77.0996-55.8594 79.3457-53.8574 79.3457-49.9023L79.3457-26.416C79.3457-23.3398 77.5391-21.2402 74.7559-21.2402Z"/>
  </g>
  <g id="Medium-M" transform="matrix(1 0 0 1 1688.47 1126)">
   <path d="M28.5156 10.4492L87.6465 10.4492C98.2422 10.4492 103.711 4.98047 103.711-5.46875L103.711-64.8926C103.711-75.3418 98.2422-80.8105 87.6465-80.8105L28.5156-80.8105C17.9688-80.8105 12.4512-75.3906 12.4512-64.8926L12.4512-5.46875C12.4512 4.98047 17.9688 10.4492 28.5156 10.4492ZM74.0723-21.9238C71.4844-21.9238 69.8242-23.6816 69.8242-26.5137L69.8242-34.5215L70.5078-41.7969L63.7695-34.375L46.1914-16.7969C45.2148-15.8203 44.043-15.332 42.627-15.332C40.0391-15.332 38.1348-17.1387 38.1348-19.873C38.1348-21.0938 38.6719-22.3145 39.5996-23.1934L57.2754-40.8691L64.7461-47.6562L57.8613-46.875L49.3652-46.875C46.582-46.875 44.7266-48.5352 44.7266-51.123C44.7266-53.7109 46.5332-55.3711 49.3164-55.3711L73.0469-55.3711C76.2695-55.3711 78.2715-53.7109 78.2715-50.1465L78.2715-26.6113C78.2715-23.8281 76.6113-21.9238 74.0723-21.9238Z"/>
  </g>
  <g id="Regular-M" transform="matrix(1 0 0 1 1392.45 1126)">
   <path d="M27.7832 9.76562L87.0117 9.76562C97.2656 9.76562 102.344 4.6875 102.344-5.37109L102.344-64.9902C102.344-75.0488 97.2656-80.127 87.0117-80.127L27.7832-80.127C17.5781-80.127 12.4512-75.0977 12.4512-64.9902L12.4512-5.37109C12.4512 4.73633 17.5781 9.76562 27.7832 9.76562ZM73.1934-22.7539C70.9473-22.7539 69.4824-24.3164 69.4824-26.709L69.4824-35.3516L70.2148-43.2129L62.9395-35.4492L44.5312-16.9922C43.7988-16.2598 42.8223-15.8203 41.6016-15.8203C39.4043-15.8203 37.9395-17.2852 37.9395-19.5801C37.9395-20.5566 38.3789-21.582 39.1113-22.3145L57.6172-40.7715L65.4785-48.0957L58.0078-47.3145L48.9258-47.3145C46.4844-47.3145 44.9219-48.7793 44.9219-50.9766C44.9219-53.2227 46.4355-54.6875 48.8281-54.6875L72.6562-54.6875C75.2441-54.6875 76.9043-53.5156 76.9043-50.5371L76.9043-26.8066C76.9043-24.4629 75.3906-22.7539 73.1934-22.7539Z"/>
  </g>
  <g id="Light-M" transform="matrix(1 0 0 1 1096.47 1126)">
   <path d="M26.8555 9.0332L86.4746 9.0332C95.9961 9.0332 100.879 4.15039 100.879-5.22461L100.879-65.0879C100.879-74.5117 95.9961-79.3945 86.4746-79.3945L26.8555-79.3945C17.334-79.3945 12.4512-74.5605 12.4512-65.0879L12.4512-5.22461C12.4512 4.19922 17.334 9.0332 26.8555 9.0332ZM72.8516-23.1934C71.1426-23.1934 69.9707-24.3652 69.9707-26.2695L69.9707-37.1094L70.459-45.3125L64.1113-38.623L42.7734-17.1875C42.1875-16.6504 41.4551-16.3086 40.4785-16.3086C38.7695-16.3086 37.5977-17.4316 37.5977-19.1895C37.5977-20.0195 37.9883-20.752 38.5742-21.3379L60.0098-42.7246L66.7969-49.1211L59.5703-48.584L47.6562-48.584C45.8008-48.584 44.5801-49.7559 44.5801-51.4648C44.5801-53.1738 45.752-54.2969 47.6074-54.2969L72.5098-54.2969C74.4629-54.2969 75.6836-53.3691 75.6836-51.123L75.6836-26.3184C75.6836-24.4629 74.5605-23.1934 72.8516-23.1934Z"/>
  </g>
  <g id="Thin-M" transform="matrix(1 0 0 1 800.758 1126)">
   <path d="M25.6348 8.05664L85.7422 8.05664C94.3848 8.05664 98.877 3.4668 98.877-5.0293L98.877-65.2344C98.877-73.7305 94.3848-78.3691 85.7422-78.3691L25.6348-78.3691C16.9922-78.3691 12.4512-73.877 12.4512-65.2344L12.4512-5.0293C12.4512 3.56445 16.9922 8.05664 25.6348 8.05664ZM72.4121-23.7793C71.3379-23.7793 70.6543-24.5117 70.6543-25.6348L70.6543-39.4043L70.8008-48.0957L65.7227-42.7734L40.4297-17.4805C40.0879-17.1387 39.6484-16.8945 38.9648-16.8945C37.9395-16.8945 37.207-17.627 37.207-18.7012C37.207-19.2383 37.4512-19.6777 37.8418-20.0195L63.1836-45.3613L68.5059-50.4883L61.6211-50.3418L45.9961-50.3418C44.8242-50.3418 44.0918-51.0254 44.0918-52.0996C44.0918-53.125 44.8242-53.7598 45.9473-53.7598L72.3145-53.7598C73.3887-53.7598 74.1211-53.125 74.1211-51.9043L74.1211-25.6836C74.1211-24.5117 73.3887-23.7793 72.4121-23.7793Z"/>
  </g>
  <g id="Ultralight-M" transform="matrix(1 0 0 1 504.535 1126)">
   <path d="M25 7.56836L85.3516 7.56836C93.5059 7.56836 97.9004 3.125 97.9004-4.98047L97.9004-65.2832C97.9004-73.3887 93.5059-77.832 85.3516-77.832L25-77.832C16.7969-77.832 12.4512-73.4863 12.4512-65.2832L12.4512-4.98047C12.4512 3.22266 16.7969 7.56836 25 7.56836ZM72.168-24.0723C71.4355-24.0723 70.9473-24.5605 70.9473-25.3418L70.9473-49.5117L66.5039-44.9219L39.2578-17.627C39.0137-17.3828 38.7207-17.2363 38.2324-17.2363C37.5-17.2363 37.0117-17.6758 37.0117-18.4082C37.0117-18.8477 37.207-19.1406 37.4512-19.3848L64.7949-46.7285L69.3848-51.2207L45.1172-51.2207C44.3359-51.2207 43.8965-51.709 43.8965-52.4414C43.8965-53.0762 44.3359-53.5156 45.1172-53.5156L72.168-53.5156C72.8516-53.5156 73.291-53.0273 73.291-52.2949L73.291-25.3418C73.291-24.5605 72.8027-24.0723 72.168-24.0723Z"/>
  </g>
  <g id="Black-S" transform="matrix(1 0 0 1 2885.5 696)">
   <path d="M25 2.92969L70.8008 2.92969C80.3711 2.92969 86.0352-2.73438 86.0352-12.3047L86.0352-58.1055C86.0352-67.6758 80.3711-73.3398 70.8008-73.3398L25-73.3398C15.4297-73.3398 9.76562-67.6758 9.76562-58.1055L9.76562-12.3047C9.76562-2.73438 15.4297 2.92969 25 2.92969ZM61.0352-21.7773C57.8125-21.7773 55.8594-24.1211 55.8594-27.7832L55.8594-31.7383L56.3477-35.3516L52.7344-30.8105L41.9434-20.0684C40.3809-18.5547 38.7695-17.9688 37.0117-17.9688C33.5938-17.9688 30.6152-20.5078 30.6152-24.2188C30.6152-25.9277 31.3477-27.6855 32.6172-28.9551L43.6035-39.9414L48.1445-43.5547L44.7266-42.9199L40.332-42.9199C36.7188-42.9199 34.375-44.873 34.375-48.0957C34.375-51.3184 36.7676-53.2715 40.4785-53.2715L58.4961-53.2715C63.3301-53.2715 66.1621-50.4395 66.1621-45.7031L66.1621-27.6855C66.1621-24.0723 64.209-21.7773 61.0352-21.7773Z"/>
  </g>
  <g id="Heavy-S" transform="matrix(1 0 0 1 2589.4 696)">
   <path d="M24.3652 2.34375L70.2637 2.34375C79.541 2.34375 84.8145-2.97852 84.8145-12.207L84.8145-58.2031C84.8145-67.4316 79.541-72.7539 70.2637-72.7539L24.3652-72.7539C15.0879-72.7539 9.76562-67.4316 9.76562-58.2031L9.76562-12.207C9.76562-2.97852 15.0879 2.34375 24.3652 2.34375ZM60.2051-22.6074C57.2754-22.6074 55.4688-24.707 55.4688-28.0273L55.4688-32.373L56.0059-36.5723L51.8066-31.543L40.4785-20.2637C39.1113-18.9453 37.6953-18.4082 36.084-18.4082C33.0078-18.4082 30.4199-20.6543 30.4199-23.9746C30.4199-25.4883 31.1035-27.0508 32.2266-28.1738L43.7012-39.5996L48.7305-43.8477L44.7266-43.1641L39.9902-43.1641C36.7188-43.1641 34.6191-44.9707 34.6191-47.9004C34.6191-50.8789 36.7676-52.6367 40.0879-52.6367L58.1543-52.6367C62.4023-52.6367 64.8926-50.2441 64.8926-45.9961L64.8926-27.9785C64.8926-24.707 63.0859-22.6074 60.2051-22.6074Z"/>
  </g>
  <g id="Bold-S" transform="matrix(1 0 0 1 2293.35 696)">
   <path d="M23.6328 1.66016L69.6289 1.66016C78.6133 1.66016 83.4961-3.22266 83.4961-12.1094L83.4961-58.3008C83.4961-67.1875 78.6133-72.0703 69.6289-72.0703L23.6328-72.0703C14.6973-72.0703 9.76562-67.1875 9.76562-58.3008L9.76562-12.1094C9.76562-3.22266 14.6973 1.66016 23.6328 1.66016ZM59.2773-23.5352C56.6406-23.5352 55.0293-25.3906 55.0293-28.2715L55.0293-33.1055L55.6152-37.8906L50.7324-32.373L38.8184-20.459C37.6953-19.3848 36.4746-18.8965 35.0586-18.8965C32.373-18.8965 30.2246-20.8008 30.2246-23.6816C30.2246-25 30.8105-26.3184 31.7871-27.2461L43.7988-39.2578L49.4141-44.1895L44.6777-43.5059L39.6484-43.5059C36.7188-43.5059 34.8633-45.1172 34.8633-47.7051C34.8633-50.3418 36.7188-51.9531 39.6484-51.9531L57.7637-51.9531C61.3281-51.9531 63.4766-50.0488 63.4766-46.2891L63.4766-28.2715C63.4766-25.4395 61.8652-23.5352 59.2773-23.5352Z"/>
  </g>
  <g id="Semibold-S" transform="matrix(1 0 0 1 1997.1 696)">
   <path d="M23.0957 1.17188L69.1895 1.17188C77.9297 1.17188 82.5684-3.36914 82.5684-12.0117L82.5684-58.3984C82.5684-67.041 77.9297-71.582 69.1895-71.582L23.0957-71.582C14.4043-71.582 9.76562-67.041 9.76562-58.3984L9.76562-12.0117C9.76562-3.36914 14.4043 1.17188 23.0957 1.17188ZM58.6426-24.1699C56.25-24.1699 54.7363-25.8301 54.7363-28.4668L54.7363-33.6426L55.3223-38.8184L50-32.9102L37.6953-20.6055C36.7676-19.6777 35.6445-19.2383 34.375-19.2383C31.9336-19.2383 30.0781-20.8984 30.0781-23.4863C30.0781-24.6582 30.6152-25.7812 31.4453-26.6602L43.8477-39.0137L49.8535-44.3848L44.6777-43.7012L39.3555-43.7012C36.7676-43.7012 35.0586-45.2148 35.0586-47.5586C35.0586-50 36.7188-51.5137 39.3555-51.5137L57.4707-51.5137C60.5957-51.5137 62.5-49.9023 62.5-46.5332L62.5-28.5156C62.5-25.9277 60.9863-24.1699 58.6426-24.1699Z"/>
  </g>
  <g id="Medium-S" transform="matrix(1 0 0 1 1700.75 696)">
   <path d="M22.7051 0.830078L68.8965 0.830078C77.4414 0.830078 81.8359-3.51562 81.8359-11.9629L81.8359-58.4473C81.8359-66.8945 77.4414-71.2402 68.8965-71.2402L22.7051-71.2402C14.209-71.2402 9.76562-66.8945 9.76562-58.4473L9.76562-11.9629C9.76562-3.51562 14.209 0.830078 22.7051 0.830078ZM58.1543-24.6582C55.9082-24.6582 54.4922-26.1719 54.4922-28.6133L54.4922-33.9844L55.127-39.5508L49.4629-33.3496L36.8164-20.7031C36.0352-19.873 35.0098-19.4824 33.8379-19.4824C31.5918-19.4824 29.9805-20.9961 29.9805-23.3887C29.9805-24.3652 30.4688-25.4395 31.2012-26.1719L43.8965-38.8184L50.1953-44.5801L44.6777-43.8477L39.1602-43.8477C36.7676-43.8477 35.1562-45.2637 35.1562-47.4609C35.1562-49.707 36.7188-51.123 39.1113-51.123L57.2754-51.123C60.0586-51.123 61.7676-49.7559 61.7676-46.6797L61.7676-28.6621C61.7676-26.2695 60.3516-24.6582 58.1543-24.6582Z"/>
  </g>
  <g id="Regular-S" transform="matrix(1 0 0 1 1404.51 696)">
   <path d="M22.2168 0.390625L68.457 0.390625C76.8066 0.390625 80.9082-3.71094 80.9082-11.9141L80.9082-58.4961C80.9082-66.6992 76.8066-70.8008 68.457-70.8008L22.2168-70.8008C13.916-70.8008 9.76562-66.6992 9.76562-58.4961L9.76562-11.9141C9.76562-3.71094 13.916 0.390625 22.2168 0.390625ZM57.5195-25.2441C55.5176-25.2441 54.1992-26.6113 54.1992-28.8086L54.1992-34.5215L54.8828-40.4785L48.7305-33.8867L35.6934-20.8496C35.0586-20.166 34.2285-19.7754 33.1055-19.7754C31.1523-19.7754 29.834-21.0938 29.834-23.1934C29.834-24.0234 30.2734-24.9023 30.9082-25.5859L43.9941-38.5742L50.6348-44.7754L44.6777-44.043L38.916-44.043C36.7676-44.043 35.3516-45.3613 35.3516-47.3633C35.3516-49.3652 36.7188-50.6836 38.8184-50.6836L56.9824-50.6836C59.3262-50.6836 60.791-49.6094 60.791-46.9238L60.791-28.8574C60.791-26.7578 59.4727-25.2441 57.5195-25.2441Z"/>
  </g>
  <g id="Light-S" transform="matrix(1 0 0 1 1108.46 696)">
   <path d="M21.3867-0.292969L67.9688-0.292969C75.7324-0.292969 79.5898-4.15039 79.5898-11.7676L79.5898-58.5938C79.5898-66.2109 75.7324-70.1172 67.9688-70.1172L21.3867-70.1172C13.6719-70.1172 9.76562-66.2598 9.76562-58.5938L9.76562-11.7676C9.76562-4.15039 13.6719-0.292969 21.3867-0.292969ZM57.2266-25.6348C55.6641-25.6348 54.6387-26.709 54.6387-28.3691L54.6387-36.0352L55.0781-42.334L49.7559-36.6699L34.1797-21.0449C33.6426-20.5078 33.0078-20.2148 32.1289-20.2148C30.6152-20.2148 29.5898-21.2402 29.5898-22.8516C29.5898-23.5352 29.9316-24.2188 30.4199-24.707L46.0938-40.332L51.8066-45.7031L46.0449-45.2148L37.793-45.2148C36.1328-45.2148 35.0586-46.2402 35.0586-47.7539C35.0586-49.3164 36.084-50.3418 37.7441-50.3418L56.8359-50.3418C58.6426-50.3418 59.7656-49.4629 59.7656-47.4609L59.7656-28.418C59.7656-26.8066 58.7402-25.6348 57.2266-25.6348Z"/>
  </g>
  <g id="Thin-S" transform="matrix(1 0 0 1 812.599 696)">
   <path d="M20.3125-1.12305L67.334-1.12305C74.2676-1.12305 77.8809-4.78516 77.8809-11.6211L77.8809-58.6914C77.8809-65.5762 74.2676-69.2383 67.334-69.2383L20.3125-69.2383C13.3789-69.2383 9.76562-65.625 9.76562-58.6914L9.76562-11.6211C9.76562-4.6875 13.3789-1.12305 20.3125-1.12305ZM56.7871-26.123C55.8105-26.123 55.1758-26.8066 55.1758-27.832L55.1758-38.0859L55.3711-44.7754L51.1719-40.332L32.1289-21.2891C31.7871-20.9473 31.3965-20.752 30.8105-20.752C29.8828-20.752 29.248-21.3867 29.248-22.3633C29.248-22.8516 29.4434-23.2422 29.7852-23.584L48.877-42.6758L53.3203-46.9238L47.8516-46.7285L36.3281-46.7285C35.3027-46.7285 34.6191-47.3633 34.6191-48.3398C34.6191-49.2676 35.3027-49.8535 36.3281-49.8535L56.6895-49.8535C57.666-49.8535 58.3496-49.3164 58.3496-48.1445L58.3496-27.8809C58.3496-26.8066 57.7148-26.123 56.7871-26.123Z"/>
  </g>
  <g id="Ultralight-S" transform="matrix(1 0 0 1 516.352 696)">
   <path d="M19.7754-1.5625L66.9922-1.5625C73.5352-1.5625 76.9531-5.12695 76.9531-11.5234L76.9531-58.7891C76.9531-65.2344 73.5352-68.75 66.9922-68.75L19.7754-68.75C13.2324-68.75 9.76562-65.2832 9.76562-58.7891L9.76562-11.5234C9.76562-5.0293 13.2324-1.5625 19.7754-1.5625ZM56.5918-26.416C55.957-26.416 55.5176-26.8555 55.5176-27.5391L55.5176-46.0449L51.9043-42.2363L31.0547-21.3867C30.8105-21.1914 30.5664-21.0449 30.127-21.0449C29.4922-21.0449 29.0527-21.4844 29.0527-22.1191C29.0527-22.5098 29.1992-22.7539 29.4434-22.998L50.293-43.8477L54.1016-47.5586L48.8281-47.5098L35.5957-47.5098C34.8633-47.5098 34.4238-47.9492 34.4238-48.6328C34.4238-49.2188 34.8633-49.6094 35.5469-49.6094L56.543-49.6094C57.1777-49.6094 57.6172-49.1699 57.6172-48.4863L57.6172-27.5391C57.6172-26.8555 57.1777-26.416 56.5918-26.416Z"/>
  </g>
 </g>
</svg>
