<?xml version="1.0" encoding="UTF-8"?>
<!--Generator: Apple Native CoreSVG 149-->
<!DOCTYPE svg
PUBLIC "-//W3C//DTD SVG 1.1//EN"
       "http://www.w3.org/Graphics/SVG/1.1/DTD/svg11.dtd">
<svg version="1.1" xmlns="http://www.w3.org/2000/svg" xmlns:xlink="http://www.w3.org/1999/xlink" width="3300" height="2200">
 <!--glyph: "uni100AAB.medium", point size: 100.000000, font version: "Version 16.0d18e1", template writer version: "8"-->
 <g id="Notes">
  <rect height="2200" id="artboard" style="fill:white;opacity:1" width="3300" x="0" y="0"/>
  <line id="" style="fill:none;stroke:black;opacity:1;stroke-width:0.5;" x1="263" x2="3036" y1="292" y2="292"/>
  <text style="stroke:none;fill:black;font-family:-apple-system,&quot;SF Pro Display&quot;,&quot;SF Pro Text&quot;,Helvetica,sans-serif;font-weight:bold;" transform="matrix(1 0 0 1 263 322)">Weight/Scale Variations</text>
  <text style="stroke:none;fill:black;font-family:-apple-system,&quot;SF Pro Display&quot;,&quot;SF Pro Text&quot;,Helvetica,sans-serif;text-anchor:middle;" transform="matrix(1 0 0 1 559.711 322)">Ultralight</text>
  <text style="stroke:none;fill:black;font-family:-apple-system,&quot;SF Pro Display&quot;,&quot;SF Pro Text&quot;,Helvetica,sans-serif;text-anchor:middle;" transform="matrix(1 0 0 1 856.422 322)">Thin</text>
  <text style="stroke:none;fill:black;font-family:-apple-system,&quot;SF Pro Display&quot;,&quot;SF Pro Text&quot;,Helvetica,sans-serif;text-anchor:middle;" transform="matrix(1 0 0 1 1153.13 322)">Light</text>
  <text style="stroke:none;fill:black;font-family:-apple-system,&quot;SF Pro Display&quot;,&quot;SF Pro Text&quot;,Helvetica,sans-serif;text-anchor:middle;" transform="matrix(1 0 0 1 1449.84 322)">Regular</text>
  <text style="stroke:none;fill:black;font-family:-apple-system,&quot;SF Pro Display&quot;,&quot;SF Pro Text&quot;,Helvetica,sans-serif;text-anchor:middle;" transform="matrix(1 0 0 1 1746.56 322)">Medium</text>
  <text style="stroke:none;fill:black;font-family:-apple-system,&quot;SF Pro Display&quot;,&quot;SF Pro Text&quot;,Helvetica,sans-serif;text-anchor:middle;" transform="matrix(1 0 0 1 2043.27 322)">Semibold</text>
  <text style="stroke:none;fill:black;font-family:-apple-system,&quot;SF Pro Display&quot;,&quot;SF Pro Text&quot;,Helvetica,sans-serif;text-anchor:middle;" transform="matrix(1 0 0 1 2339.98 322)">Bold</text>
  <text style="stroke:none;fill:black;font-family:-apple-system,&quot;SF Pro Display&quot;,&quot;SF Pro Text&quot;,Helvetica,sans-serif;text-anchor:middle;" transform="matrix(1 0 0 1 2636.69 322)">Heavy</text>
  <text style="stroke:none;fill:black;font-family:-apple-system,&quot;SF Pro Display&quot;,&quot;SF Pro Text&quot;,Helvetica,sans-serif;text-anchor:middle;" transform="matrix(1 0 0 1 2933.4 322)">Black</text>
  <line id="" style="fill:none;stroke:black;opacity:1;stroke-width:0.5;" x1="263" x2="3036" y1="1903" y2="1903"/>
  <g id="" transform="matrix(1 0 0 1 263 1933)">
   <path d="M9.24805 0.830078C13.5547 0.830078 17.1387-2.74414 17.1387-7.05078C17.1387-11.3574 13.5449-14.9316 9.23828-14.9316C4.94141-14.9316 1.36719-11.3574 1.36719-7.05078C1.36719-2.74414 4.95117 0.830078 9.24805 0.830078ZM9.24805-0.654297C5.70312-0.654297 2.87109-3.49609 2.87109-7.05078C2.87109-10.6055 5.69336-13.4473 9.23828-13.4473C12.793-13.4473 15.6348-10.6055 15.6445-7.05078C15.6543-3.49609 12.8027-0.654297 9.24805-0.654297ZM6.39648-6.31836L8.50586-6.31836L8.50586-4.19922C8.50586-3.75977 8.79883-3.45703 9.22852-3.45703C9.67773-3.45703 9.9707-3.75977 9.9707-4.19922L9.9707-6.31836L12.0996-6.31836C12.5391-6.31836 12.8418-6.61133 12.8418-7.04102C12.8418-7.48047 12.5391-7.7832 12.0996-7.7832L9.9707-7.7832L9.9707-9.89258C9.9707-10.3418 9.67773-10.6445 9.22852-10.6445C8.79883-10.6445 8.50586-10.3418 8.50586-9.89258L8.50586-7.7832L6.39648-7.7832C5.94727-7.7832 5.64453-7.48047 5.64453-7.04102C5.64453-6.61133 5.94727-6.31836 6.39648-6.31836Z"/>
  </g>
  <g id="" transform="matrix(1 0 0 1 281.506 1933)">
   <path d="M11.709 2.91016C17.1582 2.91016 21.6699-1.61133 21.6699-7.05078C21.6699-12.5 17.1484-17.0117 11.6992-17.0117C6.25977-17.0117 1.74805-12.5 1.74805-7.05078C1.74805-1.61133 6.26953 2.91016 11.709 2.91016ZM11.709 1.25C7.09961 1.25 3.41797-2.44141 3.41797-7.05078C3.41797-11.6602 7.08984-15.3516 11.6992-15.3516C16.3086-15.3516 20-11.6602 20.0098-7.05078C20.0195-2.44141 16.3184 1.25 11.709 1.25ZM7.98828-6.23047L10.8789-6.23047L10.8789-3.32031C10.8789-2.83203 11.2109-2.5 11.6895-2.5C12.1777-2.5 12.5195-2.83203 12.5195-3.32031L12.5195-6.23047L15.4297-6.23047C15.918-6.23047 16.25-6.5625 16.25-7.04102C16.25-7.5293 15.918-7.87109 15.4297-7.87109L12.5195-7.87109L12.5195-10.7617C12.5195-11.2695 12.1777-11.6016 11.6895-11.6016C11.2109-11.6016 10.8789-11.2598 10.8789-10.7617L10.8789-7.87109L7.98828-7.87109C7.48047-7.87109 7.14844-7.5293 7.14844-7.04102C7.14844-6.5625 7.49023-6.23047 7.98828-6.23047Z"/>
  </g>
  <g id="" transform="matrix(1 0 0 1 304.924 1933)">
   <path d="M14.9707 5.66406C21.9336 5.66406 27.6953-0.0976562 27.6953-7.05078C27.6953-14.0137 21.9238-19.7754 14.9609-19.7754C8.00781-19.7754 2.25586-14.0137 2.25586-7.05078C2.25586-0.0976562 8.01758 5.66406 14.9707 5.66406ZM14.9707 3.84766C8.93555 3.84766 4.08203-1.01562 4.08203-7.05078C4.08203-13.0957 8.92578-17.9492 14.9609-17.9492C21.0059-17.9492 25.8594-13.0957 25.8691-7.05078C25.8789-1.01562 21.0156 3.84766 14.9707 3.84766ZM10.0586-6.14258L14.0625-6.14258L14.0625-2.12891C14.0625-1.5918 14.4336-1.2207 14.9512-1.2207C15.4883-1.2207 15.8594-1.5918 15.8594-2.12891L15.8594-6.14258L19.8828-6.14258C20.4102-6.14258 20.791-6.51367 20.791-7.03125C20.791-7.56836 20.4199-7.94922 19.8828-7.94922L15.8594-7.94922L15.8594-11.9531C15.8594-12.5098 15.4883-12.8809 14.9512-12.8809C14.4336-12.8809 14.0625-12.5 14.0625-11.9531L14.0625-7.94922L10.0586-7.94922C9.50195-7.94922 9.13086-7.56836 9.13086-7.03125C9.13086-6.51367 9.51172-6.14258 10.0586-6.14258Z"/>
  </g>
  <text style="stroke:none;fill:black;font-family:-apple-system,&quot;SF Pro Display&quot;,&quot;SF Pro Text&quot;,Helvetica,sans-serif;font-weight:bold;" transform="matrix(1 0 0 1 263 1953)">Design Variations</text>
  <text style="stroke:none;fill:black;font-family:-apple-system,&quot;SF Pro Display&quot;,&quot;SF Pro Text&quot;,Helvetica,sans-serif;" transform="matrix(1 0 0 1 263 1971)">Symbols are supported in up to nine weights and three scales.</text>
  <text style="stroke:none;fill:black;font-family:-apple-system,&quot;SF Pro Display&quot;,&quot;SF Pro Text&quot;,Helvetica,sans-serif;" transform="matrix(1 0 0 1 263 1989)">For optimal layout with text and other symbols, vertically align</text>
  <text style="stroke:none;fill:black;font-family:-apple-system,&quot;SF Pro Display&quot;,&quot;SF Pro Text&quot;,Helvetica,sans-serif;" transform="matrix(1 0 0 1 263 2007)">symbols with the adjacent text.</text>
  <line id="" style="fill:none;stroke:#00AEEF;stroke-width:0.5;opacity:1.0;" x1="776" x2="776" y1="1919" y2="1933"/>
  <g id="" transform="matrix(1 0 0 1 776 1933)">
   <path d="M3.31055 0.126953C3.82812 0.126953 4.08203-0.0683594 4.26758-0.605469L5.52734-4.0625L11.2891-4.0625L12.5488-0.605469C12.7344-0.0683594 12.9883 0.126953 13.4961 0.126953C14.0137 0.126953 14.3457-0.185547 14.3457-0.673828C14.3457-0.839844 14.3164-0.986328 14.2383-1.20117L9.6582-13.3887C9.43359-13.9941 9.0332-14.2871 8.4082-14.2871C7.80273-14.2871 7.39258-13.9941 7.17773-13.3984L2.59766-1.19141C2.51953-0.976562 2.49023-0.830078 2.49023-0.664062C2.49023-0.175781 2.80273 0.126953 3.31055 0.126953ZM6.00586-5.53711L8.37891-12.1094L8.42773-12.1094L10.8008-5.53711Z"/>
  </g>
  <line id="" style="fill:none;stroke:#00AEEF;stroke-width:0.5;opacity:1.0;" x1="792.836" x2="792.836" y1="1919" y2="1933"/>
  <text style="stroke:none;fill:black;font-family:-apple-system,&quot;SF Pro Display&quot;,&quot;SF Pro Text&quot;,Helvetica,sans-serif;font-weight:bold;" transform="matrix(1 0 0 1 776 1953)">Margins</text>
  <text style="stroke:none;fill:black;font-family:-apple-system,&quot;SF Pro Display&quot;,&quot;SF Pro Text&quot;,Helvetica,sans-serif;" transform="matrix(1 0 0 1 776 1971)">Leading and trailing margins on the left and right side of each symbol</text>
  <text style="stroke:none;fill:black;font-family:-apple-system,&quot;SF Pro Display&quot;,&quot;SF Pro Text&quot;,Helvetica,sans-serif;" transform="matrix(1 0 0 1 776 1989)">can be adjusted by modifying the x-location of the margin guidelines.</text>
  <text style="stroke:none;fill:black;font-family:-apple-system,&quot;SF Pro Display&quot;,&quot;SF Pro Text&quot;,Helvetica,sans-serif;" transform="matrix(1 0 0 1 776 2007)">Modifications are automatically applied proportionally to all</text>
  <text style="stroke:none;fill:black;font-family:-apple-system,&quot;SF Pro Display&quot;,&quot;SF Pro Text&quot;,Helvetica,sans-serif;" transform="matrix(1 0 0 1 776 2025)">scales and weights.</text>
  <g id="" transform="matrix(1 0 0 1 1289 1933)">
   <path d="M2.8418 1.86523L4.54102 3.57422C5.40039 4.44336 6.38672 4.38477 7.31445 3.35938L17.4902-7.85156C17.7539-7.76367 18.0273-7.7832 18.3398-7.8418L19.4043-8.03711L20.0684-7.36328L20.0293-6.80664C19.9902-6.30859 20.1172-5.92773 20.6055-5.44922L21.3672-4.70703C21.8457-4.22852 22.4609-4.19922 22.9297-4.66797L25.8398-7.58789C26.3086-8.05664 26.2891-8.65234 25.8105-9.13086L25.0391-9.89258C24.5605-10.3711 24.1895-10.5273 23.7109-10.4883L23.1348-10.4395L22.4902-11.0742L22.7344-12.1973C22.8613-12.7637 22.7051-13.2031 22.1191-13.7891L19.9219-15.9766C16.582-19.2969 12.1484-19.2188 9.25781-16.3281C8.83789-15.918 8.80859-15.3418 9.04297-14.9512C9.27734-14.5898 9.73633-14.3555 10.3809-14.5215C11.8457-14.8633 13.3691-14.9219 14.7949-13.9844L14.209-12.5293C14.0137-12.0508 13.9844-11.6504 14.1113-11.2891L3.04688-0.898438C2.06055 0.0195312 1.98242 0.996094 2.8418 1.86523ZM10.752-15.957C13.1836-17.7344 16.4746-17.4316 18.7012-15.2051L21.1328-12.793C21.3672-12.5586 21.4062-12.373 21.3379-12.0312L21.0156-10.5469L22.5195-9.0625L23.5059-9.12109C23.7598-9.13086 23.8379-9.11133 24.0332-8.91602L24.6094-8.33984L22.168-5.89844L21.5918-6.47461C21.3965-6.66992 21.3672-6.74805 21.377-7.01172L21.4453-7.98828L19.9512-9.47266L18.4277-9.21875C18.1055-9.15039 17.959-9.17969 17.7148-9.41406L15.7129-11.416C15.459-11.6504 15.4297-11.8164 15.5859-12.1875L16.4648-14.2773C14.9023-15.7324 12.8711-16.3574 10.8398-15.7617C10.6836-15.7227 10.625-15.8496 10.752-15.957ZM5.27344 2.30469L4.10156 1.14258C3.63281 0.683594 3.74023 0.341797 4.14062-0.0195312L14.9512-10.1953L16.416-8.71094L6.42578 2.27539C6.07422 2.67578 5.74219 2.77344 5.27344 2.30469Z"/>
  </g>
  <text style="stroke:none;fill:black;font-family:-apple-system,&quot;SF Pro Display&quot;,&quot;SF Pro Text&quot;,Helvetica,sans-serif;font-weight:bold;" transform="matrix(1 0 0 1 1289 1953)">Exporting</text>
  <text style="stroke:none;fill:black;font-family:-apple-system,&quot;SF Pro Display&quot;,&quot;SF Pro Text&quot;,Helvetica,sans-serif;" transform="matrix(1 0 0 1 1289 1971)">Symbols should be outlined when exporting to ensure the</text>
  <text style="stroke:none;fill:black;font-family:-apple-system,&quot;SF Pro Display&quot;,&quot;SF Pro Text&quot;,Helvetica,sans-serif;" transform="matrix(1 0 0 1 1289 1989)">design is preserved when submitting to Xcode.</text>
  <text id="template-version" style="stroke:none;fill:black;font-family:-apple-system,&quot;SF Pro Display&quot;,&quot;SF Pro Text&quot;,Helvetica,sans-serif;text-anchor:end;" transform="matrix(1 0 0 1 3036 1933)">Template v.2.0</text>
  <text style="stroke:none;fill:black;font-family:-apple-system,&quot;SF Pro Display&quot;,&quot;SF Pro Text&quot;,Helvetica,sans-serif;text-anchor:end;" transform="matrix(1 0 0 1 3036 1951)">Requires Xcode 12 or greater</text>
  <text style="stroke:none;fill:black;font-family:-apple-system,&quot;SF Pro Display&quot;,&quot;SF Pro Text&quot;,Helvetica,sans-serif;text-anchor:end;" transform="matrix(1 0 0 1 3036 1969)">Generated from checkerboard.rectangle</text>
  <text style="stroke:none;fill:black;font-family:-apple-system,&quot;SF Pro Display&quot;,&quot;SF Pro Text&quot;,Helvetica,sans-serif;text-anchor:end;" transform="matrix(1 0 0 1 3036 1987)">Typeset at 100 points</text>
  <text style="stroke:none;fill:black;font-family:-apple-system,&quot;SF Pro Display&quot;,&quot;SF Pro Text&quot;,Helvetica,sans-serif;" transform="matrix(1 0 0 1 263 726)">Small</text>
  <text style="stroke:none;fill:black;font-family:-apple-system,&quot;SF Pro Display&quot;,&quot;SF Pro Text&quot;,Helvetica,sans-serif;" transform="matrix(1 0 0 1 263 1156)">Medium</text>
  <text style="stroke:none;fill:black;font-family:-apple-system,&quot;SF Pro Display&quot;,&quot;SF Pro Text&quot;,Helvetica,sans-serif;" transform="matrix(1 0 0 1 263 1586)">Large</text>
 </g>
 <g id="Guides">
  <g id="H-reference" style="fill:#27AAE1;stroke:none;" transform="matrix(1 0 0 1 339 696)">
   <path d="M0.976562 0L3.66211 0L12.9883-24.4629L45.752-24.4629L55.127 0L57.7637 0L30.6152-70.459L28.125-70.459ZM29.3457-67.1387L29.4434-67.1387L44.873-26.709L13.8672-26.709Z"/>
  </g>
  <line id="Baseline-S" style="fill:none;stroke:#27AAE1;opacity:1;stroke-width:0.5;" x1="263" x2="3036" y1="696" y2="696"/>
  <line id="Capline-S" style="fill:none;stroke:#27AAE1;opacity:1;stroke-width:0.5;" x1="263" x2="3036" y1="625.541" y2="625.541"/>
  <g id="H-reference" style="fill:#27AAE1;stroke:none;" transform="matrix(1 0 0 1 339 1126)">
   <path d="M0.976562 0L3.66211 0L12.9883-24.4629L45.752-24.4629L55.127 0L57.7637 0L30.6152-70.459L28.125-70.459ZM29.3457-67.1387L29.4434-67.1387L44.873-26.709L13.8672-26.709Z"/>
  </g>
  <line id="Baseline-M" style="fill:none;stroke:#27AAE1;opacity:1;stroke-width:0.5;" x1="263" x2="3036" y1="1126" y2="1126"/>
  <line id="Capline-M" style="fill:none;stroke:#27AAE1;opacity:1;stroke-width:0.5;" x1="263" x2="3036" y1="1055.54" y2="1055.54"/>
  <g id="H-reference" style="fill:#27AAE1;stroke:none;" transform="matrix(1 0 0 1 339 1556)">
   <path d="M0.976562 0L3.66211 0L12.9883-24.4629L45.752-24.4629L55.127 0L57.7637 0L30.6152-70.459L28.125-70.459ZM29.3457-67.1387L29.4434-67.1387L44.873-26.709L13.8672-26.709Z"/>
  </g>
  <line id="Baseline-L" style="fill:none;stroke:#27AAE1;opacity:1;stroke-width:0.5;" x1="263" x2="3036" y1="1556" y2="1556"/>
  <line id="Capline-L" style="fill:none;stroke:#27AAE1;opacity:1;stroke-width:0.5;" x1="263" x2="3036" y1="1485.54" y2="1485.54"/>
  <line id="left-margin" style="fill:none;stroke:#00AEEF;stroke-width:0.5;opacity:1.0;" x1="1379.82" x2="1379.82" y1="1030.79" y2="1150.12"/>
  <line id="right-margin" style="fill:none;stroke:#00AEEF;stroke-width:0.5;opacity:1.0;" x1="1519.86" x2="1519.86" y1="1030.79" y2="1150.12"/>
 </g>
 <g id="Symbols">
  <g id="Black-L" transform="matrix(1 0 0 1 2841.51 1556)">
   <path d="M39.9902 26.5137L143.799 26.5137C159.082 26.5137 167.725 17.8711 167.725 2.68555L167.725-73.0957C167.725-88.2812 159.082-96.875 143.799-96.875L39.9902-96.875C24.7559-96.875 16.0645-88.2812 16.0645-73.0957L16.0645 2.68555C16.0645 17.8711 24.7559 26.5137 39.9902 26.5137ZM36.3281-35.2051L58.4473-35.2051L58.4473-55.9082L36.3281-55.9082L36.3281-70.2148C36.3281-74.7559 38.4766-76.6602 42.6758-76.6602L58.4473-76.6602L58.4473-55.9082L80.7617-55.9082L80.7617-76.6602L102.881-76.6602L102.881-55.9082L125.195-55.9082L125.195-76.6602L141.064-76.6602C145.312-76.6602 147.461-74.7559 147.461-70.2148L147.461-55.9082L125.195-55.9082L125.195-35.2051L147.461-35.2051L147.461-14.502L125.195-14.502L125.195 6.29883L58.4473 6.29883L58.4473-14.502L36.3281-14.502ZM80.7617-35.2051L102.881-35.2051L102.881-55.9082L80.7617-55.9082ZM58.4473-14.502L80.7617-14.502L80.7617-35.2051L58.4473-35.2051ZM102.881-14.502L125.195-14.502L125.195-35.2051L102.881-35.2051ZM80.7617 6.29883L102.881 6.29883L102.881-14.502L80.7617-14.502Z"/>
  </g>
  <g id="Heavy-L" transform="matrix(1 0 0 1 2545.23 1556)">
   <path d="M38.8184 25.4883L144.092 25.4883C158.74 25.4883 166.846 17.4316 166.846 2.88086L166.846-73.2422C166.846-87.793 158.74-95.8496 144.092-95.8496L38.8184-95.8496C24.2188-95.8496 16.0645-87.793 16.0645-73.2422L16.0645 2.88086C16.0645 17.4316 24.2188 25.4883 38.8184 25.4883ZM33.5938-35.1562L56.6406-35.1562L56.6406-56.7871L33.5938-56.7871L33.5938-70.9473C33.5938-76.0742 36.084-78.3691 40.918-78.3691L56.6406-78.3691L56.6406-56.7871L79.8828-56.7871L79.8828-78.3691L102.93-78.3691L102.93-56.7871L126.172-56.7871L126.172-78.3691L141.943-78.3691C146.777-78.3691 149.316-76.0742 149.316-70.9473L149.316-56.7871L126.172-56.7871L126.172-35.1562L149.316-35.1562L149.316-13.623L126.172-13.623L126.172 8.00781L56.6406 8.00781L56.6406-13.623L33.5938-13.623ZM79.8828-35.1562L102.93-35.1562L102.93-56.7871L79.8828-56.7871ZM56.6406-13.623L79.8828-13.623L79.8828-35.1562L56.6406-35.1562ZM102.93-13.623L126.172-13.623L126.172-35.1562L102.93-35.1562ZM79.8828 8.00781L102.93 8.00781L102.93-13.623L79.8828-13.623Z"/>
  </g>
  <g id="Bold-L" transform="matrix(1 0 0 1 2249.01 1556)">
   <path d="M37.5 24.3652L144.385 24.3652C158.35 24.3652 165.869 16.8945 165.869 3.07617L165.869-73.3887C165.869-87.207 158.35-94.7266 144.385-94.7266L37.5-94.7266C23.6328-94.7266 16.0645-87.2559 16.0645-73.3887L16.0645 3.07617C16.0645 16.8945 23.6328 24.3652 37.5 24.3652ZM30.5176-35.1562L54.6387-35.1562L54.6387-57.7637L30.5176-57.7637L30.5176-71.7285C30.5176-77.5391 33.4473-80.2734 38.9648-80.2734L54.6387-80.2734L54.6387-57.7637L78.9062-57.7637L78.9062-80.2734L102.93-80.2734L102.93-57.7637L127.246-57.7637L127.246-80.2734L142.969-80.2734C148.389-80.2734 151.416-77.5391 151.416-71.7285L151.416-57.7637L127.246-57.7637L127.246-35.1562L151.416-35.1562L151.416-12.6465L127.246-12.6465L127.246 9.91211L54.6387 9.91211L54.6387-12.6465L30.5176-12.6465ZM78.9062-35.1562L102.93-35.1562L102.93-57.7637L78.9062-57.7637ZM54.6387-12.6465L78.9062-12.6465L78.9062-35.1562L54.6387-35.1562ZM102.93-12.6465L127.246-12.6465L127.246-35.1562L102.93-35.1562ZM78.9062 9.91211L102.93 9.91211L102.93-12.6465L78.9062-12.6465Z"/>
  </g>
  <g id="Semibold-L" transform="matrix(1 0 0 1 1952.64 1556)">
   <path d="M36.6211 23.584L144.629 23.584C158.057 23.584 165.186 16.5039 165.186 3.17383L165.186-73.5352C165.186-86.8164 158.057-93.9453 144.629-93.9453L36.6211-93.9453C23.1934-93.9453 16.0645-86.8652 16.0645-73.5352L16.0645 3.17383C16.0645 16.5527 23.1934 23.584 36.6211 23.584ZM28.418-35.1562L53.2227-35.1562L53.2227-58.3984L28.418-58.3984L28.418-72.3145C28.418-78.5156 31.6406-81.5918 37.5977-81.5918L53.2227-81.5918L53.2227-58.3984L78.2227-58.3984L78.2227-81.5918L102.979-81.5918L102.979-58.3984L127.979-58.3984L127.979-81.5918L143.652-81.5918C149.512-81.5918 152.832-78.5156 152.832-72.3145L152.832-58.3984L127.979-58.3984L127.979-35.1562L152.832-35.1562L152.832-12.0117L127.979-12.0117L127.979 11.2793L53.2227 11.2793L53.2227-12.0117L28.418-12.0117ZM78.2227-35.1562L102.979-35.1562L102.979-58.3984L78.2227-58.3984ZM53.2227-12.0117L78.2227-12.0117L78.2227-35.1562L53.2227-35.1562ZM102.979-12.0117L127.979-12.0117L127.979-35.1562L102.979-35.1562ZM78.2227 11.2793L102.979 11.2793L102.979-12.0117L78.2227-12.0117Z"/>
  </g>
  <g id="Medium-L" transform="matrix(1 0 0 1 1656.2 1556)">
   <path d="M35.9375 22.998L144.775 22.998C157.861 22.998 164.648 16.2109 164.648 3.27148L164.648-73.6328C164.648-86.5234 157.861-93.3105 144.775-93.3105L35.9375-93.3105C22.9004-93.3105 16.0645-86.5723 16.0645-73.6328L16.0645 3.27148C16.0645 16.2598 22.9004 22.998 35.9375 22.998ZM26.8066-35.1562L52.1484-35.1562L52.1484-58.9355L26.8066-58.9355L26.8066-72.7051C26.8066-79.2969 30.2246-82.6172 36.5723-82.6172L52.1484-82.6172L52.1484-58.9355L77.6855-58.9355L77.6855-82.6172L102.979-82.6172L102.979-58.9355L128.516-58.9355L128.516-82.6172L144.141-82.6172C150.391-82.6172 153.906-79.2969 153.906-72.7051L153.906-58.9355L128.516-58.9355L128.516-35.1562L153.906-35.1562L153.906-11.5234L128.516-11.5234L128.516 12.2559L52.1484 12.2559L52.1484-11.5234L26.8066-11.5234ZM77.6855-35.1562L102.979-35.1562L102.979-58.9355L77.6855-58.9355ZM52.1484-11.5234L77.6855-11.5234L77.6855-35.1562L52.1484-35.1562ZM102.979-11.5234L128.516-11.5234L128.516-35.1562L102.979-35.1562ZM77.6855 12.2559L102.979 12.2559L102.979-11.5234L77.6855-11.5234Z"/>
  </g>
  <g id="Regular-L" transform="matrix(1 0 0 1 1359.81 1556)">
   <path d="M35.0586 22.2168L144.971 22.2168C157.617 22.2168 164.014 15.8691 164.014 3.41797L164.014-73.7305C164.014-86.1816 157.617-92.5293 144.971-92.5293L35.0586-92.5293C22.4609-92.5293 16.0645-86.2305 16.0645-73.7305L16.0645 3.41797C16.0645 15.918 22.4609 22.2168 35.0586 22.2168ZM24.707-35.1074L50.7812-35.1074L50.7812-59.5703L24.707-59.5703L24.707-73.291C24.707-80.2734 28.418-83.8867 35.2539-83.8867L50.7812-83.8867L50.7812-59.5703L77.0508-59.5703L77.0508-83.8867L102.979-83.8867L102.979-59.5703L129.248-59.5703L129.248-83.8867L144.824-83.8867C151.514-83.8867 155.322-80.2734 155.322-73.291L155.322-59.5703L129.248-59.5703L129.248-35.1074L155.322-35.1074L155.322-10.8398L129.248-10.8398L129.248 13.5742L50.7812 13.5742L50.7812-10.8398L24.707-10.8398ZM77.0508-35.1074L102.979-35.1074L102.979-59.5703L77.0508-59.5703ZM50.7812-10.8398L77.0508-10.8398L77.0508-35.1074L50.7812-35.1074ZM102.979-10.8398L129.248-10.8398L129.248-35.1074L102.979-35.1074ZM77.0508 13.5742L102.979 13.5742L102.979-10.8398L77.0508-10.8398Z"/>
  </g>
  <g id="Light-L" transform="matrix(1 0 0 1 1063.56 1556)">
   <path d="M34.0332 21.4355L145.117 21.4355C157.031 21.4355 163.086 15.2344 163.086 3.56445L163.086-73.8281C163.086-85.5469 157.031-91.6992 145.117-91.6992L34.0332-91.6992C22.168-91.6992 16.0645-85.6445 16.0645-73.8281L16.0645 3.56445C16.0645 15.3809 22.168 21.4355 34.0332 21.4355ZM22.7051-35.1074L49.3652-35.1074L49.3652-60.1562L22.7051-60.1562L22.7051-73.4863C22.7051-81.1523 26.709-85.0586 34.1797-85.0586L49.3652-85.0586L49.3652-60.1562L76.2695-60.1562L76.2695-85.0586L102.832-85.0586L102.832-60.1562L129.736-60.1562L129.736-85.0586L144.971-85.0586C152.295-85.0586 156.494-81.1523 156.494-73.4863L156.494-60.1562L129.736-60.1562L129.736-35.1074L156.494-35.1074L156.494-10.2539L129.736-10.2539L129.736 14.7949L49.3652 14.7949L49.3652-10.2539L22.7051-10.2539ZM76.2695-35.1074L102.832-35.1074L102.832-60.1562L76.2695-60.1562ZM49.3652-10.2539L76.2695-10.2539L76.2695-35.1074L49.3652-35.1074ZM102.832-10.2539L129.736-10.2539L129.736-35.1074L102.832-35.1074ZM76.2695 14.7949L102.832 14.7949L102.832-10.2539L76.2695-10.2539Z"/>
  </g>
  <g id="Thin-L" transform="matrix(1 0 0 1 767.433 1556)">
   <path d="M32.666 20.3613L145.312 20.3613C156.201 20.3613 161.914 14.4531 161.914 3.75977L161.914-73.9746C161.914-84.7168 156.201-90.5762 145.312-90.5762L32.666-90.5762C21.7773-90.5762 16.0645-84.8633 16.0645-73.9746L16.0645 3.75977C16.0645 14.6484 21.7773 20.3613 32.666 20.3613ZM19.9707-35.0586L47.5098-35.0586L47.5098-60.9375L19.9707-60.9375L19.9707-73.7793C19.9707-82.2754 24.4141-86.6699 32.8125-86.6699L47.5098-86.6699L47.5098-60.9375L75.293-60.9375L75.293-86.6699L102.637-86.6699L102.637-60.9375L130.42-60.9375L130.42-86.6699L145.166-86.6699C153.32-86.6699 158.008-82.2754 158.008-73.7793L158.008-60.9375L130.42-60.9375L130.42-35.0586L158.008-35.0586L158.008-9.42383L130.42-9.42383L130.42 16.4062L47.5098 16.4062L47.5098-9.42383L19.9707-9.42383ZM75.293-35.0586L102.637-35.0586L102.637-60.9375L75.293-60.9375ZM47.5098-9.42383L75.293-9.42383L75.293-35.0586L47.5098-35.0586ZM102.637-9.42383L130.42-9.42383L130.42-35.0586L102.637-35.0586ZM75.293 16.4062L102.637 16.4062L102.637-9.42383L75.293-9.42383Z"/>
  </g>
  <g id="Ultralight-L" transform="matrix(1 0 0 1 471.015 1556)">
   <path d="M31.9824 19.7754L145.41 19.7754C155.811 19.7754 161.328 14.0625 161.328 3.85742L161.328-74.0723C161.328-84.2773 155.811-89.9902 145.41-89.9902L31.9824-89.9902C21.582-89.9902 16.0645-84.4727 16.0645-74.0723L16.0645 3.85742C16.0645 14.2578 21.582 19.7754 31.9824 19.7754ZM18.6035-35.0098L46.582-35.0098L46.582-61.377L18.6035-61.377L18.6035-73.9258C18.6035-82.8125 23.1934-87.4512 32.1289-87.4512L46.582-87.4512L46.582-61.377L74.7559-61.377L74.7559-87.4512L102.539-87.4512L102.539-61.377L130.762-61.377L130.762-87.4512L145.264-87.4512C153.857-87.4512 158.789-82.8125 158.789-73.9258L158.789 3.75977C158.789 3.90625 158.789 4.10156 158.789 4.24805L158.789-9.0332L130.762-9.0332L130.762 17.2363L46.582 17.2363L46.582-9.0332L18.6035-9.0332ZM74.7559-35.0098L102.539-35.0098L102.539-61.377L74.7559-61.377ZM130.762-35.0098L158.789-35.0098L158.789-61.377L130.762-61.377ZM46.582-9.0332L74.7559-9.0332L74.7559-35.0098L46.582-35.0098ZM102.539-9.0332L130.762-9.0332L130.762-35.0098L102.539-35.0098ZM74.7559 17.2363L102.539 17.2363L102.539-9.0332L74.7559-9.0332Z"/>
  </g>
  <g id="Black-M" transform="matrix(1 0 0 1 2861.84 1126)">
   <path d="M31.9824 13.5742L111.133 13.5742C123.389 13.5742 130.664 6.29883 130.664-5.95703L130.664-64.4043C130.664-76.6602 123.389-83.9355 111.133-83.9355L31.9824-83.9355C19.7266-83.9355 12.4512-76.6602 12.4512-64.4043L12.4512-5.95703C12.4512 6.29883 19.7266 13.5742 31.9824 13.5742ZM30.7617-35.2051L46.9727-35.2051L46.9727-50.3906L30.7617-50.3906L30.7617-61.4746C30.7617-64.5508 32.0801-65.6738 34.9121-65.6738L46.9727-65.6738L46.9727-50.3906L63.3789-50.3906L63.3789-65.6738L79.6387-65.6738L79.6387-50.3906L95.9961-50.3906L95.9961-65.6738L108.203-65.6738C111.035-65.6738 112.402-64.5508 112.402-61.4746L112.402-20.0195L95.9961-20.0195L95.9961-4.73633L46.9727-4.73633L46.9727-20.0195L30.7617-20.0195ZM63.3789-35.2051L79.6387-35.2051L79.6387-50.3906L63.3789-50.3906ZM95.9961-35.2051L112.402-35.2051L112.402-50.3906L95.9961-50.3906ZM46.9727-20.0195L63.3789-20.0195L63.3789-35.2051L46.9727-35.2051ZM79.6387-20.0195L95.9961-20.0195L95.9961-35.2051L79.6387-35.2051ZM63.3789-4.73633L79.6387-4.73633L79.6387-20.0195L63.3789-20.0195Z"/>
  </g>
  <g id="Heavy-M" transform="matrix(1 0 0 1 2565.5 1126)">
   <path d="M31.0059 12.6465L111.426 12.6465C123.193 12.6465 129.932 5.9082 129.932-5.81055L129.932-64.5508C129.932-76.2695 123.193-83.0566 111.426-83.0566L31.0059-83.0566C19.2383-83.0566 12.4512-76.3184 12.4512-64.5508L12.4512-5.81055C12.4512 5.9082 19.2383 12.6465 31.0059 12.6465ZM28.2715-35.2051L45.3613-35.2051L45.3613-51.1719L28.2715-51.1719L28.2715-62.207C28.2715-65.7715 29.9316-67.2363 33.252-67.2363L45.3613-67.2363L45.3613-51.1719L62.5977-51.1719L62.5977-67.2363L79.6875-67.2363L79.6875-51.1719L96.9238-51.1719L96.9238-67.2363L109.131-67.2363C112.451-67.2363 114.111-65.7715 114.111-62.207L114.111-51.1719L96.9238-51.1719L96.9238-35.2051L114.111-35.2051L114.111-19.2383L96.9238-19.2383L96.9238-3.17383L45.3613-3.17383L45.3613-19.2383L28.2715-19.2383ZM62.5977-35.2051L79.6875-35.2051L79.6875-51.1719L62.5977-51.1719ZM45.3613-19.2383L62.5977-19.2383L62.5977-35.2051L45.3613-35.2051ZM79.6875-19.2383L96.9238-19.2383L96.9238-35.2051L79.6875-35.2051ZM62.5977-3.17383L79.6875-3.17383L79.6875-19.2383L62.5977-19.2383Z"/>
  </g>
  <g id="Bold-M" transform="matrix(1 0 0 1 2269.18 1126)">
   <path d="M29.8828 11.6699L111.719 11.6699C122.949 11.6699 129.15 5.46875 129.15-5.66406L129.15-64.6973C129.15-75.8789 122.949-82.0312 111.719-82.0312L29.8828-82.0312C18.6523-82.0312 12.4512-75.8789 12.4512-64.6973L12.4512-5.66406C12.4512 5.51758 18.6523 11.6699 29.8828 11.6699ZM25.5371-35.2051L43.5547-35.2051L43.5547-52.0996L25.5371-52.0996L25.5371-63.0371C25.5371-67.1387 27.5391-68.9453 31.3965-68.9453L43.5547-68.9453L43.5547-52.0996L61.7676-52.0996L61.7676-68.9453L79.7852-68.9453L79.7852-52.0996L97.9492-52.0996L97.9492-68.9453L110.205-68.9453C114.014-68.9453 116.064-67.1387 116.064-63.0371L116.064-52.0996L97.9492-52.0996L97.9492-35.2051L116.064-35.2051L116.064-18.3594L97.9492-18.3594L97.9492-1.41602L43.5547-1.41602L43.5547-18.3594L25.5371-18.3594ZM61.7676-35.2051L79.7852-35.2051L79.7852-52.0996L61.7676-52.0996ZM43.5547-18.3594L61.7676-18.3594L61.7676-35.2051L43.5547-35.2051ZM79.7852-18.3594L97.9492-18.3594L97.9492-35.2051L79.7852-35.2051ZM61.7676-1.41602L79.7852-1.41602L79.7852-18.3594L61.7676-18.3594Z"/>
  </g>
  <g id="Semibold-M" transform="matrix(1 0 0 1 1972.76 1126)">
   <path d="M29.1016 10.9863L111.914 10.9863C122.803 10.9863 128.564 5.17578 128.564-5.56641L128.564-64.8438C128.564-75.5859 122.803-81.3477 111.914-81.3477L29.1016-81.3477C18.2617-81.3477 12.4512-75.5859 12.4512-64.8438L12.4512-5.56641C12.4512 5.22461 18.2617 10.9863 29.1016 10.9863ZM23.6328-35.1562L42.334-35.1562L42.334-52.6855L23.6328-52.6855L23.6328-63.623C23.6328-68.0664 25.8789-70.166 30.127-70.166L42.334-70.166L42.334-52.6855L61.1816-52.6855L61.1816-70.166L79.834-70.166L79.834-52.6855L98.6328-52.6855L98.6328-70.166L110.889-70.166C115.088-70.166 117.383-68.0664 117.383-63.623L117.383-52.6855L98.6328-52.6855L98.6328-35.1562L117.383-35.1562L117.383-17.7246L98.6328-17.7246L98.6328-0.195312L42.334-0.195312L42.334-17.7246L23.6328-17.7246ZM61.1816-35.1562L79.834-35.1562L79.834-52.6855L61.1816-52.6855ZM42.334-17.7246L61.1816-17.7246L61.1816-35.1562L42.334-35.1562ZM79.834-17.7246L98.6328-17.7246L98.6328-35.1562L79.834-35.1562ZM61.1816-0.195312L79.834-0.195312L79.834-17.7246L61.1816-17.7246Z"/>
  </g>
  <g id="Medium-M" transform="matrix(1 0 0 1 1676.24 1126)">
   <path d="M28.5156 10.4492L112.061 10.4492C122.656 10.4492 128.174 4.98047 128.174-5.46875L128.174-64.8926C128.174-75.3418 122.656-80.8105 112.061-80.8105L28.5156-80.8105C17.9688-80.8105 12.4512-75.3906 12.4512-64.8926L12.4512-5.46875C12.4512 4.98047 17.9688 10.4492 28.5156 10.4492ZM22.168-35.1562L41.4062-35.1562L41.4062-53.1738L22.168-53.1738L22.168-64.0137C22.168-68.75 24.6582-71.0938 29.1504-71.0938L41.4062-71.0938L41.4062-53.1738L60.7422-53.1738L60.7422-71.0938L79.834-71.0938L79.834-53.1738L99.1699-53.1738L99.1699-71.0938L111.426-71.0938C115.918-71.0938 118.408-68.75 118.408-64.0137L118.408-53.1738L99.1699-53.1738L99.1699-35.1562L118.408-35.1562L118.408-17.2852L99.1699-17.2852L99.1699 0.732422L41.4062 0.732422L41.4062-17.2852L22.168-17.2852ZM60.7422-35.1562L79.834-35.1562L79.834-53.1738L60.7422-53.1738ZM41.4062-17.2852L60.7422-17.2852L60.7422-35.1562L41.4062-35.1562ZM79.834-17.2852L99.1699-17.2852L99.1699-35.1562L79.834-35.1562ZM60.7422 0.732422L79.834 0.732422L79.834-17.2852L60.7422-17.2852Z"/>
  </g>
  <g id="Regular-M" transform="matrix(1 0 0 1 1379.82 1126)">
   <path d="M27.7832 9.76562L112.256 9.76562C122.51 9.76562 127.588 4.6875 127.588-5.37109L127.588-64.9902C127.588-75.0488 122.51-80.127 112.256-80.127L27.7832-80.127C17.5781-80.127 12.4512-75.0977 12.4512-64.9902L12.4512-5.37109C12.4512 4.73633 17.5781 9.76562 27.7832 9.76562ZM20.3125-35.1562L40.1367-35.1562L40.1367-53.7598L20.3125-53.7598L20.3125-64.5996C20.3125-69.6777 22.998-72.2656 27.8809-72.2656L40.1367-72.2656L40.1367-53.7598L60.1562-53.7598L60.1562-72.2656L79.8828-72.2656L79.8828-53.7598L99.9023-53.7598L99.9023-72.2656L112.158-72.2656C116.992-72.2656 119.727-69.6777 119.727-64.5996L119.727-53.7598L99.9023-53.7598L99.9023-35.1562L119.727-35.1562L119.727-16.6992L99.9023-16.6992L99.9023 1.9043L40.1367 1.9043L40.1367-16.6992L20.3125-16.6992ZM60.1562-35.1562L79.8828-35.1562L79.8828-53.7598L60.1562-53.7598ZM40.1367-16.6992L60.1562-16.6992L60.1562-35.1562L40.1367-35.1562ZM79.8828-16.6992L99.9023-16.6992L99.9023-35.1562L79.8828-35.1562ZM60.1562 1.9043L79.8828 1.9043L79.8828-16.6992L60.1562-16.6992Z"/>
  </g>
  <g id="Light-M" transform="matrix(1 0 0 1 1083.5 1126)">
   <path d="M26.8555 9.0332L112.402 9.0332C121.973 9.0332 126.807 4.15039 126.807-5.22461L126.807-65.0879C126.807-74.5117 121.973-79.3945 112.402-79.3945L26.8555-79.3945C17.334-79.3945 12.4512-74.5605 12.4512-65.0879L12.4512-5.22461C12.4512 4.19922 17.334 9.0332 26.8555 9.0332ZM18.5059-35.1562L38.916-35.1562L38.916-54.2969L18.5059-54.2969L18.5059-64.7949C18.5059-70.4102 21.4844-73.3398 26.9531-73.3398L38.916-73.3398L38.916-54.2969L59.4727-54.2969L59.4727-73.3398L79.7852-73.3398L79.7852-54.2969L100.342-54.2969L100.342-73.3398L112.305-73.3398C117.676-73.3398 120.752-70.4102 120.752-64.7949L120.752-54.2969L100.342-54.2969L100.342-35.1562L120.752-35.1562L120.752-16.1133L100.342-16.1133L100.342 2.97852L38.916 2.97852L38.916-16.1133L18.5059-16.1133ZM59.4727-35.1562L79.7852-35.1562L79.7852-54.2969L59.4727-54.2969ZM38.916-16.1133L59.4727-16.1133L59.4727-35.1562L38.916-35.1562ZM79.7852-16.1133L100.342-16.1133L100.342-35.1562L79.7852-35.1562ZM59.4727 2.97852L79.7852 2.97852L79.7852-16.1133L59.4727-16.1133Z"/>
  </g>
  <g id="Thin-M" transform="matrix(1 0 0 1 787.33 1126)">
   <path d="M25.6348 8.05664L112.598 8.05664C121.24 8.05664 125.732 3.4668 125.732-5.0293L125.732-65.2344C125.732-73.7305 121.24-78.3691 112.598-78.3691L25.6348-78.3691C16.9922-78.3691 12.4512-73.877 12.4512-65.2344L12.4512-5.0293C12.4512 3.56445 16.9922 8.05664 25.6348 8.05664ZM16.0645-35.1074L37.207-35.1074L37.207-54.9805L16.0645-54.9805L16.0645-65.0391C16.0645-71.4355 19.3848-74.7559 25.7324-74.7559L37.207-74.7559L37.207-54.9805L58.5449-54.9805L58.5449-74.7559L79.5898-74.7559L79.5898-54.9805L100.928-54.9805L100.928-74.7559L112.451-74.7559C118.604-74.7559 122.119-71.4355 122.119-65.0391L122.119-54.9805L100.928-54.9805L100.928-35.1074L122.119-35.1074L122.119-15.4297L100.928-15.4297L100.928 4.44336L37.207 4.44336L37.207-15.4297L16.0645-15.4297ZM58.5449-35.1074L79.5898-35.1074L79.5898-54.9805L58.5449-54.9805ZM37.207-15.4297L58.5449-15.4297L58.5449-35.1074L37.207-35.1074ZM79.5898-15.4297L100.928-15.4297L100.928-35.1074L79.5898-35.1074ZM58.5449 4.44336L79.5898 4.44336L79.5898-15.4297L58.5449-15.4297Z"/>
  </g>
  <g id="Ultralight-M" transform="matrix(1 0 0 1 490.888 1126)">
   <path d="M25 7.56836L112.695 7.56836C120.85 7.56836 125.195 3.125 125.195-4.98047L125.195-65.2832C125.195-73.3887 120.85-77.832 112.695-77.832L25-77.832C16.7969-77.832 12.4512-73.4863 12.4512-65.2832L12.4512-4.98047C12.4512 3.22266 16.7969 7.56836 25 7.56836ZM14.8438-35.0586L36.377-35.0586L36.377-55.3711L14.8438-55.3711L14.8438-65.1855C14.8438-71.9727 18.3594-75.4395 25.0977-75.4395L36.377-75.4395L36.377-55.3711L58.1055-55.3711L58.1055-75.4395L79.4922-75.4395L79.4922-55.3711L101.221-55.3711L101.221-75.4395L112.549-75.4395C119.043-75.4395 122.803-71.9727 122.803-65.1855L122.803-15.0391L101.221-15.0391L101.221 5.17578L36.377 5.17578L36.377-15.0391L14.8438-15.0391ZM58.1055-35.0586L79.4922-35.0586L79.4922-55.3711L58.1055-55.3711ZM101.221-35.0586L122.803-35.0586L122.803-55.3711L101.221-55.3711ZM36.377-15.0391L58.1055-15.0391L58.1055-35.0586L36.377-35.0586ZM79.4922-15.0391L101.221-15.0391L101.221-35.0586L79.4922-35.0586ZM58.1055 5.17578L79.4922 5.17578L79.4922-15.0391L58.1055-15.0391Z"/>
  </g>
  <g id="Black-S" transform="matrix(1 0 0 1 2877.35 696)">
   <path d="M25 2.92969L87.1094 2.92969C96.6797 2.92969 102.344-2.73438 102.344-12.3047L102.344-58.1055C102.344-67.6758 96.6797-73.3398 87.1094-73.3398L25-73.3398C15.4297-73.3398 9.76562-67.6758 9.76562-58.1055L9.76562-12.3047C9.76562-2.73438 15.4297 2.92969 25 2.92969ZM23.9258-35.2051L36.7188-35.2051L36.7188-47.168L23.9258-47.168L23.9258-55.8594C23.9258-58.3008 25-59.1797 27.2461-59.1797L36.7188-59.1797L36.7188-47.168L49.6094-47.168L49.6094-59.1797L62.4023-59.1797L62.4023-47.168L75.293-47.168L75.293-59.1797L84.8633-59.1797C87.1094-59.1797 88.1836-58.3008 88.1836-55.8594L88.1836-47.168L75.293-47.168L75.293-35.2051L88.1836-35.2051L88.1836-23.2422L75.293-23.2422L75.293-11.2305L36.7188-11.2305L36.7188-23.2422L23.9258-23.2422ZM49.6094-35.2051L62.4023-35.2051L62.4023-47.168L49.6094-47.168ZM36.7188-23.2422L49.6094-23.2422L49.6094-35.2051L36.7188-35.2051ZM62.4023-23.2422L75.293-23.2422L75.293-35.2051L62.4023-35.2051ZM49.6094-11.2305L62.4023-11.2305L62.4023-23.2422L49.6094-23.2422Z"/>
  </g>
  <g id="Heavy-S" transform="matrix(1 0 0 1 2580.88 696)">
   <path d="M24.3652 2.34375L87.3047 2.34375C96.582 2.34375 101.855-2.97852 101.855-12.207L101.855-58.2031C101.855-67.4316 96.582-72.7539 87.3047-72.7539L24.3652-72.7539C15.0879-72.7539 9.76562-67.4316 9.76562-58.2031L9.76562-12.207C9.76562-2.97852 15.0879 2.34375 24.3652 2.34375ZM22.2656-35.2051L35.6445-35.2051L35.6445-47.7051L22.2656-47.7051L22.2656-56.3965C22.2656-59.1309 23.5352-60.2539 26.0742-60.2539L35.6445-60.2539L35.6445-47.7051L49.1211-47.7051L49.1211-60.2539L62.4512-60.2539L62.4512-47.7051L75.9277-47.7051L75.9277-60.2539L85.5469-60.2539C88.0859-60.2539 89.4043-59.1309 89.4043-56.3965L89.4043-47.7051L75.9277-47.7051L75.9277-35.2051L89.4043-35.2051L89.4043-22.7051L75.9277-22.7051L75.9277-10.1562L35.6445-10.1562L35.6445-22.7051L22.2656-22.7051ZM49.1211-35.2051L62.4512-35.2051L62.4512-47.7051L49.1211-47.7051ZM35.6445-22.7051L49.1211-22.7051L49.1211-35.2051L35.6445-35.2051ZM62.4512-22.7051L75.9277-22.7051L75.9277-35.2051L62.4512-35.2051ZM49.1211-10.1562L62.4512-10.1562L62.4512-22.7051L49.1211-22.7051Z"/>
  </g>
  <g id="Bold-S" transform="matrix(1 0 0 1 2284.41 696)">
   <path d="M23.6328 1.66016L87.5 1.66016C96.4844 1.66016 101.367-3.22266 101.367-12.1094L101.367-58.3008C101.367-67.1875 96.4844-72.0703 87.5-72.0703L23.6328-72.0703C14.6973-72.0703 9.76562-67.1875 9.76562-58.3008L9.76562-12.1094C9.76562-3.22266 14.6973 1.66016 23.6328 1.66016ZM20.3613-35.2051L34.4238-35.2051L34.4238-48.3398L20.3613-48.3398L20.3613-56.9824C20.3613-60.0586 21.9238-61.4746 24.8047-61.4746L34.4238-61.4746L34.4238-48.3398L48.5352-48.3398L48.5352-61.4746L62.5488-61.4746L62.5488-48.3398L76.6602-48.3398L76.6602-61.4746L86.3281-61.4746C89.209-61.4746 90.7715-60.0586 90.7715-56.9824L90.7715-48.3398L76.6602-48.3398L76.6602-35.2051L90.7715-35.2051L90.7715-22.1191L76.6602-22.1191L76.6602-8.93555L34.4238-8.93555L34.4238-22.1191L20.3613-22.1191ZM48.5352-35.2051L62.5488-35.2051L62.5488-48.3398L48.5352-48.3398ZM34.4238-22.1191L48.5352-22.1191L48.5352-35.2051L34.4238-35.2051ZM62.5488-22.1191L76.6602-22.1191L76.6602-35.2051L62.5488-35.2051ZM48.5352-8.93555L62.5488-8.93555L62.5488-22.1191L48.5352-22.1191Z"/>
  </g>
  <g id="Semibold-S" transform="matrix(1 0 0 1 1987.9 696)">
   <path d="M23.0957 1.17188L87.6465 1.17188C96.3867 1.17188 100.977-3.36914 100.977-12.0117L100.977-58.3984C100.977-67.041 96.3867-71.582 87.6465-71.582L23.0957-71.582C14.4043-71.582 9.76562-67.041 9.76562-58.3984L9.76562-12.0117C9.76562-3.36914 14.4043 1.17188 23.0957 1.17188ZM19.0918-35.2051L33.5449-35.2051L33.5449-48.7793L19.0918-48.7793L19.0918-57.4219C19.0918-60.6934 20.752-62.3047 23.877-62.3047L33.5449-62.3047L33.5449-48.7793L48.1445-48.7793L48.1445-62.3047L62.5977-62.3047L62.5977-48.7793L77.1484-48.7793L77.1484-62.3047L86.8652-62.3047C89.9902-62.3047 91.6992-60.6934 91.6992-57.4219L91.6992-48.7793L77.1484-48.7793L77.1484-35.2051L91.6992-35.2051L91.6992-21.6797L77.1484-21.6797L77.1484-8.10547L33.5449-8.10547L33.5449-21.6797L19.0918-21.6797ZM48.1445-35.2051L62.5977-35.2051L62.5977-48.7793L48.1445-48.7793ZM33.5449-21.6797L48.1445-21.6797L48.1445-35.2051L33.5449-35.2051ZM62.5977-21.6797L77.1484-21.6797L77.1484-35.2051L62.5977-35.2051ZM48.1445-8.10547L62.5977-8.10547L62.5977-21.6797L48.1445-21.6797Z"/>
  </g>
  <g id="Medium-S" transform="matrix(1 0 0 1 1691.31 696)">
   <path d="M22.7051 0.830078L87.7441 0.830078C96.3379 0.830078 100.732-3.51562 100.732-11.9629L100.732-58.4473C100.732-66.8945 96.3379-71.2402 87.7441-71.2402L22.7051-71.2402C14.209-71.2402 9.76562-66.8945 9.76562-58.4473L9.76562-11.9629C9.76562-3.51562 14.209 0.830078 22.7051 0.830078ZM18.0664-35.2051L32.9102-35.2051L32.9102-49.0723L18.0664-49.0723L18.0664-57.7148C18.0664-61.1816 19.9219-62.9395 23.1934-62.9395L32.9102-62.9395L32.9102-49.0723L47.8516-49.0723L47.8516-62.9395L62.6465-62.9395L62.6465-49.0723L77.5391-49.0723L77.5391-62.9395L87.3047-62.9395C90.5762-62.9395 92.3828-61.1816 92.3828-57.7148L92.3828-49.0723L77.5391-49.0723L77.5391-35.2051L92.3828-35.2051L92.3828-21.3867L77.5391-21.3867L77.5391-7.4707L32.9102-7.4707L32.9102-21.3867L18.0664-21.3867ZM47.8516-35.2051L62.6465-35.2051L62.6465-49.0723L47.8516-49.0723ZM32.9102-21.3867L47.8516-21.3867L47.8516-35.2051L32.9102-35.2051ZM62.6465-21.3867L77.5391-21.3867L77.5391-35.2051L62.6465-35.2051ZM47.8516-7.4707L62.6465-7.4707L62.6465-21.3867L47.8516-21.3867Z"/>
  </g>
  <g id="Regular-S" transform="matrix(1 0 0 1 1394.79 696)">
   <path d="M22.2168 0.390625L87.8906 0.390625C96.2402 0.390625 100.342-3.71094 100.342-11.9141L100.342-58.4961C100.342-66.6992 96.2402-70.8008 87.8906-70.8008L22.2168-70.8008C13.916-70.8008 9.76562-66.6992 9.76562-58.4961L9.76562-11.9141C9.76562-3.71094 13.916 0.390625 22.2168 0.390625ZM16.7969-35.2051L32.0801-35.2051L32.0801-49.5117L16.7969-49.5117L16.7969-58.1543C16.7969-61.8164 18.7988-63.7207 22.3145-63.7207L32.0801-63.7207L32.0801-49.5117L47.4609-49.5117L47.4609-63.7207L62.6953-63.7207L62.6953-49.5117L78.0273-49.5117L78.0273-63.7207L87.793-63.7207C91.3086-63.7207 93.3105-61.8164 93.3105-58.1543L93.3105-49.5117L78.0273-49.5117L78.0273-35.2051L93.3105-35.2051L93.3105-20.9473L78.0273-20.9473L78.0273-6.68945L32.0801-6.68945L32.0801-20.9473L16.7969-20.9473ZM47.4609-35.2051L62.6953-35.2051L62.6953-49.5117L47.4609-49.5117ZM32.0801-20.9473L47.4609-20.9473L47.4609-35.2051L32.0801-35.2051ZM62.6953-20.9473L78.0273-20.9473L78.0273-35.2051L62.6953-35.2051ZM47.4609-6.68945L62.6953-6.68945L62.6953-20.9473L47.4609-20.9473Z"/>
  </g>
  <g id="Light-S" transform="matrix(1 0 0 1 1098.42 696)">
   <path d="M21.3867-0.292969L88.0371-0.292969C95.752-0.292969 99.6582-4.15039 99.6582-11.7676L99.6582-58.5938C99.6582-66.2109 95.752-70.1172 88.0371-70.1172L21.3867-70.1172C13.6719-70.1172 9.76562-66.2598 9.76562-58.5938L9.76562-11.7676C9.76562-4.15039 13.6719-0.292969 21.3867-0.292969ZM15.1855-35.1562L30.957-35.1562L30.957-49.9512L15.1855-49.9512L15.1855-58.3008C15.1855-62.5 17.4316-64.6973 21.4844-64.6973L30.957-64.6973L30.957-49.9512L46.875-49.9512L46.875-64.6973L62.5488-64.6973L62.5488-49.9512L78.4668-49.9512L78.4668-64.6973L87.9395-64.6973C91.9434-64.6973 94.2383-62.5 94.2383-58.3008L94.2383-49.9512L78.4668-49.9512L78.4668-35.1562L94.2383-35.1562L94.2383-20.459L78.4668-20.459L78.4668-5.71289L30.957-5.71289L30.957-20.459L15.1855-20.459ZM46.875-35.1562L62.5488-35.1562L62.5488-49.9512L46.875-49.9512ZM30.957-20.459L46.875-20.459L46.875-35.1562L30.957-35.1562ZM62.5488-20.459L78.4668-20.459L78.4668-35.1562L62.5488-35.1562ZM46.875-5.71289L62.5488-5.71289L62.5488-20.459L46.875-20.459Z"/>
  </g>
  <g id="Thin-S" transform="matrix(1 0 0 1 802.174 696)">
   <path d="M20.3125-1.12305L88.1836-1.12305C95.1172-1.12305 98.7305-4.78516 98.7305-11.6211L98.7305-58.6914C98.7305-65.5762 95.1172-69.2383 88.1836-69.2383L20.3125-69.2383C13.3789-69.2383 9.76562-65.625 9.76562-58.6914L9.76562-11.6211C9.76562-4.6875 13.3789-1.12305 20.3125-1.12305ZM13.0859-35.1562L29.4922-35.1562L29.4922-50.5859L13.0859-50.5859L13.0859-58.5449C13.0859-63.3789 15.625-65.918 20.4102-65.918L29.4922-65.918L29.4922-50.5859L46.0449-50.5859L46.0449-65.918L62.4023-65.918L62.4023-50.5859L78.9551-50.5859L78.9551-65.918L88.0859-65.918C92.7246-65.918 95.4102-63.3789 95.4102-58.5449L95.4102-50.5859L78.9551-50.5859L78.9551-35.1562L95.4102-35.1562L95.4102-19.8242L78.9551-19.8242L78.9551-4.44336L29.4922-4.44336L29.4922-19.8242L13.0859-19.8242ZM46.0449-35.1562L62.4023-35.1562L62.4023-50.5859L46.0449-50.5859ZM29.4922-19.8242L46.0449-19.8242L46.0449-35.1562L29.4922-35.1562ZM62.4023-19.8242L78.9551-19.8242L78.9551-35.1562L62.4023-35.1562ZM46.0449-4.44336L62.4023-4.44336L62.4023-19.8242L46.0449-19.8242Z"/>
  </g>
  <g id="Ultralight-S" transform="matrix(1 0 0 1 505.707 696)">
   <path d="M19.7754-1.5625L88.2812-1.5625C94.8242-1.5625 98.2422-5.12695 98.2422-11.5234L98.2422-58.7891C98.2422-65.2344 94.8242-68.75 88.2812-68.75L19.7754-68.75C13.2324-68.75 9.76562-65.2832 9.76562-58.7891L9.76562-11.5234C9.76562-5.0293 13.2324-1.5625 19.7754-1.5625ZM11.9629-35.1074L28.7598-35.1074L28.7598-50.9277L11.9629-50.9277L11.9629-58.6426C11.9629-63.8672 14.6484-66.5527 19.873-66.5527L28.7598-66.5527L28.7598-50.9277L45.6543-50.9277L45.6543-66.5527L62.3047-66.5527L62.3047-50.9277L79.248-50.9277L79.248-66.5527L88.1836-66.5527C93.1641-66.5527 96.0449-63.8672 96.0449-58.6426L96.0449-50.9277L79.248-50.9277L79.248-35.1074L96.0449-35.1074L96.0449-19.5312L79.248-19.5312L79.248-3.75977L28.7598-3.75977L28.7598-19.5312L11.9629-19.5312ZM45.6543-35.1074L62.3047-35.1074L62.3047-50.9277L45.6543-50.9277ZM28.7598-19.5312L45.6543-19.5312L45.6543-35.1074L28.7598-35.1074ZM62.3047-19.5312L79.248-19.5312L79.248-35.1074L62.3047-35.1074ZM45.6543-3.75977L62.3047-3.75977L62.3047-19.5312L45.6543-19.5312Z"/>
  </g>
 </g>
</svg>
