<?xml version="1.0" encoding="UTF-8"?>
<!--Generator: Apple Native CoreSVG 149-->
<!DOCTYPE svg
PUBLIC "-//W3C//DTD SVG 1.1//EN"
       "http://www.w3.org/Graphics/SVG/1.1/DTD/svg11.dtd">
<svg version="1.1" xmlns="http://www.w3.org/2000/svg" xmlns:xlink="http://www.w3.org/1999/xlink" width="3300" height="2200">
 <!--glyph: "uni1004DE.medium", point size: 100.000000, font version: "Version 16.0d18e1", template writer version: "8"-->
 <g id="Notes">
  <rect height="2200" id="artboard" style="fill:white;opacity:1" width="3300" x="0" y="0"/>
  <line id="" style="fill:none;stroke:black;opacity:1;stroke-width:0.5;" x1="263" x2="3036" y1="292" y2="292"/>
  <text style="stroke:none;fill:black;font-family:-apple-system,&quot;SF Pro Display&quot;,&quot;SF Pro Text&quot;,Helvetica,sans-serif;font-weight:bold;" transform="matrix(1 0 0 1 263 322)">Weight/Scale Variations</text>
  <text style="stroke:none;fill:black;font-family:-apple-system,&quot;SF Pro Display&quot;,&quot;SF Pro Text&quot;,Helvetica,sans-serif;text-anchor:middle;" transform="matrix(1 0 0 1 559.711 322)">Ultralight</text>
  <text style="stroke:none;fill:black;font-family:-apple-system,&quot;SF Pro Display&quot;,&quot;SF Pro Text&quot;,Helvetica,sans-serif;text-anchor:middle;" transform="matrix(1 0 0 1 856.422 322)">Thin</text>
  <text style="stroke:none;fill:black;font-family:-apple-system,&quot;SF Pro Display&quot;,&quot;SF Pro Text&quot;,Helvetica,sans-serif;text-anchor:middle;" transform="matrix(1 0 0 1 1153.13 322)">Light</text>
  <text style="stroke:none;fill:black;font-family:-apple-system,&quot;SF Pro Display&quot;,&quot;SF Pro Text&quot;,Helvetica,sans-serif;text-anchor:middle;" transform="matrix(1 0 0 1 1449.84 322)">Regular</text>
  <text style="stroke:none;fill:black;font-family:-apple-system,&quot;SF Pro Display&quot;,&quot;SF Pro Text&quot;,Helvetica,sans-serif;text-anchor:middle;" transform="matrix(1 0 0 1 1746.56 322)">Medium</text>
  <text style="stroke:none;fill:black;font-family:-apple-system,&quot;SF Pro Display&quot;,&quot;SF Pro Text&quot;,Helvetica,sans-serif;text-anchor:middle;" transform="matrix(1 0 0 1 2043.27 322)">Semibold</text>
  <text style="stroke:none;fill:black;font-family:-apple-system,&quot;SF Pro Display&quot;,&quot;SF Pro Text&quot;,Helvetica,sans-serif;text-anchor:middle;" transform="matrix(1 0 0 1 2339.98 322)">Bold</text>
  <text style="stroke:none;fill:black;font-family:-apple-system,&quot;SF Pro Display&quot;,&quot;SF Pro Text&quot;,Helvetica,sans-serif;text-anchor:middle;" transform="matrix(1 0 0 1 2636.69 322)">Heavy</text>
  <text style="stroke:none;fill:black;font-family:-apple-system,&quot;SF Pro Display&quot;,&quot;SF Pro Text&quot;,Helvetica,sans-serif;text-anchor:middle;" transform="matrix(1 0 0 1 2933.4 322)">Black</text>
  <line id="" style="fill:none;stroke:black;opacity:1;stroke-width:0.5;" x1="263" x2="3036" y1="1903" y2="1903"/>
  <g id="" transform="matrix(1 0 0 1 263 1933)">
   <path d="M9.24805 0.830078C13.5547 0.830078 17.1387-2.74414 17.1387-7.05078C17.1387-11.3574 13.5449-14.9316 9.23828-14.9316C4.94141-14.9316 1.36719-11.3574 1.36719-7.05078C1.36719-2.74414 4.95117 0.830078 9.24805 0.830078ZM9.24805-0.654297C5.70312-0.654297 2.87109-3.49609 2.87109-7.05078C2.87109-10.6055 5.69336-13.4473 9.23828-13.4473C12.793-13.4473 15.6348-10.6055 15.6445-7.05078C15.6543-3.49609 12.8027-0.654297 9.24805-0.654297ZM6.39648-6.31836L8.50586-6.31836L8.50586-4.19922C8.50586-3.75977 8.79883-3.45703 9.22852-3.45703C9.67773-3.45703 9.9707-3.75977 9.9707-4.19922L9.9707-6.31836L12.0996-6.31836C12.5391-6.31836 12.8418-6.61133 12.8418-7.04102C12.8418-7.48047 12.5391-7.7832 12.0996-7.7832L9.9707-7.7832L9.9707-9.89258C9.9707-10.3418 9.67773-10.6445 9.22852-10.6445C8.79883-10.6445 8.50586-10.3418 8.50586-9.89258L8.50586-7.7832L6.39648-7.7832C5.94727-7.7832 5.64453-7.48047 5.64453-7.04102C5.64453-6.61133 5.94727-6.31836 6.39648-6.31836Z"/>
  </g>
  <g id="" transform="matrix(1 0 0 1 281.506 1933)">
   <path d="M11.709 2.91016C17.1582 2.91016 21.6699-1.61133 21.6699-7.05078C21.6699-12.5 17.1484-17.0117 11.6992-17.0117C6.25977-17.0117 1.74805-12.5 1.74805-7.05078C1.74805-1.61133 6.26953 2.91016 11.709 2.91016ZM11.709 1.25C7.09961 1.25 3.41797-2.44141 3.41797-7.05078C3.41797-11.6602 7.08984-15.3516 11.6992-15.3516C16.3086-15.3516 20-11.6602 20.0098-7.05078C20.0195-2.44141 16.3184 1.25 11.709 1.25ZM7.98828-6.23047L10.8789-6.23047L10.8789-3.32031C10.8789-2.83203 11.2109-2.5 11.6895-2.5C12.1777-2.5 12.5195-2.83203 12.5195-3.32031L12.5195-6.23047L15.4297-6.23047C15.918-6.23047 16.25-6.5625 16.25-7.04102C16.25-7.5293 15.918-7.87109 15.4297-7.87109L12.5195-7.87109L12.5195-10.7617C12.5195-11.2695 12.1777-11.6016 11.6895-11.6016C11.2109-11.6016 10.8789-11.2598 10.8789-10.7617L10.8789-7.87109L7.98828-7.87109C7.48047-7.87109 7.14844-7.5293 7.14844-7.04102C7.14844-6.5625 7.49023-6.23047 7.98828-6.23047Z"/>
  </g>
  <g id="" transform="matrix(1 0 0 1 304.924 1933)">
   <path d="M14.9707 5.66406C21.9336 5.66406 27.6953-0.0976562 27.6953-7.05078C27.6953-14.0137 21.9238-19.7754 14.9609-19.7754C8.00781-19.7754 2.25586-14.0137 2.25586-7.05078C2.25586-0.0976562 8.01758 5.66406 14.9707 5.66406ZM14.9707 3.84766C8.93555 3.84766 4.08203-1.01562 4.08203-7.05078C4.08203-13.0957 8.92578-17.9492 14.9609-17.9492C21.0059-17.9492 25.8594-13.0957 25.8691-7.05078C25.8789-1.01562 21.0156 3.84766 14.9707 3.84766ZM10.0586-6.14258L14.0625-6.14258L14.0625-2.12891C14.0625-1.5918 14.4336-1.2207 14.9512-1.2207C15.4883-1.2207 15.8594-1.5918 15.8594-2.12891L15.8594-6.14258L19.8828-6.14258C20.4102-6.14258 20.791-6.51367 20.791-7.03125C20.791-7.56836 20.4199-7.94922 19.8828-7.94922L15.8594-7.94922L15.8594-11.9531C15.8594-12.5098 15.4883-12.8809 14.9512-12.8809C14.4336-12.8809 14.0625-12.5 14.0625-11.9531L14.0625-7.94922L10.0586-7.94922C9.50195-7.94922 9.13086-7.56836 9.13086-7.03125C9.13086-6.51367 9.51172-6.14258 10.0586-6.14258Z"/>
  </g>
  <text style="stroke:none;fill:black;font-family:-apple-system,&quot;SF Pro Display&quot;,&quot;SF Pro Text&quot;,Helvetica,sans-serif;font-weight:bold;" transform="matrix(1 0 0 1 263 1953)">Design Variations</text>
  <text style="stroke:none;fill:black;font-family:-apple-system,&quot;SF Pro Display&quot;,&quot;SF Pro Text&quot;,Helvetica,sans-serif;" transform="matrix(1 0 0 1 263 1971)">Symbols are supported in up to nine weights and three scales.</text>
  <text style="stroke:none;fill:black;font-family:-apple-system,&quot;SF Pro Display&quot;,&quot;SF Pro Text&quot;,Helvetica,sans-serif;" transform="matrix(1 0 0 1 263 1989)">For optimal layout with text and other symbols, vertically align</text>
  <text style="stroke:none;fill:black;font-family:-apple-system,&quot;SF Pro Display&quot;,&quot;SF Pro Text&quot;,Helvetica,sans-serif;" transform="matrix(1 0 0 1 263 2007)">symbols with the adjacent text.</text>
  <line id="" style="fill:none;stroke:#00AEEF;stroke-width:0.5;opacity:1.0;" x1="776" x2="776" y1="1919" y2="1933"/>
  <g id="" transform="matrix(1 0 0 1 776 1933)">
   <path d="M3.31055 0.126953C3.82812 0.126953 4.08203-0.0683594 4.26758-0.605469L5.52734-4.0625L11.2891-4.0625L12.5488-0.605469C12.7344-0.0683594 12.9883 0.126953 13.4961 0.126953C14.0137 0.126953 14.3457-0.185547 14.3457-0.673828C14.3457-0.839844 14.3164-0.986328 14.2383-1.20117L9.6582-13.3887C9.43359-13.9941 9.0332-14.2871 8.4082-14.2871C7.80273-14.2871 7.39258-13.9941 7.17773-13.3984L2.59766-1.19141C2.51953-0.976562 2.49023-0.830078 2.49023-0.664062C2.49023-0.175781 2.80273 0.126953 3.31055 0.126953ZM6.00586-5.53711L8.37891-12.1094L8.42773-12.1094L10.8008-5.53711Z"/>
  </g>
  <line id="" style="fill:none;stroke:#00AEEF;stroke-width:0.5;opacity:1.0;" x1="792.836" x2="792.836" y1="1919" y2="1933"/>
  <text style="stroke:none;fill:black;font-family:-apple-system,&quot;SF Pro Display&quot;,&quot;SF Pro Text&quot;,Helvetica,sans-serif;font-weight:bold;" transform="matrix(1 0 0 1 776 1953)">Margins</text>
  <text style="stroke:none;fill:black;font-family:-apple-system,&quot;SF Pro Display&quot;,&quot;SF Pro Text&quot;,Helvetica,sans-serif;" transform="matrix(1 0 0 1 776 1971)">Leading and trailing margins on the left and right side of each symbol</text>
  <text style="stroke:none;fill:black;font-family:-apple-system,&quot;SF Pro Display&quot;,&quot;SF Pro Text&quot;,Helvetica,sans-serif;" transform="matrix(1 0 0 1 776 1989)">can be adjusted by modifying the x-location of the margin guidelines.</text>
  <text style="stroke:none;fill:black;font-family:-apple-system,&quot;SF Pro Display&quot;,&quot;SF Pro Text&quot;,Helvetica,sans-serif;" transform="matrix(1 0 0 1 776 2007)">Modifications are automatically applied proportionally to all</text>
  <text style="stroke:none;fill:black;font-family:-apple-system,&quot;SF Pro Display&quot;,&quot;SF Pro Text&quot;,Helvetica,sans-serif;" transform="matrix(1 0 0 1 776 2025)">scales and weights.</text>
  <g id="" transform="matrix(1 0 0 1 1289 1933)">
   <path d="M2.8418 1.86523L4.54102 3.57422C5.40039 4.44336 6.38672 4.38477 7.31445 3.35938L17.4902-7.85156C17.7539-7.76367 18.0273-7.7832 18.3398-7.8418L19.4043-8.03711L20.0684-7.36328L20.0293-6.80664C19.9902-6.30859 20.1172-5.92773 20.6055-5.44922L21.3672-4.70703C21.8457-4.22852 22.4609-4.19922 22.9297-4.66797L25.8398-7.58789C26.3086-8.05664 26.2891-8.65234 25.8105-9.13086L25.0391-9.89258C24.5605-10.3711 24.1895-10.5273 23.7109-10.4883L23.1348-10.4395L22.4902-11.0742L22.7344-12.1973C22.8613-12.7637 22.7051-13.2031 22.1191-13.7891L19.9219-15.9766C16.582-19.2969 12.1484-19.2188 9.25781-16.3281C8.83789-15.918 8.80859-15.3418 9.04297-14.9512C9.27734-14.5898 9.73633-14.3555 10.3809-14.5215C11.8457-14.8633 13.3691-14.9219 14.7949-13.9844L14.209-12.5293C14.0137-12.0508 13.9844-11.6504 14.1113-11.2891L3.04688-0.898438C2.06055 0.0195312 1.98242 0.996094 2.8418 1.86523ZM10.752-15.957C13.1836-17.7344 16.4746-17.4316 18.7012-15.2051L21.1328-12.793C21.3672-12.5586 21.4062-12.373 21.3379-12.0312L21.0156-10.5469L22.5195-9.0625L23.5059-9.12109C23.7598-9.13086 23.8379-9.11133 24.0332-8.91602L24.6094-8.33984L22.168-5.89844L21.5918-6.47461C21.3965-6.66992 21.3672-6.74805 21.377-7.01172L21.4453-7.98828L19.9512-9.47266L18.4277-9.21875C18.1055-9.15039 17.959-9.17969 17.7148-9.41406L15.7129-11.416C15.459-11.6504 15.4297-11.8164 15.5859-12.1875L16.4648-14.2773C14.9023-15.7324 12.8711-16.3574 10.8398-15.7617C10.6836-15.7227 10.625-15.8496 10.752-15.957ZM5.27344 2.30469L4.10156 1.14258C3.63281 0.683594 3.74023 0.341797 4.14062-0.0195312L14.9512-10.1953L16.416-8.71094L6.42578 2.27539C6.07422 2.67578 5.74219 2.77344 5.27344 2.30469Z"/>
  </g>
  <text style="stroke:none;fill:black;font-family:-apple-system,&quot;SF Pro Display&quot;,&quot;SF Pro Text&quot;,Helvetica,sans-serif;font-weight:bold;" transform="matrix(1 0 0 1 1289 1953)">Exporting</text>
  <text style="stroke:none;fill:black;font-family:-apple-system,&quot;SF Pro Display&quot;,&quot;SF Pro Text&quot;,Helvetica,sans-serif;" transform="matrix(1 0 0 1 1289 1971)">Symbols should be outlined when exporting to ensure the</text>
  <text style="stroke:none;fill:black;font-family:-apple-system,&quot;SF Pro Display&quot;,&quot;SF Pro Text&quot;,Helvetica,sans-serif;" transform="matrix(1 0 0 1 1289 1989)">design is preserved when submitting to Xcode.</text>
  <text id="template-version" style="stroke:none;fill:black;font-family:-apple-system,&quot;SF Pro Display&quot;,&quot;SF Pro Text&quot;,Helvetica,sans-serif;text-anchor:end;" transform="matrix(1 0 0 1 3036 1933)">Template v.2.0</text>
  <text style="stroke:none;fill:black;font-family:-apple-system,&quot;SF Pro Display&quot;,&quot;SF Pro Text&quot;,Helvetica,sans-serif;text-anchor:end;" transform="matrix(1 0 0 1 3036 1951)">Requires Xcode 12 or greater</text>
  <text style="stroke:none;fill:black;font-family:-apple-system,&quot;SF Pro Display&quot;,&quot;SF Pro Text&quot;,Helvetica,sans-serif;text-anchor:end;" transform="matrix(1 0 0 1 3036 1969)">Generated from circle.dashed</text>
  <text style="stroke:none;fill:black;font-family:-apple-system,&quot;SF Pro Display&quot;,&quot;SF Pro Text&quot;,Helvetica,sans-serif;text-anchor:end;" transform="matrix(1 0 0 1 3036 1987)">Typeset at 100 points</text>
  <text style="stroke:none;fill:black;font-family:-apple-system,&quot;SF Pro Display&quot;,&quot;SF Pro Text&quot;,Helvetica,sans-serif;" transform="matrix(1 0 0 1 263 726)">Small</text>
  <text style="stroke:none;fill:black;font-family:-apple-system,&quot;SF Pro Display&quot;,&quot;SF Pro Text&quot;,Helvetica,sans-serif;" transform="matrix(1 0 0 1 263 1156)">Medium</text>
  <text style="stroke:none;fill:black;font-family:-apple-system,&quot;SF Pro Display&quot;,&quot;SF Pro Text&quot;,Helvetica,sans-serif;" transform="matrix(1 0 0 1 263 1586)">Large</text>
 </g>
 <g id="Guides">
  <g id="H-reference" style="fill:#27AAE1;stroke:none;" transform="matrix(1 0 0 1 339 696)">
   <path d="M0.976562 0L3.66211 0L12.9883-24.4629L45.752-24.4629L55.127 0L57.7637 0L30.6152-70.459L28.125-70.459ZM29.3457-67.1387L29.4434-67.1387L44.873-26.709L13.8672-26.709Z"/>
  </g>
  <line id="Baseline-S" style="fill:none;stroke:#27AAE1;opacity:1;stroke-width:0.5;" x1="263" x2="3036" y1="696" y2="696"/>
  <line id="Capline-S" style="fill:none;stroke:#27AAE1;opacity:1;stroke-width:0.5;" x1="263" x2="3036" y1="625.541" y2="625.541"/>
  <g id="H-reference" style="fill:#27AAE1;stroke:none;" transform="matrix(1 0 0 1 339 1126)">
   <path d="M0.976562 0L3.66211 0L12.9883-24.4629L45.752-24.4629L55.127 0L57.7637 0L30.6152-70.459L28.125-70.459ZM29.3457-67.1387L29.4434-67.1387L44.873-26.709L13.8672-26.709Z"/>
  </g>
  <line id="Baseline-M" style="fill:none;stroke:#27AAE1;opacity:1;stroke-width:0.5;" x1="263" x2="3036" y1="1126" y2="1126"/>
  <line id="Capline-M" style="fill:none;stroke:#27AAE1;opacity:1;stroke-width:0.5;" x1="263" x2="3036" y1="1055.54" y2="1055.54"/>
  <g id="H-reference" style="fill:#27AAE1;stroke:none;" transform="matrix(1 0 0 1 339 1556)">
   <path d="M0.976562 0L3.66211 0L12.9883-24.4629L45.752-24.4629L55.127 0L57.7637 0L30.6152-70.459L28.125-70.459ZM29.3457-67.1387L29.4434-67.1387L44.873-26.709L13.8672-26.709Z"/>
  </g>
  <line id="Baseline-L" style="fill:none;stroke:#27AAE1;opacity:1;stroke-width:0.5;" x1="263" x2="3036" y1="1556" y2="1556"/>
  <line id="Capline-L" style="fill:none;stroke:#27AAE1;opacity:1;stroke-width:0.5;" x1="263" x2="3036" y1="1485.54" y2="1485.54"/>
  <line id="left-margin" style="fill:none;stroke:#00AEEF;stroke-width:0.5;opacity:1.0;" x1="1391.3" x2="1391.3" y1="1030.79" y2="1150.12"/>
  <line id="right-margin" style="fill:none;stroke:#00AEEF;stroke-width:0.5;opacity:1.0;" x1="1508.39" x2="1508.39" y1="1030.79" y2="1150.12"/>
 </g>
 <g id="Symbols">
  <g id="Black-L" transform="matrix(1 0 0 1 2854.05 1556)">
   <path d="M79.2969-82.9102C83.7891-82.9102 88.0859-82.2754 92.1387-81.1523L100-100.049C93.457-102.197 86.5234-103.32 79.2969-103.32C72.1191-103.32 65.1367-102.197 58.5938-100.049L66.5039-81.1523C70.5566-82.2754 74.8535-82.9102 79.2969-82.9102ZM120.85-58.5938L139.795-66.4551C133.252-78.9551 122.998-89.209 110.498-95.752L102.637-76.8066C110.303-72.5586 116.602-66.2598 120.85-58.5938ZM55.957-76.8066L48.0957-95.7031C35.6445-89.209 25.3906-78.9551 18.8965-66.4551L37.793-58.5938C42.041-66.2598 48.3398-72.5586 55.957-76.8066ZM126.953-35.2539C126.953-30.8105 126.318-26.5137 125.244-22.4121L144.141-14.5508C146.24-21.0938 147.412-28.0762 147.412-35.2539C147.412-42.4805 146.24-49.4141 144.141-56.0059L125.195-48.0957C126.318-43.9941 126.953-39.7461 126.953-35.2539ZM31.7383-35.2539C31.7383-39.7461 32.373-43.9941 33.4473-48.0957L14.502-55.957C12.4512-49.4141 11.2793-42.4805 11.2793-35.2539C11.2793-28.0762 12.4512-21.1426 14.5508-14.5508L33.4473-22.4609C32.373-26.5137 31.7383-30.8105 31.7383-35.2539ZM102.637 6.29883L110.498 25.1953C122.998 18.6523 133.252 8.39844 139.795-4.05273L120.898-11.9141C116.65-4.29688 110.303 2.00195 102.637 6.29883ZM37.793-11.9141L18.8965-4.05273C25.3906 8.39844 35.6445 18.6523 48.0957 25.1465L55.957 6.25C48.3398 2.00195 42.041-4.29688 37.793-11.9141ZM79.3457 12.3535C74.8535 12.3535 70.5566 11.7188 66.5039 10.5957L58.6426 29.541C65.1855 31.6406 72.168 32.8125 79.3457 32.8125C86.5234 32.8125 93.5059 31.6406 100.049 29.541L92.1387 10.6445C88.0859 11.7188 83.7891 12.3535 79.3457 12.3535Z"/>
  </g>
  <g id="Heavy-L" transform="matrix(1 0 0 1 2558.39 1556)">
   <path d="M78.2715-84.5215C83.0566-84.5215 87.7441-83.7891 92.1387-82.5195L98.9258-98.9258C92.3828-101.123 85.4492-102.295 78.2715-102.295C71.0449-102.295 64.0625-101.123 57.5195-98.9258L64.4043-82.5195C68.7988-83.7891 73.4375-84.5215 78.2715-84.5215ZM121.533-58.8379L137.891-65.6738C131.445-78.1738 121.191-88.4766 108.643-94.9219L101.855-78.5156C110.156-74.0234 116.992-67.1875 121.533-58.8379ZM54.6387-78.5156L47.8516-94.873C35.3516-88.4766 25.0488-78.1738 18.6035-65.6738L35.0098-58.8379C39.502-67.1875 46.3379-74.0234 54.6387-78.5156ZM127.539-35.2539C127.539-30.4688 126.807-25.7812 125.537-21.3867L141.943-14.5508C144.092-21.0938 145.312-28.0762 145.312-35.2539C145.312-42.4805 144.092-49.4629 141.943-55.957L125.537-49.1211C126.807-44.7266 127.539-40.0879 127.539-35.2539ZM29.0527-35.2539C29.0527-40.0879 29.7852-44.7266 31.0547-49.1211L14.5996-55.957C12.4512-49.4141 11.2793-42.4805 11.2793-35.2539C11.2793-28.0762 12.4512-21.1426 14.5996-14.5996L31.0547-21.4355C29.7852-25.7812 29.0527-30.4688 29.0527-35.2539ZM101.855 8.00781L108.643 24.3652C121.191 17.9199 131.494 7.66602 137.891-4.83398L121.533-11.6699C117.041-3.32031 110.205 3.4668 101.855 8.00781ZM35.0586-11.6699L18.6523-4.83398C25.0977 7.66602 35.3516 17.9199 47.8516 24.3652L54.6875 7.95898C46.3379 3.4668 39.502-3.36914 35.0586-11.6699ZM78.2715 13.9648C73.4375 13.9648 68.7988 13.2812 64.4043 11.9629L57.5684 28.418C64.1113 30.5664 71.0938 31.7383 78.2715 31.7383C85.498 31.7383 92.4316 30.5664 98.9746 28.418L92.0898 12.0117C87.6953 13.2812 83.1055 13.9648 78.2715 13.9648Z"/>
  </g>
  <g id="Bold-L" transform="matrix(1 0 0 1 2262.88 1556)">
   <path d="M77.0508-86.3281C82.2754-86.3281 87.3535-85.498 92.0898-84.0332L97.7539-97.7051C91.2109-99.9023 84.2773-101.074 77.0508-101.074C69.873-101.074 62.8906-99.9023 56.3477-97.7051L62.0605-84.0332C66.7969-85.5469 71.8262-86.3281 77.0508-86.3281ZM122.217-59.1309L135.84-64.7949C129.443-77.3438 119.141-87.6465 106.592-94.043L100.928-80.4199C110.01-75.6836 117.48-68.2617 122.217-59.1309ZM53.1738-80.4199L47.5098-93.9941C34.9609-87.6465 24.707-77.3438 18.3594-64.7949L31.9336-59.1309C36.6699-68.2129 44.1406-75.6348 53.1738-80.4199ZM128.174-35.2539C128.174-30.0293 127.344-25 125.928-20.2148L139.551-14.5508C141.699-21.0938 142.92-28.0762 142.92-35.2539C142.92-42.4805 141.699-49.4629 139.551-55.957L125.928-50.293C127.344-45.5566 128.174-40.4785 128.174-35.2539ZM26.0742-35.2539C26.0742-40.4785 26.8555-45.5566 28.3203-50.2441L14.6484-55.957C12.5-49.4141 11.2793-42.4805 11.2793-35.2539C11.2793-28.0762 12.5-21.0938 14.6973-14.5996L28.3203-20.2637C26.9043-25 26.0742-30.0293 26.0742-35.2539ZM100.928 9.86328L106.592 23.4863C119.189 17.0898 129.492 6.83594 135.84-5.71289L122.266-11.377C117.529-2.29492 110.059 5.12695 100.928 9.86328ZM31.9824-11.377L18.3594-5.71289C24.7559 6.83594 35.0098 17.0898 47.5586 23.4375L53.1738 9.86328C44.1406 5.07812 36.7188-2.34375 31.9824-11.377ZM77.0996 15.7715C71.8262 15.7715 66.7969 14.9902 62.0605 13.5254L56.3965 27.1484C62.8906 29.3457 69.9219 30.5664 77.0996 30.5664C84.2773 30.5664 91.2598 29.3457 97.7539 27.1973L92.0898 13.5742C87.3047 14.9902 82.3242 15.7715 77.0996 15.7715Z"/>
  </g>
  <g id="Semibold-L" transform="matrix(1 0 0 1 1966.97 1556)">
   <path d="M76.2695-87.5977C81.7871-87.5977 87.0605-86.7188 92.0898-85.1074L96.9238-96.8262C90.4297-99.0723 83.4473-100.293 76.2695-100.293C69.043-100.293 62.0605-99.0723 55.5176-96.8262L60.4492-85.1074C65.4297-86.7188 70.752-87.5977 76.2695-87.5977ZM122.705-59.3262L134.375-64.1602C128.076-76.7578 117.725-87.0605 105.176-93.4082L100.342-81.7383C109.912-76.8066 117.773-68.9941 122.705-59.3262ZM52.1484-81.7383L47.3145-93.3594C34.7656-87.0605 24.4629-76.7578 18.1641-64.1602L29.834-59.3262C34.7168-68.8965 42.5781-76.7578 52.1484-81.7383ZM128.613-35.2539C128.613-29.7363 127.734-24.4141 126.172-19.4336L137.842-14.5508C140.088-21.0938 141.309-28.0762 141.309-35.2539C141.309-42.4805 140.088-49.4629 137.842-55.957L126.172-51.0742C127.734-46.0938 128.613-40.7715 128.613-35.2539ZM24.0234-35.2539C24.0234-40.7715 24.8535-46.0938 26.4648-51.0254L14.6973-55.957C12.5-49.4141 11.2793-42.4805 11.2793-35.2539C11.2793-28.0762 12.5-21.0938 14.7461-14.5996L26.4648-19.4824C24.9023-24.4141 24.0234-29.7363 24.0234-35.2539ZM100.342 11.1816L105.176 22.9004C117.773 16.5527 128.076 6.25 134.375-6.34766L122.754-11.1816C117.822-1.5625 109.961 6.25 100.342 11.1816ZM29.8828-11.1816L18.1641-6.34766C24.5117 6.25 34.7656 16.5527 47.3145 22.8516L52.1973 11.1816C42.5781 6.20117 34.7656-1.61133 29.8828-11.1816ZM76.2695 17.041C70.752 17.041 65.4297 16.1621 60.4492 14.5508L55.5664 26.3184C62.1094 28.5156 69.0918 29.7363 76.2695 29.7363C83.4961 29.7363 90.4297 28.5156 96.9238 26.3184L92.041 14.6484C87.0605 16.1621 81.7871 17.041 76.2695 17.041Z"/>
  </g>
  <g id="Medium-L" transform="matrix(1 0 0 1 1670.87 1556)">
   <path d="M75.6348-88.5254C81.3477-88.5254 86.8652-87.5977 92.041-85.9375L96.2891-96.1914C89.7949-98.4375 82.8125-99.6582 75.6348-99.6582C68.4082-99.6582 61.4258-98.4375 54.9316-96.1914L59.2285-85.9375C64.4043-87.6465 69.9219-88.5254 75.6348-88.5254ZM123.096-59.4727L133.301-63.7207C127.002-76.3184 116.65-86.6211 104.102-92.9688L99.8535-82.7148C109.863-77.6855 118.018-69.5312 123.096-59.4727ZM51.3672-82.7148L47.168-92.8711C34.5703-86.6211 24.2676-76.3184 17.9688-63.7207L28.2227-59.4238C33.252-69.4336 41.4062-77.6367 51.3672-82.7148ZM128.906-35.2539C128.906-29.541 128.027-23.9746 126.367-18.8477L136.572-14.5508C138.818-21.0449 140.088-28.0762 140.088-35.2539C140.088-42.4805 138.818-49.4629 136.572-55.957L126.367-51.6602C128.027-46.5332 128.906-41.0156 128.906-35.2539ZM22.4609-35.2539C22.4609-41.0156 23.3398-46.5332 25.0488-51.6602L14.6973-55.957C12.5488-49.4141 11.2793-42.4805 11.2793-35.2539C11.2793-28.0762 12.5488-21.0938 14.7461-14.5996L25.0488-18.8965C23.3887-23.9746 22.4609-29.541 22.4609-35.2539ZM99.8535 12.207L104.102 22.4121C116.699 16.1133 127.051 5.81055 133.301-6.78711L123.145-11.0352C118.066-1.02539 109.863 7.12891 99.8535 12.207ZM28.2715-11.0352L18.0176-6.78711C24.3164 5.81055 34.5703 16.1133 47.168 22.3633L51.416 12.1582C41.4062 7.08008 33.3008-1.07422 28.2715-11.0352ZM75.6836 17.9688C69.9219 17.9688 64.4043 17.0898 59.2285 15.3809L54.9805 25.6348C61.4746 27.8809 68.457 29.1016 75.6836 29.1016C82.8613 29.1016 89.7949 27.8809 96.2891 25.6836L91.9922 15.4297C86.8652 17.0898 81.3965 17.9688 75.6836 17.9688Z"/>
  </g>
  <g id="Regular-L" transform="matrix(1 0 0 1 1374.97 1556)">
   <path d="M74.8047-89.7461C80.8105-89.7461 86.6211-88.7695 92.041-86.9629L95.459-95.3125C88.9648-97.6074 82.0312-98.877 74.8047-98.877C67.627-98.877 60.5957-97.6074 54.1016-95.3125L57.6172-86.9629C63.0371-88.8184 68.7988-89.7461 74.8047-89.7461ZM123.584-59.668L131.885-63.1348C125.635-75.7812 115.283-86.084 102.686-92.334L99.2188-84.0332C109.766-78.7598 118.311-70.2637 123.584-59.668ZM50.3906-84.0332L46.9238-92.2363C34.3262-86.0352 24.0234-75.7324 17.8223-63.1348L26.123-59.6191C31.3477-70.166 39.8926-78.7109 50.3906-84.0332ZM129.346-35.2539C129.346-29.248 128.369-23.4375 126.611-18.0664L134.912-14.5508C137.207-21.0449 138.477-28.0762 138.477-35.2539C138.477-42.4805 137.207-49.4629 134.912-55.957L126.611-52.4414C128.418-47.0703 129.346-41.2598 129.346-35.2539ZM20.4102-35.2539C20.4102-41.2598 21.3867-47.0703 23.1934-52.3926L14.7461-55.9082C12.5488-49.4141 11.2793-42.4805 11.2793-35.2539C11.2793-28.0762 12.5488-21.0938 14.7949-14.5996L23.1934-18.1152C21.4355-23.4375 20.4102-29.248 20.4102-35.2539ZM99.2188 13.4766L102.686 21.7773C115.332 15.5273 125.684 5.22461 131.836-7.37305L123.633-10.8398C118.359-0.292969 109.814 8.25195 99.2188 13.4766ZM26.1719-10.8398L17.8223-7.37305C24.0723 5.22461 34.375 15.5273 46.9727 21.7285L50.3906 13.4277C39.8926 8.20312 31.3477-0.341797 26.1719-10.8398ZM74.8535 19.2383C68.7988 19.2383 63.0371 18.2617 57.6172 16.4062L54.1504 24.8047C60.6445 27.0508 67.6758 28.3203 74.8535 28.3203C82.0801 28.3203 89.0137 27.0996 95.5078 24.8535L91.9922 16.5039C86.5723 18.2617 80.8594 19.2383 74.8535 19.2383Z"/>
  </g>
  <g id="Light-L" transform="matrix(1 0 0 1 1079.18 1556)">
   <path d="M73.9258-91.0156C80.2734-91.0156 86.4258-89.9414 92.1387-87.9395L94.7754-94.2871C88.2324-96.6309 81.2012-97.9492 73.9258-97.9492C66.6504-97.9492 59.5703-96.6309 53.0273-94.2871L55.7129-87.9395C61.4258-89.9902 67.5293-91.0156 73.9258-91.0156ZM124.072-59.668L130.371-62.2559C124.17-75.0977 113.721-85.5469 100.928-91.748L98.291-85.4492C109.521-79.9805 118.604-70.8984 124.072-59.668ZM49.4629-85.4492L46.875-91.6504C34.082-85.498 23.6328-75.0488 17.4805-62.2559L23.7793-59.6191C29.1992-70.8496 38.3301-79.9316 49.4629-85.4492ZM18.2129-35.2539C18.2129-41.6504 19.2383-47.7539 21.2402-53.418L14.8926-56.1035C12.5977-49.5605 11.2793-42.5293 11.2793-35.2539C11.2793-27.9785 12.5977-20.9473 14.8926-14.4043L21.2402-17.041C19.2871-22.7051 18.2129-28.9062 18.2129-35.2539ZM129.736-35.2539C129.736-28.9062 128.613-22.7051 126.66-17.041L133.008-14.4043C135.303-20.9473 136.621-27.9785 136.621-35.2539C136.621-42.5293 135.303-49.5605 133.008-56.1035L126.709-53.4668C128.662-47.7539 129.736-41.6504 129.736-35.2539ZM98.291 14.8926L100.928 21.1914C113.721 14.9902 124.219 4.58984 130.322-8.20312L124.121-10.8398C118.652 0.390625 109.57 9.42383 98.291 14.8926ZM23.8281-10.8398L17.5293-8.20312C23.7305 4.58984 34.1309 14.9902 46.9238 21.1914L49.5117 14.8438C38.3301 9.42383 29.248 0.341797 23.8281-10.8398ZM73.9258 20.5078C67.5293 20.5078 61.4258 19.4336 55.7129 17.4316L53.0762 23.7793C59.6191 26.0742 66.6504 27.3926 73.9258 27.3926C81.2012 27.3926 88.1836 26.123 94.7266 23.7793L92.041 17.4805C86.377 19.4336 80.2734 20.5078 73.9258 20.5078Z"/>
  </g>
  <g id="Thin-L" transform="matrix(1 0 0 1 783.693 1556)">
   <path d="M72.7051-92.7246C79.5898-92.7246 86.1328-91.4551 92.2852-89.3066L93.7988-92.9688C87.207-95.3613 80.0781-96.7285 72.7051-96.7285C65.332-96.7285 58.2031-95.3613 51.6113-92.9688L53.2227-89.3066C59.2773-91.5527 65.8691-92.7246 72.7051-92.7246ZM124.756-59.6191L128.418-61.1328C122.266-74.2676 111.621-84.8145 98.584-90.9668L97.0703-87.3047C109.229-81.5918 119.043-71.7773 124.756-59.6191ZM48.291-87.3047L46.7773-90.8691C33.7402-84.7656 23.1445-74.1699 17.041-61.1328L20.7031-59.6191C26.3672-71.7285 36.1816-81.543 48.291-87.3047ZM15.2832-35.2539C15.2832-42.1387 16.4551-48.6816 18.7012-54.7852L15.0391-56.3477C12.6465-49.7559 11.2793-42.627 11.2793-35.2539C11.2793-27.8809 12.6465-20.752 15.0391-14.1602L18.7012-15.6738C16.5039-21.7773 15.2832-28.418 15.2832-35.2539ZM130.176-35.2539C130.176-28.418 128.906-21.7773 126.758-15.6738L130.42-14.1602C132.812-20.752 134.18-27.8809 134.18-35.2539C134.18-42.627 132.812-49.707 130.42-56.2988L126.807-54.7852C129.004-48.6816 130.176-42.1387 130.176-35.2539ZM97.0703 16.748L98.584 20.4102C111.621 14.3066 122.266 3.71094 128.32-9.32617L124.756-10.8398C119.043 1.26953 109.229 11.0352 97.0703 16.748ZM20.7031-10.8398L17.0898-9.32617C23.2422 3.71094 33.7891 14.3066 46.8262 20.4102L48.3398 16.748C36.1816 11.0352 26.416 1.2207 20.7031-10.8398ZM72.7051 22.168C65.8691 22.168 59.2773 20.9961 53.2227 18.75L51.6113 22.4121C58.2031 24.8047 65.332 26.1719 72.7051 26.1719C80.0781 26.1719 87.1582 24.9023 93.75 22.4121L92.1387 18.8477C86.084 20.9961 79.4922 22.168 72.7051 22.168Z"/>
  </g>
  <g id="Ultralight-L" transform="matrix(1 0 0 1 487.616 1556)">
   <path d="M72.1191-93.6035C79.1992-93.6035 85.9863-92.2852 92.3828-89.9414L93.3105-92.2852C86.7188-94.7266 79.541-96.0938 72.1191-96.0938C64.6973-96.0938 57.5195-94.7266 50.8789-92.2852L51.9043-89.9414C58.2031-92.334 64.9902-93.6035 72.1191-93.6035ZM125.098-59.6191L127.393-60.5469C121.289-73.8281 110.547-84.4727 97.4121-90.5762L96.4844-88.2324C109.082-82.373 119.238-72.2168 125.098-59.6191ZM47.6562-88.2324L46.7285-90.4785C33.5449-84.375 22.9004-73.7305 16.7969-60.5469L19.1406-59.6191C24.9023-72.168 35.1074-82.373 47.6562-88.2324ZM13.7695-35.2539C13.7695-42.3828 14.9902-49.1699 17.3828-55.4688L15.0879-56.4941C12.6465-49.8535 11.2793-42.6758 11.2793-35.2539C11.2793-27.832 12.6465-20.6543 15.0879-14.0625L17.3828-14.9902C15.0879-21.2891 13.7695-28.1738 13.7695-35.2539ZM130.42-35.2539C130.42-28.1738 129.102-21.2891 126.758-14.9902L129.102-14.0625C131.543-20.6543 132.91-27.832 132.91-35.2539C132.91-42.6758 131.543-49.8047 129.102-56.3965L126.855-55.4688C129.199-49.1699 130.42-42.3828 130.42-35.2539ZM96.4844 17.7246L97.4121 20.0195C110.547 13.916 121.289 3.27148 127.295-9.91211L125.049-10.8398C119.189 1.70898 109.082 11.8652 96.4844 17.7246ZM19.1406-10.8398L16.8945-9.91211C22.998 3.27148 33.6426 13.916 46.8262 20.0195L47.7539 17.7246C35.1074 11.8652 25 1.70898 19.1406-10.8398ZM72.1191 23.0469C64.9902 23.0469 58.2031 21.8262 51.9043 19.4336L50.8789 21.7285C57.5195 24.1699 64.6973 25.5371 72.1191 25.5371C79.541 25.5371 86.6211 24.2676 93.2129 21.7285L92.1875 19.4824C85.9375 21.8262 79.1504 23.0469 72.1191 23.0469Z"/>
  </g>
  <g id="Black-M" transform="matrix(1 0 0 1 2870.97 1126)">
   <path d="M62.4023-70.6543C65.5762-70.6543 68.6035-70.2148 71.4844-69.4824L78.5645-86.4258C73.4375-88.0859 68.0176-88.916 62.4023-88.916C56.7871-88.916 51.3672-88.0859 46.2891-86.4258L53.3203-69.4824C56.25-70.2148 59.2773-70.6543 62.4023-70.6543ZM44.6777-65.918L37.6465-82.8613C27.8809-77.7832 19.9219-69.7754 14.7949-60.0586L31.7383-52.9785C34.8633-58.3496 39.3066-62.8418 44.6777-65.918ZM93.0664-52.9785L110.01-60.0586C104.932-69.7754 96.9238-77.7832 87.207-82.8613L80.127-65.918C85.5469-62.8418 89.9902-58.3496 93.0664-52.9785ZM27.002-35.2539C27.002-38.4277 27.4414-41.4551 28.1738-44.3359L11.2305-51.416C9.61914-46.2891 8.74023-40.8691 8.74023-35.2539C8.74023-29.6387 9.61914-24.2188 11.2305-19.0918L28.1738-26.1719C27.4414-29.0527 27.002-32.1289 27.002-35.2539ZM97.8027-35.2539C97.8027-32.1289 97.3633-29.0527 96.6309-26.1719L113.623-19.0918C115.234-24.2188 116.113-29.6387 116.113-35.2539C116.113-40.8691 115.234-46.2891 113.623-51.416L96.6309-44.3359C97.3633-41.4551 97.8027-38.4277 97.8027-35.2539ZM80.127-4.58984L87.207 12.3535C96.9238 7.22656 104.932-0.732422 110.01-10.4492L93.0664-17.5293C89.9902-12.1582 85.5469-7.71484 80.127-4.58984ZM31.7383-17.5293L14.7949-10.4492C19.9219-0.732422 27.8809 7.22656 37.6465 12.3535L44.6777-4.58984C39.3066-7.71484 34.8633-12.1582 31.7383-17.5293ZM62.4023 0.146484C59.2773 0.146484 56.25-0.292969 53.3203-1.02539L46.2891 15.918C51.3672 17.5293 56.7871 18.4082 62.4023 18.4082C68.0176 18.4082 73.4375 17.5293 78.5645 15.918L71.4844-1.02539C68.6035-0.292969 65.5762 0.146484 62.4023 0.146484Z"/>
  </g>
  <g id="Heavy-M" transform="matrix(1 0 0 1 2575.19 1126)">
   <path d="M61.4746-72.1191C64.9414-72.1191 68.2617-71.6309 71.4355-70.752L77.5879-85.498C72.5098-87.1094 67.0898-88.0371 61.4746-88.0371C55.9082-88.0371 50.4883-87.1094 45.4102-85.498L51.5137-70.752C54.6875-71.6309 58.0566-72.1191 61.4746-72.1191ZM93.6523-53.2715L108.398-59.4238C103.32-69.1406 95.3613-77.0996 85.6445-82.1777L79.4922-67.4316C85.4492-64.1113 90.332-59.2285 93.6523-53.2715ZM43.457-67.4316L37.3535-82.1289C27.6367-77.0996 19.6777-69.1406 14.5996-59.4238L29.3457-53.2715C32.666-59.2285 37.5488-64.1113 43.457-67.4316ZM98.3398-35.2539C98.3398-31.7871 97.8516-28.4668 96.9727-25.293L111.719-19.1406C113.379-24.2676 114.258-29.6875 114.258-35.2539C114.258-40.8691 113.379-46.2891 111.719-51.3672L96.9727-45.2148C97.8516-42.041 98.3398-38.7207 98.3398-35.2539ZM24.6582-35.2539C24.6582-38.7207 25.1465-42.041 26.0254-45.2148L11.2793-51.3672C9.61914-46.2402 8.74023-40.8691 8.74023-35.2539C8.74023-29.6875 9.61914-24.2676 11.2793-19.1895L26.0254-25.293C25.1465-28.4668 24.6582-31.7871 24.6582-35.2539ZM79.4922-3.125L85.6445 11.6211C95.3613 6.5918 103.32-1.41602 108.398-11.1328L93.6523-17.2363C90.3809-11.2793 85.4492-6.39648 79.4922-3.125ZM29.3457-17.2363L14.5996-11.1328C19.6777-1.41602 27.6367 6.5918 37.3535 11.6211L43.457-3.125C37.5488-6.39648 32.666-11.3281 29.3457-17.2363ZM61.5234 1.5625C58.0566 1.5625 54.6875 1.07422 51.5137 0.195312L45.4102 14.9414C50.4883 16.6016 55.9082 17.4805 61.5234 17.4805C67.0898 17.4805 72.5098 16.6016 77.5879 14.9902L71.4355 0.244141C68.2617 1.07422 64.9414 1.5625 61.5234 1.5625Z"/>
  </g>
  <g id="Bold-M" transform="matrix(1 0 0 1 2279.5 1126)">
   <path d="M60.4492-73.7305C64.2578-73.7305 67.9199-73.1445 71.3867-72.1191L76.4648-84.4238C71.4355-86.084 66.0156-87.0117 60.4492-87.0117C54.8828-87.0117 49.4629-86.084 44.3848-84.4238L49.5117-72.1191C52.9785-73.1445 56.6406-73.7305 60.4492-73.7305ZM94.2871-53.6133L106.543-58.6914C101.562-68.4082 93.6035-76.3672 83.8867-81.3477L78.8086-69.0918C85.3516-65.5762 90.7715-60.1562 94.2871-53.6133ZM42.1387-69.0918L37.0117-81.2988C27.3438-76.3672 19.3848-68.4082 14.4043-58.6914L26.6602-53.5645C30.1758-60.1562 35.5469-65.5273 42.1387-69.0918ZM98.9258-35.2539C98.9258-31.4453 98.3887-27.7832 97.3633-24.3164L109.619-19.1895C111.328-24.2676 112.207-29.6875 112.207-35.2539C112.207-40.8203 111.328-46.2402 109.619-51.3184L97.3633-46.1914C98.3887-42.7246 98.9258-39.0625 98.9258-35.2539ZM22.0703-35.2539C22.0703-39.0625 22.6074-42.7246 23.6328-46.1426L11.3281-51.2695C9.66797-46.2402 8.74023-40.8203 8.74023-35.2539C8.74023-29.6875 9.66797-24.3164 11.3281-19.2383L23.6328-24.3652C22.6074-27.7832 22.0703-31.4453 22.0703-35.2539ZM78.8086-1.41602L83.8867 10.8398C93.6035 5.81055 101.562-2.14844 106.543-11.8164L94.2871-16.9434C90.7715-10.3516 85.3516-4.98047 78.8086-1.41602ZM26.6602-16.9434L14.4043-11.8164C19.3848-2.14844 27.3438 5.81055 37.0117 10.791L42.1387-1.46484C35.5469-4.98047 30.1758-10.3516 26.6602-16.9434ZM60.498 3.17383C56.6406 3.17383 52.9785 2.63672 49.5117 1.61133L44.4336 13.916C49.5117 15.5762 54.8828 16.5039 60.498 16.5039C66.0645 16.5039 71.4355 15.5762 76.5137 13.916L71.3867 1.61133C67.9199 2.63672 64.2578 3.17383 60.498 3.17383Z"/>
  </g>
  <g id="Semibold-M" transform="matrix(1 0 0 1 1983.5 1126)">
   <path d="M59.7656-74.8047C63.7695-74.8047 67.6758-74.2188 71.3379-73.0957L75.7324-83.6914C70.7031-85.3516 65.2832-86.2793 59.7656-86.2793C54.1992-86.2793 48.7793-85.3516 43.75-83.6914L48.1445-73.0957C51.8066-74.2188 55.7129-74.8047 59.7656-74.8047ZM94.7266-53.8086L105.273-58.2031C100.342-67.8711 92.3828-75.8301 82.666-80.8105L78.2715-70.2148C85.3027-66.5527 91.0645-60.8398 94.7266-53.8086ZM41.1621-70.2148L36.8164-80.7617C27.0996-75.8301 19.1895-67.8711 14.2578-58.2031L24.8047-53.7598C28.4668-60.791 34.1797-66.5039 41.1621-70.2148ZM99.3652-35.2539C99.3652-31.2012 98.7305-27.3438 97.6074-23.6816L108.203-19.2383C109.863-24.2676 110.791-29.6875 110.791-35.2539C110.791-40.8203 109.863-46.2402 108.203-51.2695L97.6074-46.875C98.7305-43.1641 99.3652-39.3066 99.3652-35.2539ZM20.2637-35.2539C20.2637-39.3066 20.8496-43.1641 21.9727-46.8262L11.3281-51.2207C9.66797-46.1914 8.74023-40.8203 8.74023-35.2539C8.74023-29.6875 9.66797-24.3164 11.377-19.2871L21.9727-23.6816C20.8496-27.3438 20.2637-31.2012 20.2637-35.2539ZM78.2715-0.292969L82.666 10.2539C92.3828 5.32227 100.342-2.63672 105.273-12.3047L94.7754-16.6992C91.0645-9.66797 85.3027-3.95508 78.2715-0.292969ZM24.8535-16.6992L14.2578-12.3047C19.1895-2.63672 27.0996 5.32227 36.8164 10.2539L41.2109-0.292969C34.1797-4.00391 28.4668-9.7168 24.8535-16.6992ZM59.7656 4.29688C55.7129 4.29688 51.8066 3.71094 48.1445 2.53906L43.75 13.1348C48.8281 14.8438 54.1992 15.7715 59.7656 15.7715C65.332 15.7715 70.7031 14.8438 75.7324 13.1836L71.3379 2.58789C67.6758 3.71094 63.8184 4.29688 59.7656 4.29688Z"/>
  </g>
  <g id="Medium-M" transform="matrix(1 0 0 1 1687.3 1126)">
   <path d="M59.1797-75.6836C63.4277-75.6836 67.4805-75 71.2891-73.8281L75.1465-83.1055C70.1172-84.8145 64.7461-85.7422 59.1797-85.7422C53.6621-85.7422 48.2422-84.8145 43.2129-83.1055L47.1191-73.8281C50.9277-75 54.9805-75.6836 59.1797-75.6836ZM95.0684-53.9551L104.297-57.8125C99.4141-67.5293 91.4551-75.4395 81.7383-80.3711L77.9297-71.0938C85.2539-67.334 91.2598-61.3281 95.0684-53.9551ZM40.4785-71.0938L36.6211-80.3223C26.9531-75.4395 18.9941-67.4805 14.1113-57.8125L23.3887-53.9551C27.1973-61.2793 33.1543-67.2852 40.4785-71.0938ZM99.6582-35.2539C99.6582-31.0547 98.9746-26.9531 97.8516-23.1445L107.08-19.2871C108.789-24.3164 109.766-29.6875 109.766-35.2539C109.766-40.8203 108.789-46.1914 107.08-51.2207L97.8027-47.3633C99.0234-43.5547 99.6582-39.4531 99.6582-35.2539ZM18.8965-35.2539C18.8965-39.4531 19.5312-43.5547 20.7031-47.3145L11.3281-51.2207C9.66797-46.1914 8.74023-40.8203 8.74023-35.2539C8.74023-29.6875 9.66797-24.3652 11.377-19.3359L20.7031-23.1934C19.5312-26.9531 18.8965-31.0547 18.8965-35.2539ZM77.9297 0.585938L81.7383 9.86328C91.4551 4.93164 99.4141-3.02734 104.297-12.6953L95.1172-16.5527C91.3086-9.17969 85.2539-3.22266 77.9297 0.585938ZM23.4375-16.5527L14.1602-12.6953C19.043-3.02734 26.9531 4.93164 36.6699 9.81445L40.4785 0.537109C33.1543-3.27148 27.1973-9.22852 23.4375-16.5527ZM59.2285 5.12695C54.9805 5.12695 50.9277 4.49219 47.1191 3.27148L43.2617 12.5977C48.291 14.3066 53.7109 15.2344 59.2285 15.2344C64.7949 15.2344 70.166 14.3066 75.1953 12.6465L71.2891 3.32031C67.4805 4.49219 63.4277 5.12695 59.2285 5.12695Z"/>
  </g>
  <g id="Regular-M" transform="matrix(1 0 0 1 1391.3 1126)">
   <path d="M58.4961-76.7578C62.9395-76.7578 67.2363-76.0742 71.2891-74.7559L74.4141-82.373C69.3848-84.082 64.0137-85.0586 58.4961-85.0586C52.9785-85.0586 47.5586-84.082 42.5293-82.373L45.752-74.7559C49.7559-76.0742 54.0527-76.7578 58.4961-76.7578ZM95.5078-54.1992L103.076-57.3242C98.1934-66.9922 90.2344-74.9512 80.5664-79.834L77.4414-72.2656C85.1562-68.3105 91.5527-61.9629 95.5078-54.1992ZM39.5508-72.2656L36.4258-79.7852C26.7578-74.9512 18.7988-66.9922 13.9648-57.3242L21.582-54.1504C25.4883-61.9141 31.8359-68.2617 39.5508-72.2656ZM100.049-35.2539C100.049-30.8105 99.3652-26.5137 98.0957-22.5098L105.664-19.2871C107.373-24.3164 108.35-29.7363 108.35-35.2539C108.35-40.8203 107.373-46.1914 105.664-51.2207L98.0469-47.998C99.3652-43.9941 100.049-39.6973 100.049-35.2539ZM17.0898-35.2539C17.0898-39.6973 17.7734-43.9941 19.043-47.9492L11.377-51.1719C9.7168-46.1426 8.74023-40.8203 8.74023-35.2539C8.74023-29.7363 9.7168-24.3652 11.4258-19.3359L19.043-22.5586C17.7734-26.5137 17.0898-30.8105 17.0898-35.2539ZM77.4414 1.70898L80.5664 9.32617C90.2832 4.44336 98.2422-3.51562 103.027-13.1836L95.5566-16.3086C91.6016-8.54492 85.2051-2.24609 77.4414 1.70898ZM21.582-16.3086L14.0137-13.1836C18.8965-3.51562 26.7578 4.44336 36.4258 9.27734L39.5508 1.66016C31.8359-2.29492 25.4883-8.59375 21.582-16.3086ZM58.5449 6.25C54.0527 6.25 49.7559 5.56641 45.752 4.24805L42.5781 11.8652C47.6074 13.5742 53.0273 14.5508 58.5449 14.5508C64.0625 14.5508 69.4336 13.5742 74.4141 11.9141L71.2402 4.29688C67.2363 5.56641 62.9883 6.25 58.5449 6.25Z"/>
  </g>
  <g id="Light-M" transform="matrix(1 0 0 1 1095.42 1126)">
   <path d="M57.666-77.9297C62.4512-77.9297 67.041-77.0996 71.3867-75.6348L73.7305-81.4941C68.7012-83.252 63.2812-84.2285 57.666-84.2285C52.0996-84.2285 46.6309-83.252 41.6016-81.4941L44.043-75.6348C48.291-77.1484 52.9297-77.9297 57.666-77.9297ZM95.9473-54.1992L101.709-56.543C96.875-66.4062 88.8184-74.4629 79.0039-79.2969L76.6113-73.4863C84.9609-69.3848 91.7969-62.5977 95.9473-54.1992ZM38.7207-73.4863L36.377-79.248C26.5137-74.4141 18.5059-66.4062 13.6719-56.543L19.4824-54.1504C23.584-62.5 30.4199-69.3359 38.7207-73.4863ZM100.391-35.2539C100.391-30.4688 99.5605-25.8789 98.1445-21.582L103.906-19.1406C105.713-24.2188 106.689-29.6387 106.689-35.2539C106.689-40.8691 105.713-46.2891 103.906-51.3184L98.1445-48.9258C99.6094-44.6289 100.391-40.0391 100.391-35.2539ZM15.0879-35.2539C15.0879-40.0391 15.8691-44.6289 17.334-48.877L11.4746-51.3184C9.7168-46.2891 8.74023-40.8691 8.74023-35.2539C8.74023-29.6387 9.7168-24.2188 11.5234-19.1895L17.334-21.6309C15.918-25.8789 15.0879-30.4688 15.0879-35.2539ZM76.6113 2.97852L79.0039 8.78906C88.8672 3.95508 96.9238-4.10156 101.709-13.916L95.9473-16.3086C91.8457-7.95898 85.0098-1.12305 76.6113 2.97852ZM19.4824-16.3086L13.7207-13.916C18.5547-4.10156 26.5625 3.95508 36.377 8.74023L38.7695 2.97852C30.4199-1.17188 23.584-7.95898 19.4824-16.3086ZM57.7148 7.37305C52.9297 7.37305 48.291 6.5918 44.043 5.12695L41.6016 10.9375C46.6797 12.7441 52.0996 13.7207 57.7148 13.7207C63.3301 13.7207 68.7012 12.7441 73.7793 10.9863L71.2891 5.17578C67.041 6.5918 62.4512 7.37305 57.7148 7.37305Z"/>
  </g>
  <g id="Thin-M" transform="matrix(1 0 0 1 799.806 1126)">
   <path d="M56.5918-79.4434C61.8164-79.4434 66.7969-78.4668 71.4844-76.8555L72.9004-80.2734C67.8223-82.0801 62.3047-83.1543 56.5918-83.1543C50.9277-83.1543 45.4102-82.0801 40.332-80.2734L41.7969-76.8555C46.3867-78.5156 51.416-79.4434 56.5918-79.4434ZM96.5332-54.1504L99.9512-55.5664C95.166-65.6738 86.9629-73.8281 76.9043-78.6133L75.4883-75.1953C84.7168-70.8008 92.1387-63.3789 96.5332-54.1504ZM37.6465-75.1953L36.2793-78.5156C26.2207-73.7793 18.0664-65.625 13.2812-55.5664L16.6992-54.1504C21.0449-63.3301 28.5156-70.8008 37.6465-75.1953ZM12.4512-35.2539C12.4512-40.4785 13.3301-45.459 15.0391-50.0977L11.6211-51.5625C9.76562-46.4355 8.74023-40.9668 8.74023-35.2539C8.74023-29.5898 9.76562-24.0723 11.6211-18.9941L15.0391-20.3613C13.4277-25 12.4512-30.0293 12.4512-35.2539ZM100.781-35.2539C100.781-30.0293 99.8535-25 98.1934-20.3613L101.611-18.9453C103.467-24.0723 104.492-29.5898 104.492-35.2539C104.492-40.9668 103.467-46.4355 101.611-51.5137L98.2422-50.0977C99.9023-45.459 100.781-40.4785 100.781-35.2539ZM75.4883 4.63867L76.9043 8.05664C86.9629 3.32031 95.166-4.88281 99.9023-14.8926L96.5332-16.3086C92.1387-7.12891 84.7168 0.292969 75.4883 4.63867ZM16.6992-16.3086L13.3301-14.8926C18.1152-4.88281 26.2695 3.32031 36.3281 8.05664L37.6953 4.63867C28.5156 0.292969 21.0938-7.17773 16.6992-16.3086ZM56.6406 8.88672C51.416 8.88672 46.3867 8.00781 41.7969 6.29883L40.332 9.76562C45.4102 11.5723 50.9277 12.5977 56.6406 12.5977C62.3047 12.5977 67.7734 11.6211 72.8516 9.76562L71.3867 6.39648C66.748 8.00781 61.7676 8.88672 56.6406 8.88672Z"/>
  </g>
  <g id="Ultralight-M" transform="matrix(1 0 0 1 503.656 1126)">
   <path d="M56.0547-80.1758C61.5234-80.1758 66.6992-79.1992 71.582-77.4414L72.4609-79.6387C67.334-81.543 61.8164-82.5684 56.0547-82.5684C50.3418-82.5684 44.7754-81.543 39.6484-79.6387L40.625-77.4414C45.4102-79.248 50.6348-80.1758 56.0547-80.1758ZM96.8262-54.1504L99.0234-55.0293C94.2871-65.2832 85.9863-73.4863 75.8301-78.2227L74.9512-76.0254C84.5703-71.5332 92.334-63.7695 96.8262-54.1504ZM37.1094-76.0254L36.2305-78.1738C26.0742-73.4375 17.8223-65.1855 13.0859-55.0293L15.2832-54.1504C19.7266-63.7207 27.5391-71.5332 37.1094-76.0254ZM11.1328-35.2539C11.1328-40.7227 12.0605-45.8984 13.8672-50.6836L11.6699-51.6602C9.81445-46.5332 8.74023-41.0156 8.74023-35.2539C8.74023-29.541 9.81445-23.9746 11.6699-18.8477L13.8672-19.7754C12.1094-24.5605 11.1328-29.834 11.1328-35.2539ZM100.977-35.2539C100.977-29.834 100-24.5605 98.2422-19.7754L100.439-18.8477C102.344-23.9746 103.369-29.541 103.369-35.2539C103.369-41.0156 102.344-46.4844 100.439-51.6113L98.291-50.6836C100.049-45.8984 100.977-40.7227 100.977-35.2539ZM74.9512 5.51758L75.8301 7.71484C85.9863 2.97852 94.2871-5.27344 98.9746-15.4297L96.8262-16.3086C92.334-6.73828 84.5703 1.02539 74.9512 5.51758ZM15.2832-16.3086L13.1348-15.4297C17.8711-5.27344 26.123 2.97852 36.2793 7.71484L37.1582 5.51758C27.5391 1.02539 19.7754-6.73828 15.2832-16.3086ZM56.0547 9.66797C50.6348 9.66797 45.4102 8.74023 40.625 6.93359L39.6484 9.13086C44.7754 10.9863 50.3418 12.0605 56.0547 12.0605C61.8164 12.0605 67.2852 11.084 72.4121 9.13086L71.4355 6.98242C66.6504 8.74023 61.4258 9.66797 56.0547 9.66797Z"/>
  </g>
  <g id="Black-S" transform="matrix(1 0 0 1 2884.57 696)">
   <path d="M48.8281-63.0859C51.3184-63.0859 53.7109-62.7441 56.0059-62.1582L61.4746-75.293C57.4707-76.5625 53.2227-77.2461 48.8281-77.2461C44.4336-77.2461 40.1855-76.5625 36.1816-75.293L41.6504-62.1582C43.9453-62.7441 46.3379-63.0859 48.8281-63.0859ZM34.9121-59.375L29.4434-72.5098C21.8262-68.5059 15.5762-62.2559 11.5723-54.6387L24.707-49.1699C27.1484-53.418 30.6641-56.9336 34.9121-59.375ZM72.9492-49.1699L86.084-54.6387C82.0801-62.2559 75.8301-68.5059 68.2129-72.5098L62.7441-59.375C66.9922-56.9336 70.5078-53.418 72.9492-49.1699ZM20.9961-35.2539C20.9961-37.7441 21.3379-40.1367 21.9238-42.4316L8.78906-47.9004C7.51953-43.8965 6.83594-39.6484 6.83594-35.2539C6.83594-30.8594 7.51953-26.6113 8.78906-22.6074L21.9238-28.0762C21.3379-30.3711 20.9961-32.7637 20.9961-35.2539ZM76.6602-35.2539C76.6602-32.7637 76.3184-30.3711 75.7324-28.0762L88.8672-22.6074C90.1367-26.6113 90.8203-30.8594 90.8203-35.2539C90.8203-39.6484 90.1367-43.8965 88.8672-47.9004L75.7324-42.4316C76.3184-40.1367 76.6602-37.7441 76.6602-35.2539ZM62.7441-11.1328L68.2129 2.00195C75.8301-2.00195 82.0801-8.25195 86.084-15.8691L72.9492-21.3379C70.5078-17.0898 66.9922-13.5742 62.7441-11.1328ZM24.707-21.3379L11.5723-15.8691C15.5762-8.25195 21.8262-2.00195 29.4434 2.00195L34.9121-11.1328C30.6641-13.5742 27.1484-17.0898 24.707-21.3379ZM48.8281-7.42188C46.3379-7.42188 43.9453-7.76367 41.6504-8.34961L36.1816 4.78516C40.1855 6.05469 44.4336 6.73828 48.8281 6.73828C53.2227 6.73828 57.4707 6.05469 61.4746 4.78516L56.0059-8.34961C53.7109-7.76367 51.3184-7.42188 48.8281-7.42188Z"/>
  </g>
  <g id="Heavy-S" transform="matrix(1 0 0 1 2588.47 696)">
   <path d="M48.1934-64.0625C50.8789-64.0625 53.4668-63.6719 55.957-62.9883L60.791-74.6582C56.8359-75.9277 52.5879-76.6602 48.1934-76.6602C43.8477-76.6602 39.5996-75.9277 35.5957-74.6582L40.4785-62.9883C42.9199-63.6719 45.5078-64.0625 48.1934-64.0625ZM73.3398-49.3652L84.9609-54.248C81.0059-61.8164 74.7559-68.0664 67.1875-72.0215L62.3535-60.4004C66.9434-57.8125 70.752-54.0039 73.3398-49.3652ZM34.082-60.4004L29.248-72.0215C21.6309-68.0664 15.4297-61.8164 11.4746-54.248L23.0957-49.3652C25.6836-54.0039 29.4922-57.8125 34.082-60.4004ZM77.0508-35.2539C77.0508-32.5684 76.6602-29.9805 75.9766-27.4902L87.6465-22.6562C88.916-26.6602 89.5996-30.8594 89.5996-35.2539C89.5996-39.6484 88.916-43.8477 87.6465-47.8516L75.9766-43.0176C76.6602-40.5273 77.0508-37.9395 77.0508-35.2539ZM19.4336-35.2539C19.4336-37.9395 19.8242-40.5273 20.459-42.9688L8.78906-47.8516C7.51953-43.8477 6.83594-39.6484 6.83594-35.2539C6.83594-30.8594 7.51953-26.6602 8.83789-22.6562L20.459-27.5391C19.8242-29.9805 19.4336-32.5684 19.4336-35.2539ZM62.3535-10.1074L67.1875 1.51367C74.8047-2.44141 81.0059-8.69141 84.9609-16.2598L73.3398-21.1426C70.752-16.5039 66.9434-12.6953 62.3535-10.1074ZM23.0957-21.1426L11.4746-16.2598C15.4297-8.69141 21.6309-2.44141 29.248 1.51367L34.082-10.1562C29.4922-12.6953 25.6836-16.5039 23.0957-21.1426ZM48.2422-6.44531C45.5078-6.44531 42.9199-6.83594 40.4785-7.51953L35.6445 4.15039C39.5996 5.41992 43.8477 6.15234 48.2422 6.15234C52.5879 6.15234 56.8359 5.41992 60.791 4.15039L55.957-7.4707C53.4668-6.83594 50.9277-6.44531 48.2422-6.44531Z"/>
  </g>
  <g id="Bold-S" transform="matrix(1 0 0 1 2292.44 696)">
   <path d="M47.5098-65.1367C50.4395-65.1367 53.2227-64.7461 55.9082-63.9648L60.0098-73.9746C56.0547-75.2441 51.8555-75.9766 47.5098-75.9766C43.1641-75.9766 38.9648-75.2441 34.9609-73.9746L39.1602-63.9648C41.7969-64.7461 44.6289-65.1367 47.5098-65.1367ZM73.7793-49.6094L83.7402-53.7598C79.7852-61.3281 73.584-67.5293 66.0645-71.4844L61.9141-61.5234C66.8945-58.7891 71.0449-54.6387 73.7793-49.6094ZM33.1543-61.5234L29.0039-71.4355C21.4355-67.5293 15.2344-61.3281 11.3281-53.7598L21.2891-49.6094C24.0234-54.6387 28.125-58.7402 33.1543-61.5234ZM77.4414-35.2539C77.4414-32.3242 77.002-29.541 76.2695-26.9043L86.2305-22.7051C87.5488-26.6602 88.2324-30.9082 88.2324-35.2539C88.2324-39.5996 87.5488-43.8477 86.2305-47.8027L76.2695-43.6035C77.002-40.9668 77.4414-38.1836 77.4414-35.2539ZM17.6758-35.2539C17.6758-38.1836 18.0664-40.9668 18.8477-43.6035L8.83789-47.7539C7.56836-43.7988 6.83594-39.5996 6.83594-35.2539C6.83594-30.9082 7.56836-26.709 8.83789-22.7539L18.8477-26.9043C18.1152-29.541 17.6758-32.3242 17.6758-35.2539ZM61.9141-9.0332L66.0645 0.976562C73.6328-2.97852 79.834-9.17969 83.7402-16.748L73.7793-20.8984C71.0449-15.8691 66.9434-11.7188 61.9141-9.0332ZM21.3379-20.8984L11.3281-16.748C15.2344-9.17969 21.4355-2.97852 29.0039 0.927734L33.1543-9.0332C28.125-11.7676 24.0234-15.8691 21.3379-20.8984ZM47.5586-5.37109C44.6289-5.37109 41.7969-5.76172 39.1602-6.54297L35.0098 3.4668C38.9648 4.73633 43.2129 5.46875 47.5586 5.46875C51.9043 5.46875 56.1035 4.73633 60.0586 3.4668L55.9082-6.54297C53.2227-5.76172 50.4395-5.37109 47.5586-5.37109Z"/>
  </g>
  <g id="Semibold-S" transform="matrix(1 0 0 1 1996.2 696)">
   <path d="M47.0215-65.918C50.0977-65.918 53.0762-65.4297 55.8594-64.5996L59.5215-73.4863C55.5664-74.7559 51.3672-75.4883 47.0215-75.4883C42.7246-75.4883 38.4766-74.7559 34.5703-73.4863L38.2324-64.5996C41.0156-65.4297 43.9941-65.918 47.0215-65.918ZM74.0723-49.8047L82.8613-53.4668C79.0039-60.9863 72.8027-67.1875 65.2344-71.0938L61.5723-62.2559C66.8945-59.4238 71.2402-55.127 74.0723-49.8047ZM32.5195-62.2559L28.8574-71.0449C21.2891-67.1875 15.0879-60.9863 11.2305-53.4668L20.0684-49.7559C22.9004-55.0781 27.1973-59.4238 32.5195-62.2559ZM77.7344-35.2539C77.7344-32.1777 77.2949-29.248 76.4648-26.4648L85.3027-22.7539C86.5723-26.709 87.3047-30.9082 87.3047-35.2539C87.3047-39.5996 86.5723-43.7988 85.3027-47.7539L76.4648-44.043C77.2949-41.2598 77.7344-38.3301 77.7344-35.2539ZM16.4551-35.2539C16.4551-38.3301 16.8945-41.2598 17.7246-44.043L8.83789-47.7051C7.56836-43.7988 6.83594-39.5996 6.83594-35.2539C6.83594-30.9082 7.56836-26.709 8.88672-22.8027L17.7246-26.4648C16.8945-29.248 16.4551-32.1777 16.4551-35.2539ZM61.5723-8.25195L65.2344 0.585938C72.8027-3.32031 79.0039-9.52148 82.8613-17.041L74.0723-20.7031C71.2891-15.3809 66.8945-11.084 61.5723-8.25195ZM20.0684-20.7031L11.2305-17.041C15.1367-9.52148 21.2891-3.32031 28.8574 0.537109L32.5195-8.25195C27.1973-11.084 22.9004-15.4297 20.0684-20.7031ZM47.0703-4.58984C43.9941-4.58984 41.0156-5.07812 38.2324-5.9082L34.5703 2.97852C38.5254 4.24805 42.7246 4.98047 47.0703 4.98047C51.416 4.98047 55.6152 4.24805 59.5215 2.97852L55.8594-5.85938C53.0762-5.07812 50.1465-4.58984 47.0703-4.58984Z"/>
  </g>
  <g id="Medium-S" transform="matrix(1 0 0 1 1699.83 696)">
   <path d="M46.6797-66.4551C49.8535-66.4551 52.9297-66.0156 55.8105-65.1367L59.1309-73.0957C55.1758-74.4141 51.0254-75.1465 46.6797-75.1465C42.3828-75.1465 38.1348-74.4141 34.2285-73.0957L37.5488-65.1367C40.4297-66.0156 43.5059-66.4551 46.6797-66.4551ZM74.2676-49.9512L82.2266-53.2227C78.3691-60.7422 72.168-66.9434 64.6484-70.8008L61.377-62.8418C66.8457-59.9609 71.3867-55.4688 74.2676-49.9512ZM31.9824-62.8418L28.7109-70.752C21.1914-66.9434 14.9902-60.7422 11.1816-53.2227L19.1406-49.9023C22.0215-55.4199 26.5137-59.9121 31.9824-62.8418ZM77.9297-35.2539C77.9297-32.0801 77.4902-29.0039 76.6113-26.123L84.5703-22.8027C85.8887-26.709 86.6211-30.9082 86.6211-35.2539C86.6211-39.5996 85.8887-43.7988 84.5703-47.7051L76.5625-44.3848C77.4902-41.5039 77.9297-38.4277 77.9297-35.2539ZM15.5273-35.2539C15.5273-38.4277 16.0156-41.5039 16.8457-44.3359L8.83789-47.7051C7.56836-43.75 6.83594-39.5996 6.83594-35.2539C6.83594-30.9082 7.56836-26.7578 8.88672-22.8027L16.8457-26.1719C16.0156-29.0039 15.5273-32.0801 15.5273-35.2539ZM61.377-7.66602L64.6484 0.292969C72.2168-3.56445 78.3691-9.76562 82.2266-17.2852L74.3164-20.5566C71.4355-15.0391 66.8945-10.5469 61.377-7.66602ZM19.1406-20.5566L11.1816-17.2852C15.0391-9.76562 21.1914-3.56445 28.7109 0.244141L32.0312-7.66602C26.5137-10.5957 22.0215-15.0879 19.1406-20.5566ZM46.7285-4.05273C43.5059-4.05273 40.4297-4.49219 37.5488-5.37109L34.2773 2.58789C38.1836 3.90625 42.3828 4.63867 46.7285 4.63867C51.0254 4.63867 55.2246 3.90625 59.1309 2.63672L55.8105-5.37109C52.9297-4.49219 49.9023-4.05273 46.7285-4.05273Z"/>
  </g>
  <g id="Regular-S" transform="matrix(1 0 0 1 1403.58 696)">
   <path d="M46.1914-67.2363C49.5117-67.2363 52.7344-66.6992 55.7617-65.7715L58.5938-72.6074C54.6875-73.9258 50.5371-74.6582 46.1914-74.6582C41.8945-74.6582 37.6953-73.9258 33.7891-72.6074L36.6699-65.7715C39.6484-66.6992 42.8711-67.2363 46.1914-67.2363ZM74.5605-50.0977L81.3965-52.9297C77.5391-60.4004 71.3867-66.5527 63.8672-70.4102L61.0352-63.623C66.7969-60.5957 71.582-55.9082 74.5605-50.0977ZM31.3477-63.623L28.5645-70.3613C21.0449-66.5527 14.8926-60.4004 11.084-52.9297L17.8711-50.0488C20.8984-55.8594 25.5859-60.5469 31.3477-63.623ZM78.2227-35.2539C78.2227-31.9336 77.7344-28.7109 76.8066-25.6836L83.5938-22.8516C84.9609-26.7578 85.6934-30.957 85.6934-35.2539C85.6934-39.5508 84.9609-43.75 83.5938-47.6562L76.7578-44.8242C77.7344-41.7969 78.2227-38.5742 78.2227-35.2539ZM14.3555-35.2539C14.3555-38.5742 14.8438-41.7969 15.7715-44.7754L8.83789-47.6562C7.56836-43.7012 6.83594-39.5508 6.83594-35.2539C6.83594-30.957 7.56836-26.8066 8.88672-22.8516L15.7715-25.7324C14.8438-28.7109 14.3555-31.9336 14.3555-35.2539ZM61.0352-6.88477L63.8672-0.0976562C71.3867-3.95508 77.5879-10.1074 81.3965-17.5781L74.6094-20.4102C71.6309-14.5996 66.8457-9.91211 61.0352-6.88477ZM17.9199-20.4102L11.084-17.5781C14.9414-10.1074 21.0449-3.95508 28.5645-0.146484L31.3477-6.93359C25.5859-9.96094 20.8984-14.6484 17.9199-20.4102ZM46.2402-3.27148C42.8711-3.27148 39.6484-3.80859 36.6699-4.73633L33.8379 2.09961C37.7441 3.41797 41.9434 4.15039 46.2402 4.15039C50.5859 4.15039 54.7363 3.41797 58.6426 2.14844L55.7617-4.6875C52.7344-3.80859 49.5605-3.27148 46.2402-3.27148Z"/>
  </g>
  <g id="Light-S" transform="matrix(1 0 0 1 1107.6 696)">
   <path d="M45.5078-68.2129C49.1211-68.2129 52.5879-67.627 55.8594-66.5527L58.0078-71.8262C54.1016-73.1934 49.8535-73.9258 45.5078-73.9258C41.1133-73.9258 36.8652-73.1934 32.959-71.8262L35.1562-66.5527C38.3789-67.6758 41.8945-68.2129 45.5078-68.2129ZM75-50.0977L80.1758-52.2461C76.3672-59.9121 70.1172-66.1621 62.4512-69.9707L60.3027-64.7461C66.6504-61.5723 71.8262-56.4453 75-50.0977ZM30.6641-64.7461L28.5156-69.9219C20.8496-66.1133 14.5996-59.8633 10.8398-52.2461L16.0645-50.0488C19.1895-56.3965 24.3652-61.5234 30.6641-64.7461ZM78.5156-35.2539C78.5156-31.6406 77.9297-28.125 76.8555-24.9023L82.0801-22.7051C83.4473-26.6602 84.2285-30.9082 84.2285-35.2539C84.2285-39.5996 83.4473-43.8477 82.0801-47.8027L76.8555-45.6055C77.9297-42.334 78.5156-38.8672 78.5156-35.2539ZM12.5977-35.2539C12.5977-38.8672 13.1348-42.334 14.209-45.5566L8.93555-47.8027C7.61719-43.8477 6.83594-39.5996 6.83594-35.2539C6.83594-30.9082 7.61719-26.6602 8.98438-22.7051L14.209-24.9023C13.1836-28.125 12.5977-31.6406 12.5977-35.2539ZM60.3027-5.76172L62.4512-0.537109C70.166-4.3457 76.416-10.5957 80.1758-18.2617L75-20.4102C71.8262-14.0625 66.6504-8.93555 60.3027-5.76172ZM16.0645-20.4102L10.8398-18.2617C14.6484-10.5957 20.8496-4.3457 28.5156-0.585938L30.6641-5.81055C24.3652-8.98438 19.1895-14.1113 16.0645-20.4102ZM45.5078-2.29492C41.8945-2.29492 38.3789-2.83203 35.1562-3.95508L32.959 1.31836C36.9141 2.68555 41.1621 3.41797 45.5078 3.41797C49.9023 3.41797 54.1016 2.68555 58.0566 1.31836L55.8105-3.90625C52.5879-2.83203 49.1211-2.29492 45.5078-2.29492Z"/>
  </g>
  <g id="Thin-S" transform="matrix(1 0 0 1 811.867 696)">
   <path d="M44.5312-69.5801C48.5352-69.5801 52.3926-68.8477 55.957-67.5781L57.2754-70.752C53.2715-72.168 48.9746-72.998 44.5312-72.998C40.0879-72.998 35.791-72.168 31.8359-70.752L33.1543-67.5781C36.7188-68.8965 40.5273-69.5801 44.5312-69.5801ZM75.4883-50.0488L78.6133-51.3672C74.9023-59.2285 68.457-65.5762 60.6445-69.3359L59.375-66.2109C66.4062-62.8418 72.1191-57.1289 75.4883-50.0488ZM29.6875-66.2109L28.418-69.2871C20.6055-65.5762 14.209-59.1797 10.498-51.3672L13.623-50.0488C16.9434-57.0801 22.7051-62.793 29.6875-66.2109ZM10.2539-35.2539C10.2539-39.2578 10.9375-43.0664 12.207-46.6309L9.0332-47.9492C7.61719-43.9941 6.83594-39.6973 6.83594-35.2539C6.83594-30.8105 7.61719-26.5137 9.08203-22.5586L12.207-23.8281C10.9863-27.3926 10.2539-31.25 10.2539-35.2539ZM78.8574-35.2539C78.8574-31.25 78.1738-27.3926 76.9043-23.8281L80.0293-22.5098C81.4941-26.5137 82.2754-30.8105 82.2754-35.2539C82.2754-39.6973 81.4941-43.9453 80.0293-47.9492L76.9531-46.6309C78.1738-43.0664 78.8574-39.2578 78.8574-35.2539ZM59.375-4.29688L60.6445-1.17188C68.5059-4.93164 74.9023-11.2793 78.6133-19.1406L75.4883-20.4102C72.1191-13.3789 66.4062-7.66602 59.375-4.29688ZM13.623-20.4102L10.498-19.1406C14.2578-11.2793 20.6055-4.93164 28.4668-1.17188L29.7363-4.29688C22.7051-7.71484 16.9922-13.3789 13.623-20.4102ZM44.5801-0.927734C40.5273-0.927734 36.7188-1.61133 33.1543-2.92969L31.8359 0.244141C35.791 1.66016 40.1367 2.49023 44.5801 2.49023C49.0234 2.49023 53.2715 1.70898 57.2266 0.244141L55.9082-2.88086C52.3438-1.61133 48.5352-0.927734 44.5801-0.927734Z"/>
  </g>
  <g id="Ultralight-S" transform="matrix(1 0 0 1 515.644 696)">
   <path d="M44.043-70.2637C48.2422-70.2637 52.2949-69.4824 56.0547-68.1152L56.8848-70.2148C52.8809-71.6309 48.5352-72.4609 44.043-72.4609C39.5508-72.4609 35.2539-71.6309 31.25-70.2148L32.1289-68.1152C35.8398-69.5312 39.8438-70.2637 44.043-70.2637ZM75.7812-50.0488L77.832-50.8789C74.1211-58.8867 67.627-65.2832 59.668-68.9941L58.8379-66.9434C66.3086-63.4766 72.2656-57.4707 75.7812-50.0488ZM29.1992-66.9434L28.3691-68.9453C20.459-65.2344 14.0137-58.8379 10.3027-50.8789L12.3535-50.0488C15.7715-57.4219 21.8262-63.4766 29.1992-66.9434ZM9.08203-35.2539C9.08203-39.4531 9.76562-43.457 11.1816-47.168L9.13086-48.0957C7.66602-44.0918 6.83594-39.7461 6.83594-35.2539C6.83594-30.7617 7.66602-26.416 9.13086-22.4121L11.1816-23.291C9.81445-27.002 9.08203-31.0547 9.08203-35.2539ZM79.0527-35.2539C79.0527-31.0547 78.2715-27.002 76.9531-23.291L79.0039-22.4121C80.4688-26.416 81.2988-30.7617 81.2988-35.2539C81.2988-39.7461 80.4688-44.043 79.0039-48.0469L77.002-47.168C78.3203-43.457 79.0527-39.4531 79.0527-35.2539ZM58.8379-3.56445L59.668-1.51367C67.627-5.22461 74.1211-11.6211 77.7832-19.5801L75.7812-20.4102C72.2656-13.0371 66.3086-7.03125 58.8379-3.56445ZM12.3535-20.4102L10.3516-19.5801C14.0625-11.6211 20.5078-5.22461 28.418-1.51367L29.248-3.56445C21.8262-7.03125 15.8203-13.0371 12.3535-20.4102ZM44.043-0.244141C39.8438-0.244141 35.8398-0.976562 32.1289-2.39258L31.25-0.292969C35.2539 1.12305 39.5996 1.95312 44.043 1.95312C48.5352 1.95312 52.832 1.17188 56.8359-0.292969L55.957-2.34375C52.2461-0.976562 48.1934-0.244141 44.043-0.244141Z"/>
  </g>
 </g>
</svg>
