<?xml version="1.0" encoding="UTF-8"?>
<!--Generator: Apple Native CoreSVG 149-->
<!DOCTYPE svg
PUBLIC "-//W3C//DTD SVG 1.1//EN"
       "http://www.w3.org/Graphics/SVG/1.1/DTD/svg11.dtd">
<svg version="1.1" xmlns="http://www.w3.org/2000/svg" xmlns:xlink="http://www.w3.org/1999/xlink" width="3300" height="2200">
 <!--glyph: "uni1008B0.medium", point size: 100.000000, font version: "Version 16.0d18e1", template writer version: "8"-->
 <g id="Notes">
  <rect height="2200" id="artboard" style="fill:white;opacity:1" width="3300" x="0" y="0"/>
  <line id="" style="fill:none;stroke:black;opacity:1;stroke-width:0.5;" x1="263" x2="3036" y1="292" y2="292"/>
  <text style="stroke:none;fill:black;font-family:-apple-system,&quot;SF Pro Display&quot;,&quot;SF Pro Text&quot;,Helvetica,sans-serif;font-weight:bold;" transform="matrix(1 0 0 1 263 322)">Weight/Scale Variations</text>
  <text style="stroke:none;fill:black;font-family:-apple-system,&quot;SF Pro Display&quot;,&quot;SF Pro Text&quot;,Helvetica,sans-serif;text-anchor:middle;" transform="matrix(1 0 0 1 559.711 322)">Ultralight</text>
  <text style="stroke:none;fill:black;font-family:-apple-system,&quot;SF Pro Display&quot;,&quot;SF Pro Text&quot;,Helvetica,sans-serif;text-anchor:middle;" transform="matrix(1 0 0 1 856.422 322)">Thin</text>
  <text style="stroke:none;fill:black;font-family:-apple-system,&quot;SF Pro Display&quot;,&quot;SF Pro Text&quot;,Helvetica,sans-serif;text-anchor:middle;" transform="matrix(1 0 0 1 1153.13 322)">Light</text>
  <text style="stroke:none;fill:black;font-family:-apple-system,&quot;SF Pro Display&quot;,&quot;SF Pro Text&quot;,Helvetica,sans-serif;text-anchor:middle;" transform="matrix(1 0 0 1 1449.84 322)">Regular</text>
  <text style="stroke:none;fill:black;font-family:-apple-system,&quot;SF Pro Display&quot;,&quot;SF Pro Text&quot;,Helvetica,sans-serif;text-anchor:middle;" transform="matrix(1 0 0 1 1746.56 322)">Medium</text>
  <text style="stroke:none;fill:black;font-family:-apple-system,&quot;SF Pro Display&quot;,&quot;SF Pro Text&quot;,Helvetica,sans-serif;text-anchor:middle;" transform="matrix(1 0 0 1 2043.27 322)">Semibold</text>
  <text style="stroke:none;fill:black;font-family:-apple-system,&quot;SF Pro Display&quot;,&quot;SF Pro Text&quot;,Helvetica,sans-serif;text-anchor:middle;" transform="matrix(1 0 0 1 2339.98 322)">Bold</text>
  <text style="stroke:none;fill:black;font-family:-apple-system,&quot;SF Pro Display&quot;,&quot;SF Pro Text&quot;,Helvetica,sans-serif;text-anchor:middle;" transform="matrix(1 0 0 1 2636.69 322)">Heavy</text>
  <text style="stroke:none;fill:black;font-family:-apple-system,&quot;SF Pro Display&quot;,&quot;SF Pro Text&quot;,Helvetica,sans-serif;text-anchor:middle;" transform="matrix(1 0 0 1 2933.4 322)">Black</text>
  <line id="" style="fill:none;stroke:black;opacity:1;stroke-width:0.5;" x1="263" x2="3036" y1="1903" y2="1903"/>
  <g id="" transform="matrix(1 0 0 1 263 1933)">
   <path d="M9.24805 0.830078C13.5547 0.830078 17.1387-2.74414 17.1387-7.05078C17.1387-11.3574 13.5449-14.9316 9.23828-14.9316C4.94141-14.9316 1.36719-11.3574 1.36719-7.05078C1.36719-2.74414 4.95117 0.830078 9.24805 0.830078ZM9.24805-0.654297C5.70312-0.654297 2.87109-3.49609 2.87109-7.05078C2.87109-10.6055 5.69336-13.4473 9.23828-13.4473C12.793-13.4473 15.6348-10.6055 15.6445-7.05078C15.6543-3.49609 12.8027-0.654297 9.24805-0.654297ZM6.39648-6.31836L8.50586-6.31836L8.50586-4.19922C8.50586-3.75977 8.79883-3.45703 9.22852-3.45703C9.67773-3.45703 9.9707-3.75977 9.9707-4.19922L9.9707-6.31836L12.0996-6.31836C12.5391-6.31836 12.8418-6.61133 12.8418-7.04102C12.8418-7.48047 12.5391-7.7832 12.0996-7.7832L9.9707-7.7832L9.9707-9.89258C9.9707-10.3418 9.67773-10.6445 9.22852-10.6445C8.79883-10.6445 8.50586-10.3418 8.50586-9.89258L8.50586-7.7832L6.39648-7.7832C5.94727-7.7832 5.64453-7.48047 5.64453-7.04102C5.64453-6.61133 5.94727-6.31836 6.39648-6.31836Z"/>
  </g>
  <g id="" transform="matrix(1 0 0 1 281.506 1933)">
   <path d="M11.709 2.91016C17.1582 2.91016 21.6699-1.61133 21.6699-7.05078C21.6699-12.5 17.1484-17.0117 11.6992-17.0117C6.25977-17.0117 1.74805-12.5 1.74805-7.05078C1.74805-1.61133 6.26953 2.91016 11.709 2.91016ZM11.709 1.25C7.09961 1.25 3.41797-2.44141 3.41797-7.05078C3.41797-11.6602 7.08984-15.3516 11.6992-15.3516C16.3086-15.3516 20-11.6602 20.0098-7.05078C20.0195-2.44141 16.3184 1.25 11.709 1.25ZM7.98828-6.23047L10.8789-6.23047L10.8789-3.32031C10.8789-2.83203 11.2109-2.5 11.6895-2.5C12.1777-2.5 12.5195-2.83203 12.5195-3.32031L12.5195-6.23047L15.4297-6.23047C15.918-6.23047 16.25-6.5625 16.25-7.04102C16.25-7.5293 15.918-7.87109 15.4297-7.87109L12.5195-7.87109L12.5195-10.7617C12.5195-11.2695 12.1777-11.6016 11.6895-11.6016C11.2109-11.6016 10.8789-11.2598 10.8789-10.7617L10.8789-7.87109L7.98828-7.87109C7.48047-7.87109 7.14844-7.5293 7.14844-7.04102C7.14844-6.5625 7.49023-6.23047 7.98828-6.23047Z"/>
  </g>
  <g id="" transform="matrix(1 0 0 1 304.924 1933)">
   <path d="M14.9707 5.66406C21.9336 5.66406 27.6953-0.0976562 27.6953-7.05078C27.6953-14.0137 21.9238-19.7754 14.9609-19.7754C8.00781-19.7754 2.25586-14.0137 2.25586-7.05078C2.25586-0.0976562 8.01758 5.66406 14.9707 5.66406ZM14.9707 3.84766C8.93555 3.84766 4.08203-1.01562 4.08203-7.05078C4.08203-13.0957 8.92578-17.9492 14.9609-17.9492C21.0059-17.9492 25.8594-13.0957 25.8691-7.05078C25.8789-1.01562 21.0156 3.84766 14.9707 3.84766ZM10.0586-6.14258L14.0625-6.14258L14.0625-2.12891C14.0625-1.5918 14.4336-1.2207 14.9512-1.2207C15.4883-1.2207 15.8594-1.5918 15.8594-2.12891L15.8594-6.14258L19.8828-6.14258C20.4102-6.14258 20.791-6.51367 20.791-7.03125C20.791-7.56836 20.4199-7.94922 19.8828-7.94922L15.8594-7.94922L15.8594-11.9531C15.8594-12.5098 15.4883-12.8809 14.9512-12.8809C14.4336-12.8809 14.0625-12.5 14.0625-11.9531L14.0625-7.94922L10.0586-7.94922C9.50195-7.94922 9.13086-7.56836 9.13086-7.03125C9.13086-6.51367 9.51172-6.14258 10.0586-6.14258Z"/>
  </g>
  <text style="stroke:none;fill:black;font-family:-apple-system,&quot;SF Pro Display&quot;,&quot;SF Pro Text&quot;,Helvetica,sans-serif;font-weight:bold;" transform="matrix(1 0 0 1 263 1953)">Design Variations</text>
  <text style="stroke:none;fill:black;font-family:-apple-system,&quot;SF Pro Display&quot;,&quot;SF Pro Text&quot;,Helvetica,sans-serif;" transform="matrix(1 0 0 1 263 1971)">Symbols are supported in up to nine weights and three scales.</text>
  <text style="stroke:none;fill:black;font-family:-apple-system,&quot;SF Pro Display&quot;,&quot;SF Pro Text&quot;,Helvetica,sans-serif;" transform="matrix(1 0 0 1 263 1989)">For optimal layout with text and other symbols, vertically align</text>
  <text style="stroke:none;fill:black;font-family:-apple-system,&quot;SF Pro Display&quot;,&quot;SF Pro Text&quot;,Helvetica,sans-serif;" transform="matrix(1 0 0 1 263 2007)">symbols with the adjacent text.</text>
  <line id="" style="fill:none;stroke:#00AEEF;stroke-width:0.5;opacity:1.0;" x1="776" x2="776" y1="1919" y2="1933"/>
  <g id="" transform="matrix(1 0 0 1 776 1933)">
   <path d="M3.31055 0.126953C3.82812 0.126953 4.08203-0.0683594 4.26758-0.605469L5.52734-4.0625L11.2891-4.0625L12.5488-0.605469C12.7344-0.0683594 12.9883 0.126953 13.4961 0.126953C14.0137 0.126953 14.3457-0.185547 14.3457-0.673828C14.3457-0.839844 14.3164-0.986328 14.2383-1.20117L9.6582-13.3887C9.43359-13.9941 9.0332-14.2871 8.4082-14.2871C7.80273-14.2871 7.39258-13.9941 7.17773-13.3984L2.59766-1.19141C2.51953-0.976562 2.49023-0.830078 2.49023-0.664062C2.49023-0.175781 2.80273 0.126953 3.31055 0.126953ZM6.00586-5.53711L8.37891-12.1094L8.42773-12.1094L10.8008-5.53711Z"/>
  </g>
  <line id="" style="fill:none;stroke:#00AEEF;stroke-width:0.5;opacity:1.0;" x1="792.836" x2="792.836" y1="1919" y2="1933"/>
  <text style="stroke:none;fill:black;font-family:-apple-system,&quot;SF Pro Display&quot;,&quot;SF Pro Text&quot;,Helvetica,sans-serif;font-weight:bold;" transform="matrix(1 0 0 1 776 1953)">Margins</text>
  <text style="stroke:none;fill:black;font-family:-apple-system,&quot;SF Pro Display&quot;,&quot;SF Pro Text&quot;,Helvetica,sans-serif;" transform="matrix(1 0 0 1 776 1971)">Leading and trailing margins on the left and right side of each symbol</text>
  <text style="stroke:none;fill:black;font-family:-apple-system,&quot;SF Pro Display&quot;,&quot;SF Pro Text&quot;,Helvetica,sans-serif;" transform="matrix(1 0 0 1 776 1989)">can be adjusted by modifying the x-location of the margin guidelines.</text>
  <text style="stroke:none;fill:black;font-family:-apple-system,&quot;SF Pro Display&quot;,&quot;SF Pro Text&quot;,Helvetica,sans-serif;" transform="matrix(1 0 0 1 776 2007)">Modifications are automatically applied proportionally to all</text>
  <text style="stroke:none;fill:black;font-family:-apple-system,&quot;SF Pro Display&quot;,&quot;SF Pro Text&quot;,Helvetica,sans-serif;" transform="matrix(1 0 0 1 776 2025)">scales and weights.</text>
  <g id="" transform="matrix(1 0 0 1 1289 1933)">
   <path d="M2.8418 1.86523L4.54102 3.57422C5.40039 4.44336 6.38672 4.38477 7.31445 3.35938L17.4902-7.85156C17.7539-7.76367 18.0273-7.7832 18.3398-7.8418L19.4043-8.03711L20.0684-7.36328L20.0293-6.80664C19.9902-6.30859 20.1172-5.92773 20.6055-5.44922L21.3672-4.70703C21.8457-4.22852 22.4609-4.19922 22.9297-4.66797L25.8398-7.58789C26.3086-8.05664 26.2891-8.65234 25.8105-9.13086L25.0391-9.89258C24.5605-10.3711 24.1895-10.5273 23.7109-10.4883L23.1348-10.4395L22.4902-11.0742L22.7344-12.1973C22.8613-12.7637 22.7051-13.2031 22.1191-13.7891L19.9219-15.9766C16.582-19.2969 12.1484-19.2188 9.25781-16.3281C8.83789-15.918 8.80859-15.3418 9.04297-14.9512C9.27734-14.5898 9.73633-14.3555 10.3809-14.5215C11.8457-14.8633 13.3691-14.9219 14.7949-13.9844L14.209-12.5293C14.0137-12.0508 13.9844-11.6504 14.1113-11.2891L3.04688-0.898438C2.06055 0.0195312 1.98242 0.996094 2.8418 1.86523ZM10.752-15.957C13.1836-17.7344 16.4746-17.4316 18.7012-15.2051L21.1328-12.793C21.3672-12.5586 21.4062-12.373 21.3379-12.0312L21.0156-10.5469L22.5195-9.0625L23.5059-9.12109C23.7598-9.13086 23.8379-9.11133 24.0332-8.91602L24.6094-8.33984L22.168-5.89844L21.5918-6.47461C21.3965-6.66992 21.3672-6.74805 21.377-7.01172L21.4453-7.98828L19.9512-9.47266L18.4277-9.21875C18.1055-9.15039 17.959-9.17969 17.7148-9.41406L15.7129-11.416C15.459-11.6504 15.4297-11.8164 15.5859-12.1875L16.4648-14.2773C14.9023-15.7324 12.8711-16.3574 10.8398-15.7617C10.6836-15.7227 10.625-15.8496 10.752-15.957ZM5.27344 2.30469L4.10156 1.14258C3.63281 0.683594 3.74023 0.341797 4.14062-0.0195312L14.9512-10.1953L16.416-8.71094L6.42578 2.27539C6.07422 2.67578 5.74219 2.77344 5.27344 2.30469Z"/>
  </g>
  <text style="stroke:none;fill:black;font-family:-apple-system,&quot;SF Pro Display&quot;,&quot;SF Pro Text&quot;,Helvetica,sans-serif;font-weight:bold;" transform="matrix(1 0 0 1 1289 1953)">Exporting</text>
  <text style="stroke:none;fill:black;font-family:-apple-system,&quot;SF Pro Display&quot;,&quot;SF Pro Text&quot;,Helvetica,sans-serif;" transform="matrix(1 0 0 1 1289 1971)">Symbols should be outlined when exporting to ensure the</text>
  <text style="stroke:none;fill:black;font-family:-apple-system,&quot;SF Pro Display&quot;,&quot;SF Pro Text&quot;,Helvetica,sans-serif;" transform="matrix(1 0 0 1 1289 1989)">design is preserved when submitting to Xcode.</text>
  <text id="template-version" style="stroke:none;fill:black;font-family:-apple-system,&quot;SF Pro Display&quot;,&quot;SF Pro Text&quot;,Helvetica,sans-serif;text-anchor:end;" transform="matrix(1 0 0 1 3036 1933)">Template v.2.0</text>
  <text style="stroke:none;fill:black;font-family:-apple-system,&quot;SF Pro Display&quot;,&quot;SF Pro Text&quot;,Helvetica,sans-serif;text-anchor:end;" transform="matrix(1 0 0 1 3036 1951)">Requires Xcode 12 or greater</text>
  <text style="stroke:none;fill:black;font-family:-apple-system,&quot;SF Pro Display&quot;,&quot;SF Pro Text&quot;,Helvetica,sans-serif;text-anchor:end;" transform="matrix(1 0 0 1 3036 1969)">Generated from camera.metering.unknown</text>
  <text style="stroke:none;fill:black;font-family:-apple-system,&quot;SF Pro Display&quot;,&quot;SF Pro Text&quot;,Helvetica,sans-serif;text-anchor:end;" transform="matrix(1 0 0 1 3036 1987)">Typeset at 100 points</text>
  <text style="stroke:none;fill:black;font-family:-apple-system,&quot;SF Pro Display&quot;,&quot;SF Pro Text&quot;,Helvetica,sans-serif;" transform="matrix(1 0 0 1 263 726)">Small</text>
  <text style="stroke:none;fill:black;font-family:-apple-system,&quot;SF Pro Display&quot;,&quot;SF Pro Text&quot;,Helvetica,sans-serif;" transform="matrix(1 0 0 1 263 1156)">Medium</text>
  <text style="stroke:none;fill:black;font-family:-apple-system,&quot;SF Pro Display&quot;,&quot;SF Pro Text&quot;,Helvetica,sans-serif;" transform="matrix(1 0 0 1 263 1586)">Large</text>
 </g>
 <g id="Guides">
  <g id="H-reference" style="fill:#27AAE1;stroke:none;" transform="matrix(1 0 0 1 339 696)">
   <path d="M0.976562 0L3.66211 0L12.9883-24.4629L45.752-24.4629L55.127 0L57.7637 0L30.6152-70.459L28.125-70.459ZM29.3457-67.1387L29.4434-67.1387L44.873-26.709L13.8672-26.709Z"/>
  </g>
  <line id="Baseline-S" style="fill:none;stroke:#27AAE1;opacity:1;stroke-width:0.5;" x1="263" x2="3036" y1="696" y2="696"/>
  <line id="Capline-S" style="fill:none;stroke:#27AAE1;opacity:1;stroke-width:0.5;" x1="263" x2="3036" y1="625.541" y2="625.541"/>
  <g id="H-reference" style="fill:#27AAE1;stroke:none;" transform="matrix(1 0 0 1 339 1126)">
   <path d="M0.976562 0L3.66211 0L12.9883-24.4629L45.752-24.4629L55.127 0L57.7637 0L30.6152-70.459L28.125-70.459ZM29.3457-67.1387L29.4434-67.1387L44.873-26.709L13.8672-26.709Z"/>
  </g>
  <line id="Baseline-M" style="fill:none;stroke:#27AAE1;opacity:1;stroke-width:0.5;" x1="263" x2="3036" y1="1126" y2="1126"/>
  <line id="Capline-M" style="fill:none;stroke:#27AAE1;opacity:1;stroke-width:0.5;" x1="263" x2="3036" y1="1055.54" y2="1055.54"/>
  <g id="H-reference" style="fill:#27AAE1;stroke:none;" transform="matrix(1 0 0 1 339 1556)">
   <path d="M0.976562 0L3.66211 0L12.9883-24.4629L45.752-24.4629L55.127 0L57.7637 0L30.6152-70.459L28.125-70.459ZM29.3457-67.1387L29.4434-67.1387L44.873-26.709L13.8672-26.709Z"/>
  </g>
  <line id="Baseline-L" style="fill:none;stroke:#27AAE1;opacity:1;stroke-width:0.5;" x1="263" x2="3036" y1="1556" y2="1556"/>
  <line id="Capline-L" style="fill:none;stroke:#27AAE1;opacity:1;stroke-width:0.5;" x1="263" x2="3036" y1="1485.54" y2="1485.54"/>
  <line id="left-margin" style="fill:none;stroke:#00AEEF;stroke-width:0.5;opacity:1.0;" x1="1379.82" x2="1379.82" y1="1030.79" y2="1150.12"/>
  <line id="right-margin" style="fill:none;stroke:#00AEEF;stroke-width:0.5;opacity:1.0;" x1="1519.86" x2="1519.86" y1="1030.79" y2="1150.12"/>
 </g>
 <g id="Symbols">
  <g id="Black-L" transform="matrix(1 0 0 1 2841.51 1556)">
   <path d="M147.461-40.8691L167.725-40.8691L167.725-73.0957C167.725-88.2812 159.082-96.875 143.799-96.875L97.6074-96.875L97.6074-76.6602L141.064-76.6602C145.312-76.6602 147.461-74.7559 147.461-70.2148ZM16.0645-40.8691L36.3281-40.8691L36.3281-70.2148C36.3281-74.7559 38.4766-76.6602 42.6758-76.6602L86.1816-76.6602L86.1816-96.875L39.9902-96.875C24.7559-96.875 16.0645-88.2812 16.0645-73.0957ZM90.1367-24.2188C94.6777-24.2188 97.998-26.416 98.6816-29.3457C98.7305-29.541 98.8281-29.834 98.877-29.9805C99.6094-32.373 102.441-34.2773 105.518-36.1816C112.109-40.2832 115.088-43.75 115.088-50.4395C115.088-61.1816 105.078-68.3105 92.2852-68.3105C81.4941-68.3105 73.4375-64.1113 70.7031-57.9102C70.1172-56.5918 69.8242-55.3711 69.8242-53.9551C69.8242-50.1465 72.7539-46.9727 78.125-46.9727C82.3242-46.9727 84.0332-48.9258 85.6934-50.5371C87.793-52.4902 89.2578-53.2715 91.2109-53.2715C93.75-53.2715 95.459-51.7578 95.459-49.3652C95.459-46.7285 92.8223-44.8242 88.0859-41.6016C83.7891-38.623 80.8105-35.7422 80.8105-31.4941L80.8105-31.2988C80.8105-26.6602 84.1309-24.2188 90.1367-24.2188ZM39.9902 26.5137L86.1816 26.5137L86.1816 6.29883L42.6758 6.29883C38.4766 6.29883 36.3281 4.39453 36.3281-0.146484L36.3281-29.4922L16.0645-29.4922L16.0645 2.68555C16.0645 17.8711 24.7559 26.5137 39.9902 26.5137ZM97.6074 26.5137L143.799 26.5137C159.082 26.5137 167.725 17.8711 167.725 2.68555L167.725-29.4922L147.461-29.4922L147.461-0.146484C147.461 4.39453 145.312 6.29883 141.064 6.29883L97.6074 6.29883ZM90.1855-3.07617C95.6055-3.07617 99.6094-6.20117 99.6094-11.377C99.6094-16.4551 95.6055-19.6777 90.1855-19.6777C84.7168-19.6777 80.6152-16.5039 80.6152-11.377C80.6152-6.25 84.7656-3.07617 90.1855-3.07617Z"/>
  </g>
  <g id="Heavy-L" transform="matrix(1 0 0 1 2545.23 1556)">
   <path d="M149.316-40.4785L166.846-40.4785L166.846-73.2422C166.846-87.793 158.74-95.8496 144.092-95.8496L96.7285-95.8496L96.7285-78.3691L141.943-78.3691C146.777-78.3691 149.316-76.0742 149.316-70.9473ZM16.0645-40.4785L33.5938-40.4785L33.5938-70.9473C33.5938-76.0742 36.084-78.3691 40.918-78.3691L86.1816-78.3691L86.1816-95.8496L38.8184-95.8496C24.2188-95.8496 16.0645-87.793 16.0645-73.2422ZM89.8438-23.7793C93.9453-23.7793 96.875-25.8301 97.4121-28.6133C97.4609-28.8574 97.4609-29.1504 97.5098-29.3457C98.0957-32.0312 100.732-34.0332 104.15-36.2305C110.645-40.332 113.867-43.8477 113.867-50.6348C113.867-61.1328 104.15-67.9199 91.8945-67.9199C81.1523-67.9199 73.3887-63.4766 70.8984-57.3242C70.4102-56.1035 70.1172-54.9316 70.1172-53.6133C70.1172-50.0977 72.8516-47.3633 77.3926-47.3633C81.2988-47.3633 82.7637-49.2676 84.4238-50.9766C86.4258-53.4668 88.3301-54.7363 90.9668-54.7363C94.4336-54.7363 96.6309-52.7344 96.6309-49.707C96.6309-46.6797 94.043-44.7266 89.1113-41.3086C84.668-38.2812 81.6895-35.2539 81.6895-30.6152L81.6895-30.1758C81.6895-25.9766 84.6191-23.7793 89.8438-23.7793ZM38.8184 25.4883L86.1816 25.4883L86.1816 8.00781L40.918 8.00781C36.084 8.00781 33.5938 5.71289 33.5938 0.585938L33.5938-29.8828L16.0645-29.8828L16.0645 2.88086C16.0645 17.4316 24.2188 25.4883 38.8184 25.4883ZM96.7285 25.4883L144.092 25.4883C158.74 25.4883 166.846 17.4316 166.846 2.88086L166.846-29.8828L149.316-29.8828L149.316 0.585938C149.316 5.71289 146.777 8.00781 141.943 8.00781L96.7285 8.00781ZM89.8438-3.32031C94.7754-3.32031 98.4863-6.34766 98.4863-11.084C98.4863-15.7715 94.7754-18.7988 89.8438-18.7988C84.8633-18.7988 81.0547-15.7715 81.0547-11.084C81.0547-6.39648 84.9121-3.32031 89.8438-3.32031Z"/>
  </g>
  <g id="Bold-L" transform="matrix(1 0 0 1 2249.01 1556)">
   <path d="M151.416-39.9902L165.869-39.9902L165.869-73.3887C165.869-87.207 158.35-94.7266 144.385-94.7266L95.752-94.7266L95.752-80.2734L142.969-80.2734C148.389-80.2734 151.416-77.5391 151.416-71.7285ZM16.0645-39.9902L30.5176-39.9902L30.5176-71.7285C30.5176-77.5391 33.4473-80.2734 38.9648-80.2734L86.1816-80.2734L86.1816-94.7266L37.5-94.7266C23.6328-94.7266 16.0645-87.2559 16.0645-73.3887ZM89.502-23.291C93.1152-23.291 95.6055-25.2441 95.9473-27.7832C95.9473-28.0762 95.9961-28.418 96.0449-28.6621C96.3867-31.6895 98.8281-33.7891 102.637-36.2793C109.033-40.3809 112.451-43.9453 112.451-50.8789C112.451-61.1328 103.125-67.5293 91.4551-67.5293C80.8105-67.5293 73.3398-62.793 71.1914-56.6895C70.752-55.5664 70.5078-54.4434 70.5078-53.2227C70.5078-50.0977 72.9492-47.8516 76.5625-47.8516C80.1758-47.8516 81.2988-49.6582 82.959-51.5137C84.8633-54.541 87.3047-56.2988 90.7227-56.2988C95.166-56.2988 97.998-53.8086 97.998-50.0977C97.998-46.6309 95.4102-44.5801 90.1855-40.9668C85.6934-37.8418 82.666-34.7168 82.666-29.6387L82.666-28.9551C82.666-25.2441 85.1074-23.291 89.502-23.291ZM37.5 24.3652L86.1816 24.3652L86.1816 9.91211L38.9648 9.91211C33.4473 9.91211 30.5176 7.17773 30.5176 1.41602L30.5176-30.3711L16.0645-30.3711L16.0645 3.07617C16.0645 16.8945 23.6328 24.3652 37.5 24.3652ZM95.752 24.3652L144.385 24.3652C158.35 24.3652 165.869 16.8945 165.869 3.07617L165.869-30.3711L151.416-30.3711L151.416 1.41602C151.416 7.17773 148.389 9.91211 142.969 9.91211L95.752 9.91211ZM89.4531-3.56445C93.8477-3.56445 97.2656-6.49414 97.2656-10.7422C97.2656-14.9414 93.8477-17.8711 89.4531-17.8711C85.0098-17.8711 81.5918-14.9414 81.5918-10.7422C81.5918-6.54297 85.0586-3.56445 89.4531-3.56445Z"/>
  </g>
  <g id="Semibold-L" transform="matrix(1 0 0 1 1952.64 1556)">
   <path d="M152.832-39.6484L165.186-39.6484L165.186-73.5352C165.186-86.8164 158.057-93.9453 144.629-93.9453L95.0684-93.9453L95.0684-81.5918L143.652-81.5918C149.512-81.5918 152.832-78.5156 152.832-72.3145ZM16.0645-39.6484L28.418-39.6484L28.418-72.3145C28.418-78.5156 31.6406-81.5918 37.5977-81.5918L86.1328-81.5918L86.1328-93.9453L36.6211-93.9453C23.1934-93.9453 16.0645-86.8652 16.0645-73.5352ZM89.2578-22.9492C92.5293-22.9492 94.7266-24.8047 94.9219-27.2461C94.9707-27.5391 94.9707-27.8809 94.9707-28.1738C95.2148-31.4453 97.4609-33.5938 101.562-36.2793C107.91-40.4297 111.523-44.043 111.523-51.0254C111.523-61.1328 102.393-67.2363 91.1621-67.2363C80.5176-67.2363 73.291-62.3047 71.3867-56.25C70.9961-55.1758 70.752-54.1016 70.752-52.9785C70.752-50.0977 72.998-48.1934 75.9766-48.1934C79.3945-48.1934 80.3223-49.9023 81.9824-51.8555C83.7891-55.2734 86.5723-57.4219 90.5762-57.4219C95.6543-57.4219 98.9258-54.541 98.9258-50.3418C98.9258-46.582 96.3379-44.4824 90.9668-40.7227C86.377-37.5488 83.3496-34.375 83.3496-29.0039L83.3496-28.125C83.3496-24.707 85.498-22.9492 89.2578-22.9492ZM36.6211 23.584L86.1328 23.584L86.1328 11.2793L37.5977 11.2793C31.6406 11.2793 28.418 8.20312 28.418 1.95312L28.418-30.7129L16.0645-30.7129L16.0645 3.17383C16.0645 16.5527 23.1934 23.584 36.6211 23.584ZM95.0684 23.584L144.629 23.584C158.057 23.584 165.186 16.5039 165.186 3.17383L165.186-30.7129L152.832-30.7129L152.832 1.95312C152.832 8.20312 149.512 11.2793 143.652 11.2793L95.0684 11.2793ZM89.1602-3.75977C93.1641-3.75977 96.3867-6.5918 96.3867-10.498C96.3867-14.4043 93.2129-17.2363 89.1602-17.2363C85.1562-17.2363 81.9336-14.3555 81.9336-10.498C81.9336-6.64062 85.2051-3.75977 89.1602-3.75977Z"/>
  </g>
  <g id="Medium-L" transform="matrix(1 0 0 1 1656.2 1556)">
   <path d="M153.906-39.4043L164.648-39.4043L164.648-73.6328C164.648-86.5234 157.861-93.3105 144.775-93.3105L94.5801-93.3105L94.5801-82.6172L144.141-82.6172C150.391-82.6172 153.906-79.2969 153.906-72.7051ZM16.0645-39.4043L26.8066-39.4043L26.8066-72.7051C26.8066-79.2969 30.2246-82.6172 36.5723-82.6172L86.1328-82.6172L86.1328-93.3105L35.9375-93.3105C22.9004-93.3105 16.0645-86.5723 16.0645-73.6328ZM89.1113-22.7051C92.1387-22.7051 94.043-24.5117 94.1895-26.8066C94.1895-27.1484 94.1895-27.4902 94.1895-27.832C94.3359-31.25 96.4844-33.4473 100.781-36.2793C107.08-40.4297 110.791-44.0918 110.791-51.123C110.791-61.084 101.807-66.9922 90.9668-66.9922C80.3711-66.9922 73.2422-61.9141 71.4844-55.9082C71.1914-54.8828 70.9473-53.8574 70.9473-52.7832C70.9473-50.0977 73.0469-48.4375 75.5371-48.4375C78.8086-48.4375 79.5898-50.0977 81.2012-52.0996C83.0078-55.8105 86.0352-58.252 90.4785-58.252C96.0449-58.252 99.6094-55.127 99.6094-50.5859C99.6094-46.582 97.0703-44.3848 91.5527-40.5762C86.9141-37.3535 83.8867-34.082 83.8867-28.5156L83.8867-27.4902C83.8867-24.3164 85.7422-22.7051 89.1113-22.7051ZM35.9375 22.998L86.1328 22.998L86.1328 12.2559L36.5723 12.2559C30.2246 12.2559 26.8066 8.98438 26.8066 2.39258L26.8066-30.957L16.0645-30.957L16.0645 3.27148C16.0645 16.2598 22.9004 22.998 35.9375 22.998ZM94.5801 22.998L144.775 22.998C157.861 22.998 164.648 16.2109 164.648 3.27148L164.648-30.957L153.906-30.957L153.906 2.39258C153.906 8.98438 150.391 12.2559 144.141 12.2559L94.5801 12.2559ZM88.9648-3.90625C92.6758-3.90625 95.752-6.64062 95.752-10.3027C95.752-13.9648 92.7246-16.6992 88.9648-16.6992C85.2051-16.6992 82.1777-13.9648 82.1777-10.3027C82.1777-6.68945 85.2539-3.90625 88.9648-3.90625Z"/>
  </g>
  <g id="Regular-L" transform="matrix(1 0 0 1 1359.81 1556)">
   <path d="M155.322-39.0625L164.014-39.0625L164.014-73.7305C164.014-86.1816 157.617-92.5293 144.971-92.5293L93.9453-92.5293L93.9453-83.8867L144.824-83.8867C151.514-83.8867 155.322-80.2734 155.322-73.291ZM16.0645-39.0625L24.707-39.0625L24.707-73.291C24.707-80.2734 28.418-83.8867 35.2539-83.8867L86.1328-83.8867L86.1328-92.5293L35.0586-92.5293C22.4609-92.5293 16.0645-86.2305 16.0645-73.7305ZM88.8672-22.3633C91.5527-22.3633 93.1641-24.0723 93.1641-26.2695L93.1641-27.3438C93.1641-31.0059 95.166-33.252 99.707-36.3281C105.957-40.4785 109.863-44.1406 109.863-51.2695C109.863-61.084 101.123-66.6992 90.6738-66.6992C80.0781-66.6992 73.1934-61.4258 71.6797-55.4688C71.3867-54.4922 71.2402-53.5156 71.2402-52.4902C71.2402-50.0977 73.1445-48.7305 75-48.7305C78.0273-48.7305 78.6133-50.3906 80.2246-52.4414C81.9336-56.543 85.3516-59.3262 90.2832-59.3262C96.5332-59.3262 100.537-55.8594 100.537-50.8301C100.537-46.5332 97.998-44.2871 92.334-40.332C87.5977-37.0605 84.5703-33.7402 84.5703-27.832L84.5703-26.6602C84.5703-23.8281 86.1328-22.3633 88.8672-22.3633ZM35.0586 22.2168L86.1328 22.2168L86.1328 13.5742L35.2539 13.5742C28.418 13.5742 24.707 9.96094 24.707 2.97852L24.707-31.25L16.0645-31.25L16.0645 3.41797C16.0645 15.918 22.4609 22.2168 35.0586 22.2168ZM93.9453 22.2168L144.971 22.2168C157.617 22.2168 164.014 15.8691 164.014 3.41797L164.014-31.25L155.322-31.25L155.322 2.97852C155.322 9.96094 151.514 13.5742 144.824 13.5742L93.9453 13.5742ZM88.7207-4.05273C92.041-4.05273 94.9219-6.73828 94.9219-10.0586C94.9219-13.4277 92.0898-16.0645 88.7207-16.0645C85.3516-16.0645 82.5195-13.3789 82.5195-10.0586C82.5195-6.78711 85.4004-4.05273 88.7207-4.05273Z"/>
  </g>
  <g id="Light-L" transform="matrix(1 0 0 1 1063.56 1556)">
   <path d="M156.494-38.4766L163.086-38.4766L163.086-73.8281C163.086-85.5469 157.031-91.6992 145.117-91.6992L92.9199-91.6992L92.9199-85.0586L144.971-85.0586C152.295-85.0586 156.494-81.1523 156.494-73.4863ZM16.0645-38.4766L22.7051-38.4766L22.7051-73.4863C22.7051-81.1523 26.709-85.0586 34.1797-85.0586L86.2305-85.0586L86.2305-91.6992L34.0332-91.6992C22.168-91.6992 16.0645-85.6445 16.0645-73.8281ZM88.4766-22.5098C90.5273-22.5098 91.7969-23.877 91.7969-25.6348L91.7969-27.1973C91.7969-31.0059 93.6523-33.3496 98.4375-36.5723C104.834-40.8691 108.154-44.5801 108.154-51.123C108.154-60.0098 100.195-65.6738 90.0391-65.6738C79.834-65.6738 73.2422-60.1562 72.0215-53.9062C71.8262-53.0273 71.6797-52.1484 71.6797-51.2207C71.6797-49.3164 73.1445-48.2422 74.6582-48.2422C76.9531-48.2422 77.5879-49.5117 78.6133-51.2207C79.8828-56.1523 83.7891-59.8633 89.7461-59.8633C96.6309-59.8633 101.025-56.1035 101.025-50.7324C101.025-46.4355 98.6328-43.9453 92.7246-39.8438C87.793-36.377 85.1562-33.1055 85.1562-27.5879L85.1562-25.8789C85.1562-23.7305 86.377-22.5098 88.4766-22.5098ZM34.0332 21.4355L86.2305 21.4355L86.2305 14.7949L34.1797 14.7949C26.709 14.7949 22.7051 10.8398 22.7051 3.22266L22.7051-31.7871L16.0645-31.7871L16.0645 3.56445C16.0645 15.3809 22.168 21.4355 34.0332 21.4355ZM92.9199 21.4355L145.117 21.4355C157.031 21.4355 163.086 15.2344 163.086 3.56445L163.086-31.7871L156.494-31.7871L156.494 3.22266C156.494 10.8398 152.295 14.7949 144.971 14.7949L92.9199 14.7949ZM88.3789-4.93164C91.3086-4.93164 93.75-7.32422 93.75-10.2051C93.75-13.1348 91.3086-15.4785 88.3789-15.4785C85.4004-15.4785 82.959-13.0859 82.959-10.2051C82.959-7.37305 85.4004-4.93164 88.3789-4.93164Z"/>
  </g>
  <g id="Thin-L" transform="matrix(1 0 0 1 767.433 1556)">
   <path d="M158.008-37.7441L161.914-37.7441L161.914-73.9746C161.914-84.7168 156.201-90.5762 145.312-90.5762L91.6016-90.5762L91.6016-86.6699L145.166-86.6699C153.32-86.6699 158.008-82.2754 158.008-73.7793ZM16.0645-37.7441L19.9707-37.7441L19.9707-73.7793C19.9707-82.2754 24.4141-86.6699 32.8125-86.6699L86.377-86.6699L86.377-90.5762L32.666-90.5762C21.7773-90.5762 16.0645-84.8633 16.0645-73.9746ZM87.9395-22.7539C89.1602-22.7539 89.9414-23.584 89.9414-24.8047L89.9414-26.9531C89.9414-31.0059 91.6504-33.3984 96.7285-36.8652C103.32-41.4062 105.859-45.1172 105.859-50.9277C105.859-58.6426 98.9258-64.2578 89.2578-64.2578C79.541-64.2578 73.3398-58.4961 72.5098-51.9043C72.4121-51.123 72.3145-50.3906 72.3145-49.5605C72.3145-48.3398 73.1934-47.6074 74.2676-47.6074C75.5859-47.6074 76.2207-48.3398 76.4648-49.5605C77.1484-55.6152 81.6895-60.5957 89.0625-60.5957C96.7773-60.5957 101.66-56.3965 101.66-50.6348C101.66-46.3379 99.5117-43.5059 93.3105-39.209C87.9883-35.498 85.9375-32.2754 85.9375-27.2461L85.9375-24.8535C85.9375-23.584 86.7676-22.7539 87.9395-22.7539ZM32.666 20.3613L86.377 20.3613L86.377 16.4062L32.8125 16.4062C24.4141 16.4062 19.9707 12.0117 19.9707 3.56445L19.9707-32.5195L16.0645-32.5195L16.0645 3.75977C16.0645 14.6484 21.7773 20.3613 32.666 20.3613ZM91.6016 20.3613L145.312 20.3613C156.201 20.3613 161.914 14.4531 161.914 3.75977L161.914-32.5195L158.008-32.5195L158.008 3.56445C158.008 12.0117 153.32 16.4062 145.166 16.4062L91.6016 16.4062ZM87.8906-6.10352C90.2832-6.10352 92.1875-8.10547 92.1875-10.3516C92.1875-12.6953 90.2832-14.6484 87.8906-14.6484C85.4492-14.6484 83.5449-12.6953 83.5449-10.3516C83.5449-8.10547 85.4492-6.10352 87.8906-6.10352Z"/>
  </g>
  <g id="Ultralight-L" transform="matrix(1 0 0 1 471.015 1556)">
   <path d="M158.789-37.3535L161.328-37.3535L161.328-74.0723C161.328-84.2773 155.811-89.9902 145.41-89.9902L90.918-89.9902L90.918-87.4512L145.264-87.4512C153.857-87.4512 158.789-82.8125 158.789-73.9258ZM16.0645-37.3535L18.6035-37.3535L18.6035-73.9258C18.6035-82.8125 23.1934-87.4512 32.1289-87.4512L86.4746-87.4512L86.4746-89.9902L31.9824-89.9902C21.582-89.9902 16.0645-84.4727 16.0645-74.0723ZM87.6953-22.8516C88.4277-22.8516 88.9648-23.4375 88.9648-24.3652L88.9648-26.8555C88.9648-31.0059 90.625-33.4473 95.8496-37.0605C102.588-41.6992 104.688-45.3613 104.688-50.8301C104.688-57.9102 98.291-63.5742 88.8184-63.5742C79.3945-63.5742 73.3398-57.6172 72.7539-50.8301C72.6562-50.1465 72.6074-49.4629 72.6074-48.6816C72.6074-47.8027 73.1934-47.2656 74.0234-47.2656C74.8535-47.2656 75.4883-47.7539 75.3906-48.6816C75.7324-55.3223 80.6152-60.9375 88.6719-60.9375C96.875-60.9375 101.953-56.5918 101.953-50.5859C101.953-46.2402 99.9512-43.2617 93.6035-38.916C88.1348-35.0586 86.3281-31.8359 86.3281-27.0508L86.3281-24.3164C86.3281-23.4863 86.9629-22.8516 87.6953-22.8516ZM31.9824 19.7754L86.4746 19.7754L86.4746 17.2363L32.1289 17.2363C23.1934 17.2363 18.6035 12.6465 18.6035 3.75977L18.6035-32.8613L16.0645-32.8613L16.0645 3.85742C16.0645 14.2578 21.582 19.7754 31.9824 19.7754ZM90.918 19.7754L145.41 19.7754C155.811 19.7754 161.328 14.0625 161.328 3.85742L161.328-32.8613L158.789-32.8613L158.789 3.75977C158.789 12.6465 153.857 17.2363 145.264 17.2363L90.918 17.2363ZM87.5977-6.68945C89.7461-6.68945 91.3574-8.54492 91.3574-10.4492C91.3574-12.5 89.7461-14.2578 87.5977-14.2578C85.498-14.2578 83.8379-12.5 83.8379-10.4492C83.8379-8.49609 85.498-6.68945 87.5977-6.68945Z"/>
  </g>
  <g id="Black-M" transform="matrix(1 0 0 1 2861.84 1126)">
   <path d="M112.402-39.8926L130.664-39.8926L130.664-64.4043C130.664-76.6602 123.389-83.9355 111.133-83.9355L76.2695-83.9355L76.2695-65.6738L108.203-65.6738C111.035-65.6738 112.402-64.5508 112.402-61.4746ZM12.4512-39.8926L30.7617-39.8926L30.7617-61.4746C30.7617-64.5508 32.0801-65.6738 34.9121-65.6738L66.8457-65.6738L66.8457-83.9355L31.9824-83.9355C19.7266-83.9355 12.4512-76.6602 12.4512-64.4043ZM70.0684-27.3926C73.8281-27.3926 76.709-29.0039 77.4902-31.3477C77.5391-31.4941 77.6367-31.7871 77.6855-31.8848C78.5156-33.4473 80.9082-34.8633 82.9102-36.084C88.2324-39.3066 89.9414-41.9434 89.9414-46.6797C89.9414-54.7852 82.2266-60.791 71.6797-60.791C63.4766-60.791 57.0312-57.7637 54.6387-52.7832C54.1504-51.709 53.9062-50.6836 53.9062-49.5117C53.9062-46.3867 56.25-43.457 61.377-43.457C64.6484-43.457 66.3086-44.9219 67.334-45.8008C68.7988-47.1191 69.5801-47.6074 70.6543-47.6074C71.875-47.6074 72.6074-46.875 72.6074-45.7031C72.6074-44.1895 70.6543-42.6758 67.1387-40.332C63.7695-38.0371 61.7676-35.8887 61.7676-33.3496L61.7676-33.252C61.7676-29.3945 64.6973-27.3926 70.0684-27.3926ZM31.9824 13.5742L66.8457 13.5742L66.8457-4.73633L34.9121-4.73633C32.0801-4.73633 30.7617-5.81055 30.7617-8.88672L30.7617-30.5176L12.4512-30.5176L12.4512-5.95703C12.4512 6.29883 19.7266 13.5742 31.9824 13.5742ZM76.2695 13.5742L111.133 13.5742C123.389 13.5742 130.664 6.29883 130.664-5.95703L130.664-30.5176L112.402-30.5176L112.402-8.88672C112.402-5.81055 111.035-4.73633 108.203-4.73633L76.2695-4.73633ZM70.1172-10.4492C74.8047-10.4492 78.0273-12.8906 78.0273-17.2363C78.0273-21.4844 74.8047-23.9746 70.1172-23.9746C65.4785-23.9746 62.1094-21.5332 62.1094-17.2363C62.1094-12.8906 65.4785-10.4492 70.1172-10.4492Z"/>
  </g>
  <g id="Heavy-M" transform="matrix(1 0 0 1 2565.5 1126)">
   <path d="M114.111-39.5508L129.932-39.5508L129.932-64.5508C129.932-76.2695 123.193-83.0566 111.426-83.0566L75.5859-83.0566L75.5859-67.2363L109.131-67.2363C112.451-67.2363 114.111-65.7715 114.111-62.207ZM12.4512-39.5508L28.2715-39.5508L28.2715-62.207C28.2715-65.7715 29.9316-67.2363 33.252-67.2363L66.8457-67.2363L66.8457-83.0566L31.0059-83.0566C19.2383-83.0566 12.4512-76.3184 12.4512-64.5508ZM69.8242-26.8555C73.291-26.8555 75.8301-28.4668 76.416-30.7129C76.4648-30.8594 76.5137-31.1035 76.5625-31.25C77.1973-33.0566 79.3945-34.5703 81.7871-36.0352C86.9629-39.2578 89.0137-41.9434 89.0137-46.9238C89.0137-55.0293 81.4453-60.6934 71.4355-60.6934C63.1836-60.6934 56.9336-57.4219 54.834-52.5391C54.3457-51.5137 54.1504-50.5859 54.1504-49.4629C54.1504-46.582 56.3477-44.0918 60.6445-44.0918C63.7695-44.0918 65.1367-45.5078 66.3086-46.6309C67.8223-48.2422 68.9941-49.0234 70.6055-49.0234C72.5586-49.0234 73.8281-47.8516 73.8281-46.0938C73.8281-44.1406 71.7773-42.627 68.1152-40.1367C64.7461-37.793 62.5488-35.5469 62.5488-32.4707L62.5488-32.2266C62.5488-28.7109 65.1367-26.8555 69.8242-26.8555ZM31.0059 12.6465L66.8457 12.6465L66.8457-3.17383L33.252-3.17383C29.9316-3.17383 28.2715-4.63867 28.2715-8.1543L28.2715-30.8105L12.4512-30.8105L12.4512-5.81055C12.4512 5.9082 19.2383 12.6465 31.0059 12.6465ZM75.5859 12.6465L111.426 12.6465C123.193 12.6465 129.932 5.9082 129.932-5.81055L129.932-30.8105L114.111-30.8105L114.111-8.1543C114.111-4.63867 112.451-3.17383 109.131-3.17383L75.5859-3.17383ZM69.873-10.498C74.0723-10.498 77.1484-12.8906 77.1484-16.8457C77.1484-20.8008 74.0723-23.1934 69.873-23.1934C65.625-23.1934 62.5-20.8496 62.5-16.8457C62.5-12.8906 65.625-10.498 69.873-10.498Z"/>
  </g>
  <g id="Bold-M" transform="matrix(1 0 0 1 2269.18 1126)">
   <path d="M116.064-39.209L129.15-39.209L129.15-64.6973C129.15-75.8789 122.949-82.0312 111.719-82.0312L74.8047-82.0312L74.8047-68.9453L110.205-68.9453C114.014-68.9453 116.064-67.1387 116.064-63.0371ZM12.4512-39.209L25.5371-39.209L25.5371-63.0371C25.5371-67.1387 27.5391-68.9453 31.3965-68.9453L66.7969-68.9453L66.7969-82.0312L29.8828-82.0312C18.6523-82.0312 12.4512-75.8789 12.4512-64.6973ZM69.5801-26.2695C72.7051-26.2695 74.8535-27.8809 75.2441-29.9805C75.293-30.1758 75.293-30.4199 75.3418-30.5664C75.7812-32.7148 77.7344-34.2773 80.4688-35.9863C85.498-39.209 88.0371-41.9434 88.0371-47.2168C88.0371-55.3223 80.5664-60.498 71.1426-60.498C62.8418-60.498 56.8848-57.0312 54.9805-52.2949C54.6387-51.3184 54.3945-50.4395 54.3945-49.4141C54.3945-46.7773 56.4453-44.7266 59.8633-44.7266C62.8418-44.7266 63.916-46.1914 65.1855-47.5586C66.748-49.5605 68.3105-50.5859 70.459-50.5859C73.291-50.5859 75.1465-48.9746 75.1465-46.5332C75.1465-44.0918 73.0957-42.5781 69.2383-39.8926C65.8203-37.5 63.4766-35.1562 63.4766-31.4941L63.4766-31.1035C63.4766-27.9297 65.625-26.2695 69.5801-26.2695ZM29.8828 11.6699L66.7969 11.6699L66.7969-1.41602L31.3965-1.41602C27.5391-1.41602 25.5371-3.27148 25.5371-7.32422L25.5371-31.1523L12.4512-31.1523L12.4512-5.66406C12.4512 5.51758 18.6523 11.6699 29.8828 11.6699ZM74.8047 11.6699L111.719 11.6699C122.949 11.6699 129.15 5.46875 129.15-5.66406L129.15-31.1523L116.064-31.1523L116.064-7.32422C116.064-3.27148 114.014-1.41602 110.205-1.41602L74.8047-1.41602ZM69.5312-10.5469C73.291-10.5469 76.123-12.8418 76.123-16.4551C76.123-20.0195 73.291-22.3633 69.5312-22.3633C65.8203-22.3633 62.8906-20.0195 62.8906-16.4551C62.8906-12.8906 65.8203-10.5469 69.5312-10.5469Z"/>
  </g>
  <g id="Semibold-M" transform="matrix(1 0 0 1 1972.76 1126)">
   <path d="M117.383-38.9648L128.564-38.9648L128.564-64.8438C128.564-75.5859 122.803-81.3477 111.914-81.3477L74.2676-81.3477L74.2676-70.166L110.889-70.166C115.088-70.166 117.383-68.0664 117.383-63.623ZM12.4512-38.9648L23.6328-38.9648L23.6328-63.623C23.6328-68.0664 25.8789-70.166 30.127-70.166L66.748-70.166L66.748-81.3477L29.1016-81.3477C18.2617-81.3477 12.4512-75.5859 12.4512-64.8438ZM69.3848-25.8789C72.2656-25.8789 74.1699-27.4414 74.4141-29.4922C74.4629-29.6875 74.4629-29.8828 74.5117-30.0781C74.7559-32.4219 76.6113-34.0332 79.5898-35.9863C84.4727-39.1602 87.3535-41.9434 87.3535-47.4121C87.3535-55.5176 79.9316-60.4004 70.9473-60.4004C62.5977-60.4004 56.7871-56.7383 55.127-52.0996C54.7852-51.2207 54.5898-50.3418 54.5898-49.4141C54.5898-46.9238 56.543-45.2148 59.2773-45.2148C62.207-45.2148 63.0371-46.6309 64.4043-48.1934C65.9668-50.4395 67.8223-51.709 70.4102-51.709C73.8281-51.709 76.0254-49.7559 76.0254-46.8262C76.0254-44.0918 74.0234-42.5293 69.9707-39.7461C66.5527-37.3535 64.1113-34.9121 64.1113-30.8105L64.1113-30.3711C64.1113-27.3926 65.9668-25.8789 69.3848-25.8789ZM29.1016 10.9863L66.748 10.9863L66.748-0.195312L30.127-0.195312C25.8789-0.195312 23.6328-2.34375 23.6328-6.78711L23.6328-31.4453L12.4512-31.4453L12.4512-5.56641C12.4512 5.22461 18.2617 10.9863 29.1016 10.9863ZM74.2676 10.9863L111.914 10.9863C122.803 10.9863 128.564 5.17578 128.564-5.56641L128.564-31.4453L117.383-31.4453L117.383-6.78711C117.383-2.34375 115.088-0.195312 110.889-0.195312L74.2676-0.195312ZM69.3359-10.5469C72.7539-10.5469 75.4395-12.8418 75.4395-16.1621C75.4395-19.4824 72.7539-21.7773 69.3359-21.7773C65.918-21.7773 63.1836-19.4336 63.1836-16.1621C63.1836-12.8906 65.918-10.5469 69.3359-10.5469Z"/>
  </g>
  <g id="Medium-M" transform="matrix(1 0 0 1 1676.24 1126)">
   <path d="M118.408-38.7695L128.174-38.7695L128.174-64.8926C128.174-75.3418 122.656-80.8105 112.061-80.8105L73.877-80.8105L73.877-71.0938L111.426-71.0938C115.918-71.0938 118.408-68.75 118.408-64.0137ZM12.4512-38.7695L22.168-38.7695L22.168-64.0137C22.168-68.75 24.6582-71.0938 29.1504-71.0938L66.6992-71.0938L66.6992-80.8105L28.5156-80.8105C17.9688-80.8105 12.4512-75.3906 12.4512-64.8926ZM69.2383-25.5859C71.9727-25.5859 73.6816-27.0996 73.8281-29.1016C73.8281-29.2969 73.8281-29.541 73.877-29.6875C74.0234-32.2266 75.7324-33.8867 78.9062-35.9375C83.7402-39.1113 86.8164-41.9434 86.8164-47.5586C86.8164-55.6641 79.4922-60.3516 70.8008-60.3516C62.4512-60.3516 56.7383-56.543 55.2246-51.9531C54.9316-51.123 54.7363-50.2441 54.7363-49.3652C54.7363-47.0215 56.5918-45.5566 58.8379-45.5566C61.7188-45.5566 62.3535-47.0215 63.8672-48.6816C65.4297-51.123 67.4805-52.5391 70.3613-52.5391C74.2188-52.5391 76.709-50.3418 76.709-47.0703C76.709-44.043 74.707-42.4805 70.5566-39.5996C67.0898-37.207 64.5508-34.7168 64.5508-30.3223L64.5508-29.7852C64.5508-27.002 66.2598-25.5859 69.2383-25.5859ZM28.5156 10.4492L66.6992 10.4492L66.6992 0.732422L29.1504 0.732422C24.6582 0.732422 22.168-1.61133 22.168-6.34766L22.168-31.5918L12.4512-31.5918L12.4512-5.46875C12.4512 4.98047 17.9688 10.4492 28.5156 10.4492ZM73.877 10.4492L112.061 10.4492C122.656 10.4492 128.174 4.98047 128.174-5.46875L128.174-31.5918L118.408-31.5918L118.408-6.34766C118.408-1.61133 115.918 0.732422 111.426 0.732422L73.877 0.732422ZM69.1895-10.5469C72.3145-10.5469 74.9023-12.8418 74.9023-15.9668C74.9023-19.043 72.3633-21.3379 69.1895-21.3379C66.0156-21.3379 63.4277-19.043 63.4277-15.9668C63.4277-12.8906 66.0156-10.5469 69.1895-10.5469Z"/>
  </g>
  <g id="Regular-M" transform="matrix(1 0 0 1 1379.82 1126)">
   <path d="M119.727-38.5254L127.588-38.5254L127.588-64.9902C127.588-75.0488 122.51-80.127 112.256-80.127L73.3398-80.127L73.3398-72.2656L112.158-72.2656C116.992-72.2656 119.727-69.6777 119.727-64.5996ZM12.4512-38.5254L20.3125-38.5254L20.3125-64.5996C20.3125-69.6777 22.998-72.2656 27.8809-72.2656L66.6992-72.2656L66.6992-80.127L27.7832-80.127C17.5781-80.127 12.4512-75.0977 12.4512-64.9902ZM69.0918-25.1465C71.5332-25.1465 72.998-26.709 72.998-28.6133L72.998-29.1992C72.998-31.9336 74.6094-33.6914 78.0273-35.9375C82.7637-39.0625 86.1328-41.8945 86.1328-47.7539C86.1328-55.8594 78.9062-60.2539 70.6055-60.2539C62.207-60.2539 56.6895-56.25 55.3711-51.7578C55.0781-50.9766 54.9316-50.1465 54.9316-49.3652C54.9316-47.168 56.6895-45.9961 58.3008-45.9961C61.0352-45.9961 61.5234-47.4609 63.0859-49.3164C64.6973-52.002 67.041-53.6133 70.2637-53.6133C74.7559-53.6133 77.6367-51.0742 77.6367-47.3633C77.6367-44.043 75.5859-42.4316 71.2891-39.4531C67.8223-37.0117 65.1855-34.4238 65.1855-29.6387L65.1855-29.0039C65.1855-26.4648 66.6016-25.1465 69.0918-25.1465ZM27.7832 9.76562L66.6992 9.76562L66.6992 1.9043L27.8809 1.9043C22.998 1.9043 20.3125-0.683594 20.3125-5.76172L20.3125-31.8359L12.4512-31.8359L12.4512-5.37109C12.4512 4.73633 17.5781 9.76562 27.7832 9.76562ZM73.3398 9.76562L112.256 9.76562C122.51 9.76562 127.588 4.6875 127.588-5.37109L127.588-31.8359L119.727-31.8359L119.727-5.76172C119.727-0.683594 116.992 1.9043 112.158 1.9043L73.3398 1.9043ZM68.9941-10.5957C71.7773-10.5957 74.2188-12.8418 74.2188-15.6738C74.2188-18.5059 71.8262-20.752 68.9941-20.752C66.1133-20.752 63.7207-18.457 63.7207-15.6738C63.7207-12.8906 66.1621-10.5957 68.9941-10.5957Z"/>
  </g>
  <g id="Light-M" transform="matrix(1 0 0 1 1083.5 1126)">
   <path d="M120.752-37.9883L126.807-37.9883L126.807-65.0879C126.807-74.5117 121.973-79.3945 112.402-79.3945L72.4609-79.3945L72.4609-73.3398L112.305-73.3398C117.676-73.3398 120.752-70.4102 120.752-64.7949ZM12.4512-37.9883L18.5059-37.9883L18.5059-64.7949C18.5059-70.4102 21.4844-73.3398 26.9531-73.3398L66.7969-73.3398L66.7969-79.3945L26.8555-79.3945C17.334-79.3945 12.4512-74.5605 12.4512-65.0879ZM68.75-25.293C70.6055-25.293 71.7773-26.5137 71.7773-28.0762L71.7773-29.0527C71.7773-31.9336 73.2422-33.7402 76.8555-36.1328C81.7383-39.4043 84.5703-42.2852 84.5703-47.6074C84.5703-54.9316 78.0762-59.2773 70.0684-59.2773C62.0117-59.2773 56.7383-55.127 55.6641-50.3906C55.4688-49.6582 55.3711-48.9746 55.3711-48.1934C55.3711-46.4844 56.6895-45.5566 58.0078-45.5566C60.1074-45.5566 60.5957-46.6797 61.6211-48.1934C62.8418-51.6113 65.625-54.1016 69.8242-54.1016C74.8535-54.1016 78.0762-51.3184 78.0762-47.3145C78.0762-43.9453 76.1719-42.1387 71.6797-39.0137C67.9688-36.4258 65.7227-33.8867 65.7227-29.3945L65.7227-28.3203C65.7227-26.3672 66.8457-25.293 68.75-25.293ZM26.8555 9.0332L66.7969 9.0332L66.7969 2.97852L26.9531 2.97852C21.4844 2.97852 18.5059 0.0976562 18.5059-5.56641L18.5059-32.3242L12.4512-32.3242L12.4512-5.22461C12.4512 4.19922 17.334 9.0332 26.8555 9.0332ZM72.4609 9.0332L112.402 9.0332C121.973 9.0332 126.807 4.15039 126.807-5.22461L126.807-32.3242L120.752-32.3242L120.752-5.56641C120.752 0.0976562 117.676 2.97852 112.305 2.97852L72.4609 2.97852ZM68.6523-11.377C71.0938-11.377 73.1934-13.3301 73.1934-15.7715C73.1934-18.2129 71.1426-20.166 68.6523-20.166C66.1621-20.166 64.1113-18.2129 64.1113-15.7715C64.1113-13.3789 66.1621-11.377 68.6523-11.377Z"/>
  </g>
  <g id="Thin-M" transform="matrix(1 0 0 1 787.33 1126)">
   <path d="M122.119-37.3047L125.732-37.3047L125.732-65.2344C125.732-73.7305 121.24-78.3691 112.598-78.3691L71.2891-78.3691L71.2891-74.7559L112.451-74.7559C118.604-74.7559 122.119-71.4355 122.119-65.0391ZM12.4512-37.3047L16.0645-37.3047L16.0645-65.0391C16.0645-71.4355 19.3848-74.7559 25.7324-74.7559L66.9434-74.7559L66.9434-78.3691L25.6348-78.3691C16.9922-78.3691 12.4512-73.877 12.4512-65.2344ZM68.2617-25.4883C69.3848-25.4883 70.0684-26.2695 70.0684-27.3438L70.0684-28.8574C70.0684-31.9336 71.4355-33.7891 75.3418-36.4258C80.4199-39.8926 82.5195-42.7734 82.5195-47.4121C82.5195-53.6621 76.9531-58.0566 69.3359-58.0566C61.7188-58.0566 56.7871-53.6133 56.1035-48.584C55.957-47.9492 55.9082-47.3633 55.9082-46.6797C55.9082-45.6055 56.6895-44.9707 57.6172-44.9707C58.8379-44.9707 59.3262-45.6543 59.7168-46.6797C60.3516-51.123 63.7695-54.7363 69.1895-54.7363C75-54.7363 78.6133-51.5625 78.6133-47.2168C78.6133-43.8477 76.9043-41.748 72.168-38.4766C68.1641-35.6445 66.4062-33.1055 66.4062-29.1016L66.4062-27.3926C66.4062-26.2207 67.1387-25.4883 68.2617-25.4883ZM25.6348 8.05664L66.9434 8.05664L66.9434 4.44336L25.7324 4.44336C19.3848 4.44336 16.0645 1.12305 16.0645-5.22461L16.0645-32.959L12.4512-32.959L12.4512-5.0293C12.4512 3.56445 16.9922 8.05664 25.6348 8.05664ZM71.2891 8.05664L112.598 8.05664C121.24 8.05664 125.732 3.4668 125.732-5.0293L125.732-32.959L122.119-32.959L122.119-5.22461C122.119 1.12305 118.604 4.44336 112.451 4.44336L71.2891 4.44336ZM68.2129-12.4023C70.166-12.4023 71.7773-14.0625 71.7773-15.918C71.7773-17.8711 70.166-19.4824 68.2129-19.4824C66.2109-19.4824 64.6484-17.8711 64.6484-15.918C64.6484-14.0625 66.2109-12.4023 68.2129-12.4023Z"/>
  </g>
  <g id="Ultralight-M" transform="matrix(1 0 0 1 490.888 1126)">
   <path d="M122.803-36.9629L125.195-36.9629L125.195-65.2832C125.195-73.3887 120.85-77.832 112.695-77.832L70.6543-77.832L70.6543-75.4395L112.549-75.4395C119.043-75.4395 122.803-71.9727 122.803-65.1855ZM12.4512-36.9629L14.8438-36.9629L14.8438-65.1855C14.8438-71.9727 18.3594-75.4395 25.0977-75.4395L66.9922-75.4395L66.9922-77.832L25-77.832C16.7969-77.832 12.4512-73.4863 12.4512-65.2832ZM68.0176-25.5859C68.75-25.5859 69.2383-26.1719 69.2383-26.9531L69.2383-28.7598C69.2383-31.9336 70.5566-33.8379 74.5605-36.5723C79.7363-40.1367 81.4941-43.0176 81.4941-47.3633C81.4941-53.0273 76.3672-57.373 68.9453-57.373C61.5723-57.373 56.8359-52.832 56.2988-47.6562C56.25-47.0703 56.2012-46.5332 56.2012-45.8984C56.2012-45.1172 56.7383-44.6289 57.4707-44.6289C58.2031-44.6289 58.7402-45.1172 58.7402-45.8984C59.082-50.8789 62.793-55.0293 68.8477-55.0293C75.0488-55.0293 78.9062-51.709 78.9062-47.168C78.9062-43.7988 77.2949-41.5527 72.4609-38.1836C68.2617-35.2051 66.7969-32.7148 66.7969-28.9551L66.7969-26.9531C66.7969-26.1719 67.334-25.5859 68.0176-25.5859ZM25 7.56836L66.9922 7.56836L66.9922 5.17578L25.0977 5.17578C18.3594 5.17578 14.8438 1.66016 14.8438-5.07812L14.8438-33.3008L12.4512-33.3008L12.4512-4.98047C12.4512 3.22266 16.7969 7.56836 25 7.56836ZM70.6543 7.56836L112.695 7.56836C120.85 7.56836 125.195 3.125 125.195-4.98047L125.195-33.3008L122.803-33.3008L122.803-5.07812C122.803 1.66016 119.043 5.17578 112.549 5.17578L70.6543 5.17578ZM67.9688-12.9395C69.7266-12.9395 71.0449-14.4043 71.0449-16.0156C71.0449-17.6758 69.6777-19.0918 67.9688-19.0918C66.2598-19.0918 64.8926-17.6758 64.8926-16.0156C64.8926-14.4043 66.2598-12.9395 67.9688-12.9395Z"/>
  </g>
  <g id="Black-S" transform="matrix(1 0 0 1 2877.35 696)">
   <path d="M88.1836-38.8672L102.344-38.8672L102.344-58.1055C102.344-67.6758 96.6797-73.3398 87.1094-73.3398L59.7168-73.3398L59.7168-59.1797L84.8633-59.1797C87.1094-59.1797 88.1836-58.3008 88.1836-55.8594ZM9.76562-38.8672L23.9258-38.8672L23.9258-55.8594C23.9258-58.3008 25-59.1797 27.2461-59.1797L52.3926-59.1797L52.3926-73.3398L25-73.3398C15.4297-73.3398 9.76562-67.6758 9.76562-58.1055ZM54.8828-29.0527C57.8125-29.0527 60.0586-30.3223 60.6445-32.1289C60.6934-32.2754 60.7422-32.4707 60.791-32.5684C61.4258-33.7891 63.2812-34.9121 64.8926-35.8887C69.043-38.4277 70.4102-40.4785 70.4102-44.2383C70.4102-50.5859 64.3555-55.2734 56.1523-55.2734C49.707-55.2734 44.6777-52.8809 42.8223-48.9746C42.4316-48.1445 42.2363-47.3633 42.2363-46.4355C42.2363-43.9941 44.0918-41.748 48.0469-41.748C50.5859-41.748 51.8555-42.8711 52.6855-43.6035C53.8574-44.6289 54.4922-45.0195 55.3711-45.0195C56.3477-45.0195 56.9824-44.4336 56.9824-43.457C56.9824-42.2363 55.4199-41.0645 52.6855-39.209C50.0488-37.4023 48.4375-35.7422 48.4375-33.6914L48.4375-33.5938C48.4375-30.6152 50.7324-29.0527 54.8828-29.0527ZM25 2.92969L52.3926 2.92969L52.3926-11.2305L27.2461-11.2305C25-11.2305 23.9258-12.1094 23.9258-14.5508L23.9258-31.543L9.76562-31.543L9.76562-12.3047C9.76562-2.73438 15.4297 2.92969 25 2.92969ZM59.7168 2.92969L87.1094 2.92969C96.6797 2.92969 102.344-2.73438 102.344-12.3047L102.344-31.543L88.1836-31.543L88.1836-14.5508C88.1836-12.1094 87.1094-11.2305 84.8633-11.2305L59.7168-11.2305ZM54.9316-15.8203C58.5449-15.8203 61.084-17.7246 61.084-21.0938C61.084-24.4141 58.5449-26.3672 54.9316-26.3672C51.3184-26.3672 48.6816-24.4629 48.6816-21.0938C48.6816-17.7246 51.3184-15.8203 54.9316-15.8203Z"/>
  </g>
  <g id="Heavy-S" transform="matrix(1 0 0 1 2580.88 696)">
   <path d="M89.4043-38.6719L101.855-38.6719L101.855-58.2031C101.855-67.4316 96.582-72.7539 87.3047-72.7539L59.2773-72.7539L59.2773-60.2539L85.5469-60.2539C88.0859-60.2539 89.4043-59.1309 89.4043-56.3965ZM9.76562-38.6719L22.2656-38.6719L22.2656-56.3965C22.2656-59.1309 23.5352-60.2539 26.0742-60.2539L52.3438-60.2539L52.3438-72.7539L24.3652-72.7539C15.0879-72.7539 9.76562-67.4316 9.76562-58.2031ZM54.7363-28.6133C57.5195-28.6133 59.5215-29.9316 59.9609-31.6895C60.0098-31.8359 60.0586-32.0312 60.1074-32.0801C60.5957-33.5449 62.3047-34.7168 64.1113-35.8398C68.1641-38.3301 69.873-40.4297 69.873-44.4336C69.873-50.8789 63.8672-55.2734 56.0059-55.2734C49.5117-55.2734 44.6289-52.7344 42.9199-48.9258C42.5781-48.1445 42.3828-47.4121 42.3828-46.5332C42.3828-44.1895 44.1406-42.2363 47.5098-42.2363C50.0488-42.2363 51.0742-43.4082 52.0996-44.3359C53.3203-45.5566 54.1992-46.0449 55.3711-46.0449C56.8359-46.0449 57.8613-45.166 57.8613-43.75C57.8613-42.2363 56.25-41.0645 53.3691-39.1113C50.7812-37.3047 48.9746-35.5469 48.9746-33.0566L48.9746-32.9102C48.9746-30.0781 51.0254-28.6133 54.7363-28.6133ZM24.3652 2.34375L52.3438 2.34375L52.3438-10.1562L26.0742-10.1562C23.5352-10.1562 22.2656-11.2793 22.2656-14.0137L22.2656-31.7383L9.76562-31.7383L9.76562-12.207C9.76562-2.97852 15.0879 2.34375 24.3652 2.34375ZM59.2773 2.34375L87.3047 2.34375C96.582 2.34375 101.855-2.97852 101.855-12.207L101.855-31.7383L89.4043-31.7383L89.4043-14.0137C89.4043-11.2793 88.0859-10.1562 85.5469-10.1562L59.2773-10.1562ZM54.7363-15.7715C58.1055-15.7715 60.498-17.6758 60.498-20.8008C60.498-23.9258 58.1055-25.8301 54.7363-25.8301C51.416-25.8301 48.9258-23.9258 48.9258-20.8008C48.9258-17.6758 51.416-15.7715 54.7363-15.7715Z"/>
  </g>
  <g id="Bold-S" transform="matrix(1 0 0 1 2284.41 696)">
   <path d="M90.7715-38.4766L101.367-38.4766L101.367-58.3008C101.367-67.1875 96.4844-72.0703 87.5-72.0703L58.8379-72.0703L58.8379-61.4746L86.3281-61.4746C89.209-61.4746 90.7715-60.0586 90.7715-56.9824ZM9.76562-38.4766L20.3613-38.4766L20.3613-56.9824C20.3613-60.0586 21.9238-61.4746 24.8047-61.4746L52.2949-61.4746L52.2949-72.0703L23.6328-72.0703C14.6973-72.0703 9.76562-67.1875 9.76562-58.3008ZM54.5898-28.1738C57.1777-28.1738 58.9355-29.4922 59.2285-31.25C59.2773-31.3477 59.2773-31.4941 59.3262-31.5918C59.6191-33.252 61.1816-34.4727 63.2812-35.791C67.1875-38.2324 69.3359-40.3809 69.3359-44.6777C69.3359-51.2207 63.2812-55.2734 55.8594-55.2734C49.2676-55.2734 44.5312-52.5879 43.0176-48.9258C42.7246-48.1445 42.5293-47.4609 42.5293-46.6309C42.5293-44.4336 44.2383-42.8223 46.9238-42.8223C49.4629-42.8223 50.2441-44.043 51.416-45.2148C52.7344-46.582 53.8574-47.2168 55.3223-47.2168C57.4219-47.2168 58.7891-45.9961 58.7891-44.0918C58.7891-42.1875 57.1777-41.0645 54.1992-38.9648C51.5625-37.1582 49.6094-35.3027 49.6094-32.3242L49.6094-32.1289C49.6094-29.4922 51.3672-28.1738 54.5898-28.1738ZM23.6328 1.66016L52.2949 1.66016L52.2949-8.93555L24.8047-8.93555C21.9238-8.93555 20.3613-10.3516 20.3613-13.4277L20.3613-31.9336L9.76562-31.9336L9.76562-12.1094C9.76562-3.22266 14.6973 1.66016 23.6328 1.66016ZM58.8379 1.66016L87.5 1.66016C96.4844 1.66016 101.367-3.22266 101.367-12.1094L101.367-31.9336L90.7715-31.9336L90.7715-13.4277C90.7715-10.3516 89.209-8.93555 86.3281-8.93555L58.8379-8.93555ZM54.541-15.6738C57.5684-15.6738 59.8633-17.5781 59.8633-20.459C59.8633-23.3398 57.5684-25.2441 54.541-25.2441C51.5625-25.2441 49.2188-23.3398 49.2188-20.459C49.2188-17.5781 51.5625-15.6738 54.541-15.6738Z"/>
  </g>
  <g id="Semibold-S" transform="matrix(1 0 0 1 1987.9 696)">
   <path d="M91.6992-38.3301L100.977-38.3301L100.977-58.3984C100.977-67.041 96.3867-71.582 87.6465-71.582L58.4961-71.582L58.4961-62.3047L86.8652-62.3047C89.9902-62.3047 91.6992-60.6934 91.6992-57.4219ZM9.76562-38.3301L19.0918-38.3301L19.0918-57.4219C19.0918-60.6934 20.752-62.3047 23.877-62.3047L52.2461-62.3047L52.2461-71.582L23.0957-71.582C14.4043-71.582 9.76562-67.041 9.76562-58.3984ZM54.4922-27.832C56.9336-27.832 58.5449-29.1504 58.6914-30.9082C58.7402-31.0059 58.7402-31.1523 58.7402-31.2012C58.9844-33.0078 60.4492-34.2773 62.6953-35.7422C66.5039-38.1836 68.8965-40.332 68.8965-44.8242C68.8965-51.4648 62.8906-55.2734 55.7617-55.2734C49.1211-55.2734 44.4824-52.4414 43.0664-48.877C42.8223-48.1934 42.627-47.4609 42.627-46.7285C42.627-44.6289 44.2871-43.2129 46.5332-43.2129C49.0234-43.2129 49.6582-44.4336 50.9277-45.8008C52.2949-47.2656 53.6133-47.998 55.3223-47.998C57.8125-47.998 59.4727-46.5332 59.4727-44.3359C59.4727-42.1875 57.8125-41.0156 54.7363-38.916C52.0996-37.0605 50.0488-35.1562 50.0488-31.8359L50.0488-31.6406C50.0488-29.1016 51.6113-27.832 54.4922-27.832ZM23.0957 1.17188L52.2461 1.17188L52.2461-8.10547L23.877-8.10547C20.752-8.10547 19.0918-9.7168 19.0918-12.9883L19.0918-32.0801L9.76562-32.0801L9.76562-12.0117C9.76562-3.36914 14.4043 1.17188 23.0957 1.17188ZM58.4961 1.17188L87.6465 1.17188C96.3867 1.17188 100.977-3.36914 100.977-12.0117L100.977-32.0801L91.6992-32.0801L91.6992-12.9883C91.6992-9.7168 89.9902-8.10547 86.8652-8.10547L58.4961-8.10547ZM54.4434-15.625C57.2266-15.625 59.4238-17.5293 59.4238-20.2637C59.4238-22.9492 57.2266-24.8535 54.4434-24.8535C51.6113-24.8535 49.4141-22.9492 49.4141-20.2637C49.4141-17.5293 51.6602-15.625 54.4434-15.625Z"/>
  </g>
  <g id="Medium-S" transform="matrix(1 0 0 1 1691.31 696)">
   <path d="M92.3828-38.1836L100.732-38.1836L100.732-58.4473C100.732-66.8945 96.3379-71.2402 87.7441-71.2402L58.252-71.2402L58.252-62.9395L87.3047-62.9395C90.5762-62.9395 92.3828-61.1816 92.3828-57.7148ZM9.76562-38.1836L18.0664-38.1836L18.0664-57.7148C18.0664-61.1816 19.9219-62.9395 23.1934-62.9395L52.2461-62.9395L52.2461-71.2402L22.7051-71.2402C14.209-71.2402 9.76562-66.8945 9.76562-58.4473ZM54.3945-27.5879C56.7383-27.5879 58.2031-28.9551 58.3008-30.6641C58.3496-30.7617 58.3496-30.8594 58.3496-30.957C58.4473-32.8613 59.8633-34.1797 62.2559-35.6934C66.0156-38.1348 68.6035-40.332 68.6035-44.9219C68.6035-51.6113 62.5977-55.2734 55.6641-55.2734C48.9746-55.2734 44.4336-52.3926 43.1641-48.877C42.8711-48.1934 42.7246-47.5098 42.7246-46.7773C42.7246-44.7266 44.3359-43.5059 46.1914-43.5059C48.6816-43.5059 49.2188-44.7754 50.5859-46.2402C52.002-47.8027 53.418-48.584 55.3223-48.584C58.1055-48.584 59.9609-46.9727 59.9609-44.5312C59.9609-42.1875 58.3008-41.0156 55.127-38.8184C52.4902-37.0117 50.3906-35.0098 50.3906-31.4453L50.3906-31.2012C50.3906-28.8086 51.8066-27.5879 54.3945-27.5879ZM22.7051 0.830078L52.2461 0.830078L52.2461-7.4707L23.1934-7.4707C19.9219-7.4707 18.0664-9.22852 18.0664-12.6953L18.0664-32.2266L9.76562-32.2266L9.76562-11.9629C9.76562-3.51562 14.209 0.830078 22.7051 0.830078ZM58.252 0.830078L87.7441 0.830078C96.3379 0.830078 100.732-3.51562 100.732-11.9629L100.732-32.2266L92.3828-32.2266L92.3828-12.6953C92.3828-9.22852 90.5762-7.4707 87.3047-7.4707L58.252-7.4707ZM54.3457-15.5762C56.9336-15.5762 59.1309-17.4805 59.1309-20.0684C59.1309-22.6562 56.9824-24.5117 54.3457-24.5117C51.709-24.5117 49.5117-22.6074 49.5117-20.0684C49.5117-17.5293 51.709-15.5762 54.3457-15.5762Z"/>
  </g>
  <g id="Regular-S" transform="matrix(1 0 0 1 1394.79 696)">
   <path d="M93.3105-38.0371L100.342-38.0371L100.342-58.4961C100.342-66.6992 96.2402-70.8008 87.8906-70.8008L57.9102-70.8008L57.9102-63.7207L87.793-63.7207C91.3086-63.7207 93.3105-61.8164 93.3105-58.1543ZM9.76562-38.0371L16.7969-38.0371L16.7969-58.1543C16.7969-61.8164 18.7988-63.7207 22.3145-63.7207L52.1973-63.7207L52.1973-70.8008L22.2168-70.8008C13.916-70.8008 9.76562-66.6992 9.76562-58.4961ZM54.2969-27.2461C56.4941-27.2461 57.8125-28.6133 57.8125-30.3223L57.8125-30.6152C57.8125-32.666 59.1309-33.9844 61.6699-35.6934C65.332-38.0371 68.2129-40.2832 68.2129-45.1172C68.2129-51.8555 62.207-55.2734 55.5664-55.2734C48.8281-55.2734 44.3848-52.2461 43.2129-48.877C42.9688-48.1934 42.8223-47.5098 42.8223-46.8262C42.8223-44.9219 44.3848-43.8965 45.8008-43.8965C48.291-43.8965 48.6328-45.2148 50.0977-46.7773C51.5625-48.5352 53.2227-49.4141 55.2734-49.4141C58.4961-49.4141 60.5957-47.5586 60.5957-44.7754C60.5957-42.1875 58.9355-41.0156 55.6641-38.7695C53.0273-36.9141 50.8301-34.8633 50.8301-30.957L50.8301-30.7129C50.8301-28.418 52.0508-27.2461 54.2969-27.2461ZM22.2168 0.390625L52.1973 0.390625L52.1973-6.68945L22.3145-6.68945C18.7988-6.68945 16.7969-8.54492 16.7969-12.2559L16.7969-32.373L9.76562-32.373L9.76562-11.9141C9.76562-3.71094 13.916 0.390625 22.2168 0.390625ZM57.9102 0.390625L87.8906 0.390625C96.2402 0.390625 100.342-3.71094 100.342-11.9141L100.342-32.373L93.3105-32.373L93.3105-12.2559C93.3105-8.54492 91.3086-6.68945 87.793-6.68945L57.9102-6.68945ZM54.1992-15.5273C56.5918-15.5273 58.6914-17.4316 58.6914-19.8242C58.6914-22.2656 56.6406-24.1211 54.1992-24.1211C51.7578-24.1211 49.707-22.2168 49.707-19.8242C49.707-17.4805 51.8066-15.5273 54.1992-15.5273Z"/>
  </g>
  <g id="Light-S" transform="matrix(1 0 0 1 1098.42 696)">
   <path d="M94.2383-37.5977L99.6582-37.5977L99.6582-58.5938C99.6582-66.2109 95.752-70.1172 88.0371-70.1172L57.1289-70.1172L57.1289-64.6973L87.9395-64.6973C91.9434-64.6973 94.2383-62.5 94.2383-58.3008ZM9.76562-37.5977L15.1855-37.5977L15.1855-58.3008C15.1855-62.5 17.4316-64.6973 21.4844-64.6973L52.2949-64.6973L52.2949-70.1172L21.3867-70.1172C13.6719-70.1172 9.76562-66.2598 9.76562-58.5938ZM54.0039-27.3926C55.6641-27.3926 56.6895-28.4668 56.6895-29.834L56.6895-30.4688C56.6895-32.666 57.9102-34.0332 60.6445-35.8887C64.4043-38.3789 66.8457-40.625 66.8457-44.9707C66.8457-51.0254 61.4746-54.4434 55.0781-54.4434C48.6328-54.4434 44.4336-51.2695 43.5059-47.6562C43.3105-47.0215 43.2129-46.4355 43.2129-45.8496C43.2129-44.3359 44.3848-43.457 45.5566-43.457C47.4609-43.457 47.8027-44.4824 48.8281-45.8008C49.9023-48.1934 51.9531-49.8047 54.8828-49.8047C58.5938-49.8047 60.9863-47.7539 60.9863-44.7266C60.9863-42.0898 59.4238-40.7715 56.0059-38.3789C53.1738-36.377 51.2695-34.375 51.2695-30.7617L51.2695-30.0781C51.2695-28.3203 52.2461-27.3926 54.0039-27.3926ZM21.3867-0.292969L52.2949-0.292969L52.2949-5.71289L21.4844-5.71289C17.4316-5.71289 15.1855-7.86133 15.1855-12.0605L15.1855-32.7637L9.76562-32.7637L9.76562-11.7676C9.76562-4.15039 13.6719-0.292969 21.3867-0.292969ZM57.1289-0.292969L88.0371-0.292969C95.752-0.292969 99.6582-4.15039 99.6582-11.7676L99.6582-32.7637L94.2383-32.7637L94.2383-12.0605C94.2383-7.86133 91.9434-5.71289 87.9395-5.71289L57.1289-5.71289ZM53.9062-16.2598C55.957-16.2598 57.7148-17.8711 57.7148-19.9219C57.7148-22.0215 56.0059-23.6328 53.9062-23.6328C51.8066-23.6328 50.0488-21.9727 50.0488-19.9219C50.0488-17.9199 51.8555-16.2598 53.9062-16.2598Z"/>
  </g>
  <g id="Thin-S" transform="matrix(1 0 0 1 802.174 696)">
   <path d="M95.4102-37.0117L98.7305-37.0117L98.7305-58.6914C98.7305-65.5762 95.1172-69.2383 88.1836-69.2383L56.1035-69.2383L56.1035-65.918L88.0859-65.918C92.7246-65.918 95.4102-63.3789 95.4102-58.5449ZM9.76562-37.0117L13.0859-37.0117L13.0859-58.5449C13.0859-63.3789 15.625-65.918 20.4102-65.918L52.3926-65.918L52.3926-69.2383L20.3125-69.2383C13.3789-69.2383 9.76562-65.625 9.76562-58.6914ZM53.5645-27.5879C54.5898-27.5879 55.2246-28.2715 55.2246-29.1992L55.2246-30.2734C55.2246-32.666 56.3477-34.082 59.3262-36.1328C63.2324-38.7695 65.0391-41.0156 65.0391-44.8242C65.0391-49.9023 60.498-53.3203 54.4434-53.3203C48.3887-53.3203 44.4824-49.9023 43.8477-46.0449C43.75-45.5566 43.7012-45.0195 43.7012-44.4824C43.7012-43.5059 44.4336-42.9688 45.2148-42.9688C46.3379-42.9688 46.7285-43.6035 47.168-44.4824C47.7539-47.8027 50.293-50.3906 54.2969-50.3906C58.6914-50.3906 61.4746-47.998 61.4746-44.6289C61.4746-41.9922 60.1074-40.4297 56.4453-37.8906C53.3691-35.6934 51.9043-33.7402 51.9043-30.5176L51.9043-29.2969C51.9043-28.2227 52.5391-27.5879 53.5645-27.5879ZM20.3125-1.12305L52.3926-1.12305L52.3926-4.44336L20.4102-4.44336C15.625-4.44336 13.0859-6.93359 13.0859-11.8164L13.0859-33.3496L9.76562-33.3496L9.76562-11.6211C9.76562-4.6875 13.3789-1.12305 20.3125-1.12305ZM56.1035-1.12305L88.1836-1.12305C95.1172-1.12305 98.7305-4.78516 98.7305-11.6211L98.7305-33.3496L95.4102-33.3496L95.4102-11.8164C95.4102-6.93359 92.7246-4.44336 88.0859-4.44336L56.1035-4.44336ZM53.5156-17.1387C55.1758-17.1387 56.4941-18.5059 56.4941-20.0684C56.4941-21.6797 55.1758-22.998 53.5156-22.998C51.8555-22.998 50.5371-21.6797 50.5371-20.0684C50.5371-18.5059 51.8555-17.1387 53.5156-17.1387Z"/>
  </g>
  <g id="Ultralight-S" transform="matrix(1 0 0 1 505.707 696)">
   <path d="M96.0449-36.6699L98.2422-36.6699L98.2422-58.7891C98.2422-65.2344 94.8242-68.75 88.2812-68.75L55.5664-68.75L55.5664-66.5527L88.1836-66.5527C93.1641-66.5527 96.0449-63.8672 96.0449-58.6426ZM9.76562-36.6699L11.9629-36.6699L11.9629-58.6426C11.9629-63.8672 14.6484-66.5527 19.873-66.5527L52.4902-66.5527L52.4902-68.75L19.7754-68.75C13.2324-68.75 9.76562-65.2832 9.76562-58.7891ZM53.3691-27.6855C54.0527-27.6855 54.4922-28.1738 54.4922-28.8574L54.4922-30.1758C54.4922-32.666 55.5176-34.1309 58.5938-36.2305C62.6465-39.0137 64.1113-41.2598 64.1113-44.7266C64.1113-49.3652 59.9609-52.7832 54.1504-52.7832C48.291-52.7832 44.5312-49.2188 44.043-45.2148C43.9941-44.7754 43.9453-44.2871 43.9453-43.7988C43.9453-43.1152 44.4336-42.6758 45.0684-42.6758C45.8008-42.6758 46.1914-43.1152 46.2891-43.7988C46.6309-47.5586 49.4629-50.6836 54.0039-50.6836C58.7891-50.6836 61.7676-48.0957 61.7676-44.5801C61.7676-41.9434 60.4492-40.2344 56.6895-37.5977C53.4668-35.3516 52.2461-33.3984 52.2461-30.3711L52.2461-28.8574C52.2461-28.125 52.6855-27.6855 53.3691-27.6855ZM19.7754-1.5625L52.4902-1.5625L52.4902-3.75977L19.873-3.75977C14.6484-3.75977 11.9629-6.44531 11.9629-11.6699L11.9629-33.6426L9.76562-33.6426L9.76562-11.5234C9.76562-5.0293 13.2324-1.5625 19.7754-1.5625ZM55.5664-1.5625L88.2812-1.5625C94.8242-1.5625 98.2422-5.12695 98.2422-11.5234L98.2422-33.6426L96.0449-33.6426L96.0449-11.6699C96.0449-6.44531 93.1641-3.75977 88.1836-3.75977L55.5664-3.75977ZM53.3203-17.627C54.7363-17.627 55.8594-18.8477 55.8594-20.166C55.8594-21.5332 54.7363-22.7051 53.3203-22.7051C51.9043-22.7051 50.7812-21.5332 50.7812-20.166C50.7812-18.8477 51.9043-17.627 53.3203-17.627Z"/>
  </g>
 </g>
</svg>
